<svg width="215" height="22" viewBox="0 0 215 22" fill="none" xmlns="http://www.w3.org/2000/svg">
<path d="M7.05754 7.03808V16.6841H8.37354V13.0721H10.9075C12.9515 13.0721 13.7775 11.5741 13.7775 10.0621C13.7775 8.55008 12.9515 7.03808 10.9075 7.03808H7.05754ZM10.8935 8.25608C12.0135 8.25608 12.4755 9.18008 12.4755 10.0621C12.4755 10.9581 11.9995 11.8541 10.8235 11.8541H8.37354V8.25608H10.8935ZM18.5317 16.8241C20.3937 16.8241 21.9617 15.4661 21.9617 13.3941C21.9617 11.3221 20.3937 10.0061 18.5317 10.0061C16.6697 10.0061 15.1157 11.3221 15.1157 13.3941C15.1157 15.4661 16.6697 16.8241 18.5317 16.8241ZM18.5317 15.5921C17.3417 15.5921 16.3757 14.7381 16.3757 13.3941C16.3757 12.0781 17.3417 11.2521 18.5317 11.2521C19.6937 11.2521 20.6877 12.0781 20.6877 13.3941C20.6877 14.7381 19.6937 15.5921 18.5317 15.5921ZM31.4371 16.6841L33.8591 10.1461H32.5011L30.8631 14.7241L29.2251 10.1461H27.9931L26.3551 14.7241L24.7171 10.1461H23.3591L25.8511 16.6841H26.8871L28.6091 11.8821L30.3871 16.6841H31.4371ZM36.4209 12.9041C36.5749 11.7981 37.4149 11.1541 38.4929 11.1541C39.5569 11.1541 40.3269 11.7981 40.4809 12.9041H36.4209ZM41.7409 13.3941C41.7409 11.3221 40.3549 10.0061 38.4929 10.0061C36.6309 10.0061 35.1469 11.3221 35.1469 13.3941C35.1469 15.4661 36.6309 16.8241 38.4929 16.8241C39.7669 16.8241 40.9429 16.2501 41.5029 15.0881C41.1529 14.9341 40.7469 14.8221 40.4109 14.6681C40.0329 15.3261 39.3189 15.6761 38.5349 15.6761C37.4149 15.6761 36.5749 15.0041 36.4209 13.8981H41.7269C41.7409 13.7441 41.7409 13.5481 41.7409 13.3941ZM45.1342 14.3041C45.1342 12.5681 45.6662 11.2241 46.9262 11.2241C47.1922 11.2241 47.5422 11.2801 47.8922 11.4481L48.0882 10.2581C47.9062 10.1321 47.4162 10.0061 46.9542 10.0061C46.1002 10.0061 45.4702 10.4541 45.1342 11.6161V10.1461H43.8602V16.6841H45.1342V14.3041ZM50.5596 12.9041C50.7136 11.7981 51.5536 11.1541 52.6316 11.1541C53.6956 11.1541 54.4656 11.7981 54.6196 12.9041H50.5596ZM55.8796 13.3941C55.8796 11.3221 54.4936 10.0061 52.6316 10.0061C50.7696 10.0061 49.2856 11.3221 49.2856 13.3941C49.2856 15.4661 50.7696 16.8241 52.6316 16.8241C53.9056 16.8241 55.0816 16.2501 55.6416 15.0881C55.2916 14.9341 54.8856 14.8221 54.5496 14.6681C54.1716 15.3261 53.4576 15.6761 52.6736 15.6761C51.5536 15.6761 50.7136 15.0041 50.5596 13.8981H55.8656C55.8796 13.7441 55.8796 13.5481 55.8796 13.3941ZM63.1649 16.6841H64.4389V6.59008H63.1649V11.1261C62.7309 10.3841 61.8209 10.0061 60.8549 10.0061C59.0629 10.0061 57.5649 11.3221 57.5649 13.4081C57.5649 15.4801 59.0769 16.8241 60.8689 16.8241C61.7789 16.8241 62.7309 16.4041 63.1649 15.6761V16.6841ZM63.1509 13.3941C63.1509 14.7801 62.1429 15.5781 60.9809 15.5781C59.8049 15.5781 58.8669 14.6821 58.8669 13.3941C58.8669 12.1061 59.8049 11.2521 60.9809 11.2521C62.0449 11.2521 63.1509 11.9941 63.1509 13.3941ZM72.4819 15.6761C72.9159 16.4041 73.8539 16.8241 74.7639 16.8241C76.5559 16.8241 78.0819 15.4801 78.0819 13.4081C78.0819 11.3221 76.5839 10.0061 74.7779 10.0061C73.8259 10.0061 72.9159 10.3841 72.4819 11.1261V6.59008H71.2079V16.6841H72.4819V15.6761ZM72.4959 13.3941C72.4959 11.9941 73.6019 11.2521 74.6659 11.2521C75.8419 11.2521 76.7799 12.1061 76.7799 13.3941C76.7799 14.6821 75.8419 15.5781 74.6659 15.5781C73.5039 15.5781 72.4959 14.7801 72.4959 13.3941ZM82.0441 19.8621L86.1041 10.1461H84.7461L82.7861 14.8781L80.8261 10.1461H79.4681L82.0861 16.4881L80.7141 19.8621H82.0441Z" fill="white"/>
<path d="M106.859 21.9998H108.56C111.797 21.675 110.072 21.6896 113.512 20.039C115.088 19.283 116.219 16.846 118.565 15.88C124.399 13.478 123.648 14.8141 126.333 14.8141C122.732 11.9384 121.608 13.0711 118.92 13.3504C117.203 13.5281 115.749 12.1562 115.815 10.6842C115.878 9.27678 117.622 8.03149 119.026 7.7514L115.123 7.71289L106.859 21.9998Z" fill="url(#paint0_linear_2142_31751)"/>
<path d="M112.734 11.8437C115.445 8.67099 118.528 7.61044 120.223 7.61044C122.241 7.61044 123.958 8.81103 125.172 10.0612L119.468 0.201172L112.734 11.8437Z" fill="url(#paint1_linear_2142_31751)"/>
<path d="M108.108 21.9999C115.444 21.9999 115.481 16.4607 119.467 16.4607C123.453 16.4607 123.49 21.9999 130.826 21.9999H132.076C132.076 21.9999 128.208 14.2774 123.11 13.0318C122.775 12.9488 122.431 12.9064 122.086 12.9055C117.284 12.9055 114.466 21.3602 108.108 21.9985" fill="url(#paint2_linear_2142_31751)"/>
<path d="M134.478 15.9055C134.476 15.8695 134.481 15.8335 134.493 15.7995C134.505 15.7655 134.524 15.7344 134.549 15.7081C134.574 15.6818 134.603 15.6608 134.637 15.6464C134.67 15.6321 134.706 15.6247 134.742 15.6247C134.778 15.6247 134.814 15.6321 134.847 15.6464C134.88 15.6608 134.91 15.6818 134.934 15.7081C134.959 15.7344 134.978 15.7655 134.99 15.7995C135.002 15.8335 135.008 15.8695 135.005 15.9055V18.4323C135.005 18.4682 135.022 18.4903 135.059 18.4903H138.144C138.183 18.4903 138.21 18.4711 138.21 18.4323V15.9055C138.206 15.8687 138.21 15.8314 138.221 15.7961C138.232 15.7608 138.25 15.7282 138.275 15.7005C138.3 15.6728 138.33 15.6507 138.364 15.6355C138.398 15.6204 138.435 15.6125 138.472 15.6125C138.509 15.6125 138.546 15.6204 138.58 15.6355C138.614 15.6507 138.644 15.6728 138.669 15.7005C138.693 15.7282 138.712 15.7608 138.723 15.7961C138.734 15.8314 138.738 15.8687 138.734 15.9055V21.6557C138.738 21.6925 138.734 21.7298 138.723 21.7651C138.712 21.8004 138.693 21.833 138.669 21.8607C138.644 21.8883 138.614 21.9105 138.58 21.9256C138.546 21.9408 138.509 21.9486 138.472 21.9486C138.435 21.9486 138.398 21.9408 138.364 21.9256C138.33 21.9105 138.3 21.8883 138.275 21.8607C138.25 21.833 138.232 21.8004 138.221 21.7651C138.21 21.7298 138.206 21.6925 138.21 21.6557V19.0384C138.21 19.0019 138.184 18.9804 138.144 18.9804H135.059C135.023 18.9804 135.005 18.9996 135.005 19.0384V21.6557C135.008 21.6916 135.002 21.7277 134.99 21.7617C134.978 21.7956 134.959 21.8267 134.934 21.8531C134.91 21.8794 134.88 21.9004 134.847 21.9147C134.814 21.9291 134.778 21.9365 134.742 21.9365C134.706 21.9365 134.67 21.9291 134.637 21.9147C134.603 21.9004 134.574 21.8794 134.549 21.8531C134.524 21.8267 134.505 21.7956 134.493 21.7617C134.481 21.7277 134.476 21.6916 134.478 21.6557V15.9055Z" fill="white"/>
<path d="M142.805 19.3674C142.813 19.3686 142.821 19.3679 142.828 19.3653C142.836 19.3628 142.843 19.3585 142.848 19.3528C142.854 19.3471 142.857 19.3402 142.86 19.3326C142.862 19.3251 142.862 19.3171 142.861 19.3094C142.865 19.0983 142.837 18.8878 142.778 18.6852C142.704 18.4345 142.547 18.2162 142.333 18.066C142.119 17.9158 141.859 17.8427 141.598 17.8586C141.338 17.8426 141.08 17.9159 140.867 18.0662C140.655 18.2166 140.5 18.4351 140.429 18.6852C140.367 18.8874 140.339 19.0982 140.345 19.3094C140.344 19.3173 140.344 19.3255 140.347 19.3332C140.349 19.3409 140.353 19.3479 140.359 19.3536C140.365 19.3593 140.372 19.3635 140.379 19.3659C140.387 19.3683 140.395 19.3688 140.403 19.3674H142.805ZM139.978 20.8175C139.867 20.4486 139.82 20.0636 139.838 19.6789C139.821 19.294 139.868 18.909 139.978 18.5396C140.098 18.2059 140.319 17.9174 140.61 17.7135C140.901 17.5096 141.248 17.4001 141.604 17.4001C141.959 17.4001 142.306 17.5096 142.597 17.7135C142.888 17.9174 143.109 18.2059 143.23 18.5396C143.331 18.8791 143.378 19.2326 143.368 19.5867C143.37 19.6175 143.365 19.6485 143.354 19.6774C143.343 19.7063 143.326 19.7325 143.304 19.7542C143.282 19.7759 143.255 19.7927 143.226 19.8033C143.197 19.8139 143.166 19.8182 143.135 19.8158H140.402C140.394 19.8142 140.386 19.8145 140.378 19.8167C140.371 19.8188 140.364 19.8228 140.358 19.8282C140.352 19.8336 140.348 19.8403 140.346 19.8477C140.343 19.8552 140.342 19.8631 140.343 19.8709C140.329 20.1288 140.36 20.3872 140.436 20.6342C140.515 20.8965 140.681 21.1242 140.907 21.2796C141.133 21.435 141.405 21.509 141.679 21.4893C141.902 21.4974 142.123 21.4573 142.328 21.3715C142.533 21.2858 142.717 21.1565 142.867 20.9927C142.915 20.9393 142.981 20.9059 143.052 20.8993C143.081 20.8981 143.11 20.9028 143.137 20.913C143.163 20.9232 143.188 20.9387 143.208 20.9586C143.229 20.9785 143.245 21.0024 143.256 21.0288C143.268 21.0552 143.273 21.0836 143.273 21.1122C143.274 21.1722 143.253 21.2306 143.215 21.2769C143.025 21.5044 142.784 21.6849 142.513 21.8044C142.241 21.924 141.946 21.9793 141.649 21.9661C141.28 21.9959 140.912 21.898 140.607 21.6889C140.302 21.4799 140.078 21.1724 139.974 20.8181" fill="white"/>
<path d="M147.32 20.5239V19.8719C147.32 19.8342 147.303 19.8139 147.267 19.8139H146.216C145.34 19.8139 144.972 20.0819 144.972 20.6701C144.972 21.2107 145.35 21.4967 146.06 21.4967C146.816 21.4967 147.321 21.1295 147.321 20.5216L147.32 20.5239ZM148.105 21.6713C148.106 21.7043 148.099 21.737 148.086 21.7674C148.073 21.7978 148.054 21.8251 148.029 21.8476C148.005 21.8701 147.976 21.8872 147.945 21.898C147.914 21.9088 147.881 21.913 147.848 21.9103C147.797 21.9105 147.747 21.8958 147.704 21.8679C147.662 21.8401 147.628 21.8003 147.608 21.7536L147.395 21.4056H147.377C147.203 21.601 146.986 21.7534 146.743 21.8507C146.5 21.9479 146.238 21.9874 145.977 21.9659C145.791 21.9905 145.602 21.9754 145.423 21.9218C145.243 21.8683 145.077 21.7773 144.935 21.6551C144.793 21.5328 144.679 21.3819 144.6 21.2124C144.521 21.043 144.479 20.8587 144.477 20.6718C144.477 19.8064 145.083 19.3667 146.141 19.3667H147.268C147.304 19.3667 147.321 19.3481 147.321 19.3087V18.9972C147.321 18.2709 147.046 17.8666 146.18 17.8666C145.828 17.8721 145.483 17.9667 145.178 18.1416C145.126 18.1771 145.066 18.1972 145.003 18.1996C144.972 18.2018 144.942 18.1974 144.913 18.1868C144.884 18.1762 144.857 18.1596 144.835 18.1381C144.814 18.1166 144.796 18.0907 144.785 18.0621C144.774 18.0335 144.769 18.0029 144.771 17.9722C144.772 17.933 144.782 17.8946 144.799 17.8596C144.817 17.8246 144.842 17.7939 144.873 17.7698C145.268 17.5103 145.735 17.3815 146.207 17.4014C147.296 17.4014 147.802 17.8887 147.802 18.9624V20.7368C147.789 20.898 147.82 21.0598 147.893 21.2043L148.067 21.5355C148.089 21.5788 148.102 21.6259 148.105 21.6742" fill="white"/>
<path d="M150.123 21.9323C149.452 21.9323 149.212 21.6203 149.212 20.9039V15.8899C149.21 15.8558 149.215 15.8217 149.226 15.7895C149.237 15.7574 149.255 15.728 149.279 15.703C149.302 15.6781 149.33 15.6582 149.362 15.6446C149.393 15.631 149.427 15.624 149.461 15.624C149.495 15.624 149.529 15.631 149.561 15.6446C149.592 15.6582 149.62 15.6781 149.643 15.703C149.667 15.728 149.685 15.7574 149.696 15.7895C149.708 15.8217 149.712 15.8558 149.71 15.8899V20.8865C149.71 21.3163 149.829 21.4555 150.217 21.4555C150.249 21.4539 150.281 21.4589 150.312 21.4702C150.342 21.4815 150.37 21.4988 150.394 21.5211C150.417 21.5434 150.436 21.5703 150.449 21.6001C150.461 21.6298 150.468 21.6619 150.468 21.6942C150.468 21.7266 150.461 21.7587 150.449 21.7884C150.436 21.8182 150.417 21.845 150.394 21.8673C150.37 21.8896 150.342 21.907 150.312 21.9183C150.281 21.9295 150.249 21.9345 150.217 21.9329L150.123 21.9323Z" fill="white"/>
<path d="M153.357 21.9322C152.546 21.9322 152.232 21.6201 152.232 20.7553V17.9837C152.232 17.946 152.216 17.9257 152.178 17.9257H151.819C151.788 17.9285 151.757 17.9248 151.728 17.915C151.699 17.9051 151.672 17.8894 151.649 17.8687C151.627 17.848 151.609 17.8228 151.596 17.7947C151.584 17.7666 151.577 17.7363 151.577 17.7056C151.577 17.6749 151.584 17.6446 151.596 17.6165C151.609 17.5885 151.627 17.5633 151.649 17.5426C151.672 17.5218 151.699 17.5061 151.728 17.4963C151.757 17.4864 151.788 17.4828 151.819 17.4855H152.178C152.215 17.4855 152.232 17.4681 152.232 17.4275V15.8897C152.23 15.8559 152.235 15.8221 152.247 15.7904C152.259 15.7587 152.277 15.7297 152.3 15.7052C152.324 15.6807 152.352 15.6612 152.383 15.6479C152.414 15.6346 152.448 15.6277 152.482 15.6277C152.516 15.6277 152.549 15.6346 152.581 15.6479C152.612 15.6612 152.64 15.6807 152.663 15.7052C152.687 15.7297 152.705 15.7587 152.717 15.7904C152.729 15.8221 152.734 15.8559 152.732 15.8897V17.431C152.732 17.4687 152.749 17.4889 152.786 17.4889H153.484C153.514 17.4862 153.545 17.4899 153.574 17.4997C153.603 17.5096 153.63 17.5253 153.653 17.546C153.676 17.5667 153.694 17.5919 153.706 17.62C153.718 17.6481 153.725 17.6784 153.725 17.7091C153.725 17.7398 153.718 17.7701 153.706 17.7982C153.694 17.8262 153.676 17.8514 153.653 17.8721C153.63 17.8929 153.603 17.9086 153.574 17.9184C153.545 17.9283 153.514 17.9319 153.484 17.9292H152.786C152.75 17.9292 152.732 17.9484 152.732 17.9872V20.7414C152.732 21.3214 152.915 21.4583 153.477 21.4583C153.51 21.4555 153.543 21.4595 153.575 21.4703C153.606 21.481 153.635 21.4981 153.66 21.5205C153.684 21.543 153.704 21.5703 153.717 21.6006C153.73 21.631 153.737 21.6638 153.737 21.697C153.737 21.7302 153.73 21.763 153.717 21.7934C153.704 21.8238 153.684 21.851 153.66 21.8735C153.635 21.8959 153.606 21.913 153.575 21.9237C153.543 21.9344 153.51 21.9385 153.477 21.9357L153.357 21.9322Z" fill="white"/>
<path d="M157.687 21.6748V19.2212C157.687 18.3511 157.3 17.9079 156.535 17.9079C156.375 17.903 156.214 17.9315 156.065 17.9915C155.916 18.0515 155.781 18.1417 155.668 18.2565C155.556 18.3712 155.468 18.508 155.412 18.6582C155.355 18.8084 155.33 18.9687 155.338 19.129V21.6748C155.341 21.7089 155.336 21.743 155.325 21.7751C155.313 21.8073 155.295 21.8367 155.272 21.8617C155.249 21.8866 155.22 21.9065 155.189 21.9201C155.158 21.9336 155.124 21.9407 155.09 21.9407C155.055 21.9407 155.022 21.9336 154.99 21.9201C154.959 21.9065 154.931 21.8866 154.907 21.8617C154.884 21.8367 154.866 21.8073 154.854 21.7751C154.843 21.743 154.838 21.7089 154.841 21.6748V15.8881C154.838 15.8541 154.843 15.82 154.854 15.7878C154.866 15.7557 154.884 15.7262 154.907 15.7013C154.931 15.6764 154.959 15.6565 154.99 15.6429C155.022 15.6293 155.055 15.6223 155.09 15.6223C155.124 15.6223 155.158 15.6293 155.189 15.6429C155.22 15.6565 155.249 15.6764 155.272 15.7013C155.295 15.7262 155.313 15.7557 155.325 15.7878C155.336 15.82 155.341 15.8541 155.338 15.8881V18.0541H155.347C155.491 17.8465 155.686 17.6799 155.914 17.5707C156.142 17.4614 156.394 17.4133 156.646 17.4311C157.614 17.4311 158.185 18.0373 158.185 19.1034V21.6754C158.187 21.7094 158.182 21.7436 158.171 21.7757C158.159 21.8079 158.141 21.8373 158.118 21.8622C158.095 21.8872 158.067 21.907 158.035 21.9206C158.004 21.9342 157.97 21.9412 157.936 21.9412C157.902 21.9412 157.868 21.9342 157.836 21.9206C157.805 21.907 157.777 21.8872 157.753 21.8622C157.73 21.8373 157.712 21.8079 157.701 21.7757C157.689 21.7436 157.685 21.7094 157.687 21.6754" fill="white"/>
<path d="M159.431 18.5396C159.537 18.1939 159.756 17.8937 160.053 17.6872C160.35 17.4806 160.709 17.3798 161.07 17.4009C161.351 17.3857 161.631 17.4458 161.88 17.5751C162.129 17.7043 162.339 17.898 162.488 18.1359C162.515 18.1798 162.528 18.2311 162.525 18.2826C162.526 18.3117 162.52 18.3406 162.51 18.3676C162.499 18.3945 162.482 18.4191 162.462 18.4397C162.441 18.4604 162.417 18.4767 162.39 18.4878C162.363 18.4989 162.334 18.5044 162.305 18.5042C162.257 18.5036 162.211 18.4904 162.17 18.466C162.129 18.4415 162.095 18.4067 162.072 18.365C161.961 18.2043 161.81 18.0751 161.634 17.9899C161.458 17.9047 161.263 17.8665 161.068 17.8789C160.811 17.8615 160.556 17.9335 160.346 18.0825C160.136 18.2314 159.984 18.4483 159.916 18.6962C159.822 19.0186 159.782 19.3543 159.797 19.6899C159.781 20.022 159.822 20.3543 159.916 20.6731C159.984 20.9209 160.136 21.1376 160.346 21.2865C160.556 21.4355 160.811 21.5075 161.068 21.4904C161.263 21.5027 161.459 21.4641 161.635 21.3785C161.811 21.2929 161.962 21.1631 162.072 21.002C162.096 20.9609 162.13 20.9266 162.17 20.9026C162.211 20.8786 162.258 20.8657 162.305 20.8651C162.334 20.8647 162.363 20.8701 162.39 20.8812C162.417 20.8922 162.442 20.9085 162.462 20.9292C162.483 20.9499 162.499 20.9745 162.51 21.0015C162.521 21.0286 162.526 21.0575 162.525 21.0866C162.528 21.138 162.515 21.1891 162.488 21.2328C162.339 21.4707 162.129 21.6643 161.88 21.7936C161.631 21.9229 161.351 21.983 161.07 21.9678C160.709 21.9892 160.35 21.8885 160.053 21.6819C159.755 21.4754 159.537 21.1749 159.431 20.8291C159.328 20.4588 159.281 20.0752 159.292 19.691C159.281 19.3032 159.328 18.9159 159.431 18.5419" fill="white"/>
<path d="M166.477 20.524V19.872C166.477 19.8343 166.457 19.814 166.418 19.814H165.372C164.499 19.814 164.129 20.082 164.129 20.6702C164.129 21.2108 164.506 21.4967 165.214 21.4967C165.97 21.4967 166.477 21.1296 166.477 20.5217V20.524ZM167.26 21.6714C167.26 21.7044 167.254 21.7372 167.24 21.7675C167.227 21.7979 167.208 21.8252 167.184 21.8477C167.159 21.8702 167.131 21.8873 167.099 21.8981C167.068 21.9089 167.035 21.9131 167.002 21.9103C166.951 21.9103 166.901 21.8954 166.859 21.8676C166.817 21.8398 166.783 21.8002 166.763 21.7537L166.55 21.4057H166.531C166.357 21.6011 166.14 21.7535 165.897 21.8508C165.654 21.948 165.392 21.9875 165.131 21.966C164.284 21.966 163.63 21.5072 163.63 20.6719C163.63 19.8065 164.237 19.3668 165.297 19.3668H166.418C166.426 19.3682 166.435 19.3677 166.442 19.3653C166.45 19.3629 166.457 19.3587 166.463 19.353C166.468 19.3473 166.473 19.3403 166.475 19.3326C166.477 19.3249 166.478 19.3167 166.477 19.3088V18.9973C166.477 18.271 166.201 17.8667 165.334 17.8667C164.982 17.8727 164.637 17.9673 164.331 18.1417C164.28 18.178 164.219 18.1982 164.157 18.1997C164.126 18.2017 164.095 18.1972 164.067 18.1866C164.038 18.1759 164.012 18.1592 163.99 18.1377C163.969 18.1162 163.952 18.0903 163.941 18.0618C163.93 18.0333 163.925 18.0028 163.927 17.9723C163.928 17.9334 163.937 17.8952 163.954 17.8602C163.972 17.8253 163.996 17.7945 164.026 17.7699C164.422 17.51 164.89 17.3811 165.364 17.4015C166.45 17.4015 166.956 17.8888 166.956 18.9625V20.7369C166.943 20.8984 166.975 21.0603 167.049 21.2044L167.224 21.5356C167.246 21.5788 167.258 21.626 167.261 21.6742" fill="white"/>
<path d="M168.368 21.676V17.7519C168.366 17.7183 168.371 17.6846 168.383 17.653C168.395 17.6215 168.413 17.5926 168.436 17.5682C168.46 17.5438 168.488 17.5244 168.519 17.5112C168.55 17.4979 168.583 17.4911 168.617 17.4911C168.651 17.4911 168.684 17.4979 168.715 17.5112C168.746 17.5244 168.774 17.5438 168.797 17.5682C168.821 17.5926 168.839 17.6215 168.851 17.653C168.862 17.6846 168.868 17.7183 168.866 17.7519V18.1759H168.872C168.961 17.9468 169.121 17.7516 169.328 17.618C169.535 17.4843 169.779 17.4189 170.025 17.4311C170.29 17.4242 170.552 17.4907 170.781 17.6231C170.833 17.6462 170.875 17.6863 170.9 17.7366C170.926 17.787 170.933 17.8446 170.921 17.8998C170.909 17.9549 170.879 18.0043 170.835 18.0396C170.79 18.0749 170.735 18.0939 170.679 18.0936C170.635 18.0923 170.592 18.0824 170.551 18.0646C170.36 17.9672 170.149 17.9136 169.934 17.9079C169.16 17.9079 168.866 18.5704 168.866 19.3888V21.676C168.868 21.7097 168.862 21.7433 168.851 21.7749C168.839 21.8065 168.821 21.8353 168.797 21.8597C168.774 21.8841 168.746 21.9035 168.715 21.9168C168.684 21.93 168.651 21.9369 168.617 21.9369C168.583 21.9369 168.55 21.93 168.519 21.9168C168.488 21.9035 168.46 21.8841 168.436 21.8597C168.413 21.8353 168.395 21.8065 168.383 21.7749C168.371 21.7433 168.366 21.7097 168.368 21.676" fill="white"/>
<path d="M174.493 19.3673C174.501 19.3687 174.509 19.3682 174.517 19.3658C174.524 19.3634 174.532 19.3592 174.537 19.3535C174.543 19.3478 174.547 19.3408 174.55 19.3331C174.552 19.3254 174.553 19.3172 174.551 19.3093C174.556 19.0981 174.528 18.8874 174.466 18.6852C174.38 18.4434 174.221 18.2341 174.011 18.0862C173.8 17.9382 173.549 17.8588 173.292 17.8588C173.035 17.8588 172.784 17.9382 172.573 18.0862C172.363 18.2341 172.204 18.4434 172.118 18.6852C172.058 18.8877 172.03 19.0982 172.035 19.3093C172.033 19.3172 172.034 19.3253 172.036 19.3329C172.039 19.3406 172.043 19.3475 172.049 19.3532C172.054 19.3589 172.061 19.3631 172.069 19.3655C172.077 19.368 172.085 19.3686 172.093 19.3673H174.493ZM171.665 20.8175C171.555 20.4484 171.508 20.0634 171.526 19.6788C171.509 19.294 171.556 18.9091 171.665 18.5396C171.785 18.2059 172.006 17.9175 172.297 17.7136C172.588 17.5098 172.935 17.4004 173.291 17.4004C173.647 17.4004 173.994 17.5098 174.285 17.7136C174.576 17.9175 174.797 18.2059 174.917 18.5396C175.02 18.8789 175.066 19.2324 175.056 19.5866C175.058 19.6174 175.053 19.6483 175.042 19.6771C175.031 19.706 175.014 19.7322 174.992 19.7539C174.97 19.7756 174.943 19.7923 174.914 19.803C174.885 19.8136 174.854 19.818 174.823 19.8157H172.09C172.082 19.8144 172.074 19.8149 172.067 19.8171C172.059 19.8194 172.053 19.8233 172.047 19.8287C172.041 19.834 172.037 19.8406 172.034 19.8479C172.032 19.8553 172.031 19.8631 172.032 19.8708C172.017 20.1288 172.049 20.3873 172.126 20.6341C172.205 20.8964 172.371 21.1241 172.597 21.2796C172.823 21.435 173.095 21.509 173.369 21.4892C173.591 21.4971 173.813 21.4568 174.018 21.371C174.223 21.2853 174.407 21.1562 174.557 20.9926C174.604 20.9387 174.671 20.9052 174.742 20.8992C174.77 20.8981 174.799 20.9027 174.826 20.9129C174.853 20.9231 174.877 20.9386 174.898 20.9586C174.918 20.9785 174.934 21.0024 174.945 21.0288C174.957 21.0552 174.962 21.0835 174.962 21.1121C174.963 21.1715 174.944 21.2297 174.908 21.2769C174.718 21.5044 174.478 21.685 174.206 21.8046C173.934 21.9241 173.638 21.9793 173.341 21.966C172.972 21.9959 172.604 21.8981 172.298 21.689C171.993 21.48 171.769 21.1724 171.664 20.818" fill="white"/>
<path d="M180.401 21.3899C180.358 21.3647 180.322 21.3286 180.298 21.2852C180.273 21.2418 180.261 21.1926 180.262 21.1428C180.263 21.0732 180.293 21.0072 180.343 20.9588C180.393 20.9104 180.46 20.8836 180.53 20.8841C180.599 20.8879 180.665 20.9097 180.723 20.9473C181.212 21.2914 181.791 21.4839 182.388 21.5007C183.393 21.5007 184.01 20.985 184.01 20.2245C184.01 19.5981 183.661 19.1584 182.508 19.0116L182.217 18.9739C180.991 18.8173 180.421 18.228 180.421 17.3208C180.421 16.236 181.194 15.5666 182.383 15.5666C182.948 15.5545 183.505 15.6973 183.994 15.9796C184.043 16.0032 184.085 16.0393 184.116 16.0844C184.147 16.1294 184.165 16.1817 184.169 16.236C184.169 16.2687 184.162 16.301 184.15 16.3311C184.137 16.3613 184.119 16.3887 184.096 16.4117C184.073 16.4348 184.045 16.4531 184.015 16.4656C183.985 16.478 183.952 16.4844 183.92 16.4843C183.855 16.4801 183.792 16.4613 183.735 16.4292C183.317 16.1912 182.845 16.0645 182.363 16.0614C181.451 16.0614 180.944 16.5678 180.944 17.2732C180.944 17.9171 181.342 18.3301 182.417 18.4681L182.705 18.5052C183.947 18.6607 184.536 19.2483 184.536 20.1874C184.536 21.2437 183.78 21.9972 182.326 21.9972C181.638 21.9923 180.968 21.7813 180.402 21.3916" fill="white"/>
<path d="M188.586 20.6723C188.747 20.0234 188.747 19.3449 188.586 18.696C188.5 18.4571 188.342 18.2504 188.133 18.1044C187.925 17.9583 187.677 17.8799 187.422 17.8799C187.168 17.8799 186.919 17.9583 186.711 18.1044C186.503 18.2504 186.345 18.4571 186.259 18.696C186.163 19.0155 186.123 19.349 186.139 19.6821C186.123 20.0175 186.163 20.3533 186.259 20.6752C186.345 20.9139 186.503 21.1202 186.712 21.266C186.92 21.4119 187.168 21.4901 187.422 21.4901C187.677 21.4901 187.925 21.4119 188.133 21.266C188.341 21.1202 188.499 20.9139 188.586 20.6752V20.6723ZM185.781 20.83C185.583 20.0804 185.583 19.2925 185.781 18.5429C185.905 18.2084 186.129 17.9199 186.423 17.7162C186.716 17.5125 187.065 17.4033 187.423 17.4033C187.781 17.4033 188.13 17.5125 188.423 17.7162C188.717 17.9199 188.941 18.2084 189.065 18.5429C189.261 19.2927 189.261 20.0802 189.065 20.83C188.941 21.1645 188.717 21.453 188.423 21.6567C188.13 21.8604 187.781 21.9696 187.423 21.9696C187.065 21.9696 186.716 21.8604 186.423 21.6567C186.129 21.453 185.905 21.1645 185.781 20.83" fill="white"/>
<path d="M191.218 21.9322C190.547 21.9322 190.309 21.6202 190.309 20.9038V15.8897C190.307 15.8558 190.311 15.8217 190.323 15.7897C190.334 15.7576 190.352 15.7282 190.375 15.7033C190.399 15.6785 190.427 15.6586 190.458 15.6451C190.49 15.6315 190.523 15.6245 190.557 15.6245C190.592 15.6245 190.625 15.6315 190.657 15.6451C190.688 15.6586 190.716 15.6785 190.739 15.7033C190.763 15.7282 190.781 15.7576 190.792 15.7897C190.803 15.8217 190.808 15.8558 190.806 15.8897V20.8864C190.806 21.3162 190.922 21.4554 191.312 21.4554C191.345 21.4538 191.377 21.4588 191.408 21.4701C191.438 21.4814 191.466 21.4987 191.489 21.521C191.513 21.5433 191.531 21.5702 191.544 21.6C191.557 21.6297 191.564 21.6618 191.564 21.6941C191.564 21.7265 191.557 21.7585 191.544 21.7883C191.531 21.8181 191.513 21.8449 191.489 21.8672C191.466 21.8895 191.438 21.9069 191.408 21.9181C191.377 21.9294 191.345 21.9344 191.312 21.9328L191.218 21.9322Z" fill="white"/>
<path d="M195.473 21.6179V21.3152H195.466C195.328 21.524 195.137 21.6922 194.912 21.8021C194.686 21.912 194.436 21.9596 194.186 21.9399C193.218 21.9399 192.666 21.332 192.666 20.2676V17.6944C192.664 17.6605 192.668 17.6264 192.68 17.5943C192.691 17.5623 192.709 17.5329 192.732 17.508C192.756 17.4831 192.784 17.4633 192.815 17.4498C192.846 17.4362 192.88 17.4292 192.914 17.4292C192.948 17.4292 192.982 17.4362 193.013 17.4498C193.045 17.4633 193.073 17.4831 193.096 17.508C193.119 17.5329 193.137 17.5623 193.149 17.5943C193.16 17.6264 193.165 17.6605 193.163 17.6944V20.1487C193.163 21.0188 193.531 21.4613 194.297 21.4613C194.457 21.4658 194.616 21.4369 194.764 21.3765C194.912 21.316 195.046 21.2254 195.156 21.1104C195.267 20.9954 195.353 20.8585 195.408 20.7086C195.462 20.5586 195.485 20.3989 195.474 20.2397V17.6944C195.472 17.6605 195.477 17.6264 195.488 17.5943C195.5 17.5623 195.517 17.5329 195.541 17.508C195.564 17.4831 195.592 17.4633 195.623 17.4498C195.655 17.4362 195.689 17.4292 195.723 17.4292C195.757 17.4292 195.791 17.4362 195.822 17.4498C195.853 17.4633 195.881 17.4831 195.905 17.508C195.928 17.5329 195.946 17.5623 195.957 17.5943C195.969 17.6264 195.973 17.6605 195.971 17.6944V21.6179C195.973 21.6519 195.969 21.686 195.957 21.718C195.946 21.7501 195.928 21.7795 195.905 21.8044C195.881 21.8292 195.853 21.8491 195.822 21.8626C195.791 21.8762 195.757 21.8832 195.723 21.8832C195.689 21.8832 195.655 21.8762 195.623 21.8626C195.592 21.8491 195.564 21.8292 195.541 21.8044C195.517 21.7795 195.5 21.7501 195.488 21.718C195.477 21.686 195.472 21.6519 195.474 21.6179" fill="white"/>
<path d="M198.845 21.9322C198.034 21.9322 197.721 21.6201 197.721 20.7553V17.9837C197.721 17.946 197.705 17.9257 197.667 17.9257H197.306C197.275 17.9285 197.245 17.9248 197.215 17.915C197.186 17.9051 197.16 17.8894 197.137 17.8687C197.114 17.8479 197.096 17.8228 197.084 17.7947C197.071 17.7666 197.065 17.7363 197.065 17.7056C197.065 17.6749 197.071 17.6446 197.084 17.6165C197.096 17.5885 197.114 17.5633 197.137 17.5425C197.16 17.5218 197.186 17.5061 197.215 17.4963C197.245 17.4864 197.275 17.4828 197.306 17.4855H197.667C197.705 17.4855 197.721 17.4681 197.721 17.4275V15.8897C197.718 15.8556 197.723 15.8214 197.735 15.7892C197.746 15.757 197.764 15.7275 197.787 15.7025C197.811 15.6775 197.839 15.6576 197.871 15.6439C197.902 15.6303 197.936 15.6233 197.97 15.6233C198.005 15.6233 198.038 15.6303 198.07 15.6439C198.101 15.6576 198.13 15.6775 198.153 15.7025C198.176 15.7275 198.194 15.757 198.206 15.7892C198.217 15.8214 198.222 15.8556 198.22 15.8897V17.431C198.22 17.4687 198.236 17.4889 198.275 17.4889H198.976C199.006 17.4862 199.037 17.4899 199.066 17.4997C199.096 17.5096 199.122 17.5253 199.145 17.546C199.168 17.5667 199.186 17.5919 199.198 17.62C199.211 17.6481 199.217 17.6784 199.217 17.7091C199.217 17.7398 199.211 17.7701 199.198 17.7982C199.186 17.8262 199.168 17.8514 199.145 17.8721C199.122 17.8928 199.096 17.9086 199.066 17.9184C199.037 17.9283 199.006 17.9319 198.976 17.9292H198.275C198.237 17.9292 198.22 17.9484 198.22 17.9872V20.7414C198.22 21.3214 198.401 21.4583 198.964 21.4583C198.997 21.4555 199.031 21.4595 199.062 21.4703C199.094 21.481 199.123 21.4981 199.147 21.5205C199.172 21.543 199.191 21.5703 199.204 21.6006C199.218 21.631 199.225 21.6638 199.225 21.697C199.225 21.7302 199.218 21.763 199.204 21.7934C199.191 21.8238 199.172 21.851 199.147 21.8735C199.123 21.8959 199.094 21.913 199.062 21.9237C199.031 21.9344 198.997 21.9385 198.964 21.9357L198.845 21.9322Z" fill="white"/>
<path d="M200.454 21.6457V17.7228C200.451 17.6886 200.456 17.6543 200.468 17.622C200.479 17.5897 200.497 17.5602 200.521 17.5351C200.544 17.5101 200.572 17.4901 200.604 17.4765C200.635 17.4628 200.669 17.4558 200.704 17.4558C200.738 17.4558 200.772 17.4628 200.804 17.4765C200.835 17.4901 200.864 17.5101 200.887 17.5351C200.91 17.5602 200.928 17.5897 200.94 17.622C200.951 17.6543 200.956 17.6886 200.954 17.7228V21.6457C200.956 21.6799 200.951 21.7142 200.94 21.7465C200.928 21.7788 200.91 21.8084 200.887 21.8334C200.864 21.8585 200.835 21.8784 200.804 21.8921C200.772 21.9057 200.738 21.9128 200.704 21.9128C200.669 21.9128 200.635 21.9057 200.604 21.8921C200.572 21.8784 200.544 21.8585 200.521 21.8334C200.497 21.8084 200.479 21.7788 200.468 21.7465C200.456 21.7142 200.451 21.6799 200.454 21.6457V21.6457ZM200.318 15.17C200.317 15.0935 200.34 15.0187 200.382 14.9551C200.425 14.8914 200.485 14.8417 200.556 14.8123C200.627 14.7828 200.704 14.775 200.78 14.7897C200.855 14.8044 200.924 14.8411 200.978 14.895C201.033 14.9489 201.07 15.0177 201.085 15.0926C201.1 15.1676 201.092 15.2453 201.063 15.316C201.034 15.3866 200.984 15.4471 200.921 15.4896C200.857 15.5322 200.782 15.555 200.706 15.5551C200.603 15.555 200.505 15.5144 200.432 15.4422C200.359 15.3701 200.318 15.2722 200.318 15.17" fill="white"/>
<path d="M205.146 20.6723C205.242 20.3504 205.282 20.0146 205.266 19.6792C205.282 19.3461 205.241 19.0127 205.146 18.6931C205.06 18.4542 204.902 18.2475 204.694 18.1015C204.486 17.9554 204.237 17.877 203.983 17.877C203.728 17.877 203.48 17.9554 203.272 18.1015C203.063 18.2475 202.906 18.4542 202.82 18.6931C202.723 19.0125 202.682 19.346 202.699 19.6792C202.682 20.0147 202.723 20.3506 202.82 20.6723C202.906 20.911 203.064 21.1173 203.272 21.2632C203.48 21.409 203.728 21.4873 203.983 21.4873C204.237 21.4873 204.485 21.409 204.693 21.2632C204.902 21.1173 205.06 20.911 205.146 20.6723ZM202.338 20.8272C202.14 20.0776 202.14 19.2896 202.338 18.54C202.463 18.2056 202.687 17.9172 202.981 17.7136C203.275 17.51 203.624 17.4009 203.982 17.4009C204.34 17.4009 204.689 17.51 204.983 17.7136C205.276 17.9172 205.501 18.2056 205.626 18.54C205.822 19.2899 205.822 20.0773 205.626 20.8272C205.501 21.1616 205.276 21.4499 204.983 21.6536C204.689 21.8572 204.34 21.9663 203.982 21.9663C203.624 21.9663 203.275 21.8572 202.981 21.6536C202.687 21.4499 202.463 21.1616 202.338 20.8272Z" fill="white"/>
<path d="M209.713 21.676V19.2229C209.713 18.3529 209.328 17.9085 208.562 17.9085C208.401 17.9034 208.241 17.9317 208.091 17.9917C207.942 18.0516 207.806 18.1419 207.694 18.2568C207.581 18.3717 207.493 18.5088 207.437 18.6592C207.38 18.8096 207.355 18.9702 207.364 19.1307V21.676C207.366 21.7099 207.361 21.7439 207.35 21.7759C207.338 21.8079 207.321 21.8372 207.297 21.862C207.274 21.8868 207.246 21.9066 207.215 21.9202C207.184 21.9337 207.15 21.9407 207.116 21.9407C207.082 21.9407 207.048 21.9337 207.017 21.9202C206.986 21.9066 206.958 21.8868 206.934 21.862C206.911 21.8372 206.893 21.8079 206.882 21.7759C206.87 21.7439 206.866 21.7099 206.868 21.676V17.7519C206.866 17.718 206.87 17.6841 206.882 17.6521C206.893 17.6201 206.911 17.5907 206.934 17.5659C206.958 17.5411 206.986 17.5213 207.017 17.5078C207.048 17.4943 207.082 17.4873 207.116 17.4873C207.15 17.4873 207.184 17.4943 207.215 17.5078C207.246 17.5213 207.274 17.5411 207.297 17.5659C207.321 17.5907 207.338 17.6201 207.35 17.6521C207.361 17.6841 207.366 17.718 207.364 17.7519V18.0553H207.375C207.516 17.846 207.711 17.678 207.939 17.5685C208.168 17.4589 208.421 17.4117 208.673 17.4317C209.641 17.4317 210.213 18.0385 210.213 19.1029V21.676C210.214 21.7098 210.209 21.7435 210.197 21.7751C210.185 21.8067 210.167 21.8357 210.144 21.8601C210.121 21.8846 210.093 21.904 210.061 21.9173C210.03 21.9306 209.997 21.9375 209.963 21.9375C209.929 21.9375 209.896 21.9306 209.864 21.9173C209.833 21.904 209.805 21.8846 209.782 21.8601C209.759 21.8357 209.74 21.8067 209.729 21.7751C209.717 21.7435 209.712 21.7098 209.713 21.676" fill="white"/>
<path d="M211.418 21.452C211.384 21.4277 211.357 21.3959 211.338 21.359C211.318 21.3221 211.308 21.2812 211.308 21.2397C211.308 21.2086 211.314 21.1779 211.327 21.1493C211.339 21.1206 211.356 21.0947 211.379 21.0731C211.401 21.0515 211.428 21.0345 211.457 21.0233C211.486 21.012 211.517 21.0067 211.548 21.0077C211.607 21.0092 211.665 21.0284 211.713 21.0628C212.101 21.348 212.569 21.5031 213.051 21.5059C213.815 21.5059 214.193 21.1579 214.193 20.6608C214.193 20.2089 214 19.9815 213.19 19.8876L212.738 19.8429C211.926 19.7588 211.467 19.3644 211.467 18.6828C211.467 17.8748 212.055 17.3968 213.013 17.3968C213.47 17.394 213.921 17.5079 214.321 17.7274C214.368 17.7462 214.407 17.7782 214.435 17.8195C214.464 17.8608 214.479 17.9095 214.479 17.9594C214.48 17.9879 214.475 18.0161 214.464 18.0426C214.454 18.0691 214.438 18.0933 214.419 18.1138C214.399 18.1343 214.375 18.1508 214.349 18.1622C214.323 18.1736 214.295 18.1798 214.267 18.1804C214.202 18.1808 214.139 18.1648 214.082 18.134C213.743 17.9619 213.369 17.868 212.988 17.8591C212.314 17.8591 211.964 18.1526 211.964 18.6393C211.964 19.0627 212.224 19.3017 212.969 19.3754L213.42 19.4218C214.267 19.5123 214.69 19.8997 214.69 20.6062C214.69 21.4334 214.091 21.9653 213.003 21.9653C212.434 21.9657 211.879 21.7855 211.419 21.4508" fill="white"/>
<path fillRule="evenodd" clipRule="evenodd" d="M163.538 8.39203C163.28 7.68481 163.153 6.93638 163.165 6.18373V6.17909C163.153 5.42018 163.281 4.66557 163.543 3.95281C163.771 3.32982 164.124 2.75955 164.58 2.27645C165.017 1.81791 165.545 1.4557 166.13 1.21319C166.734 0.962531 167.383 0.836072 168.037 0.841375C168.791 0.829082 169.529 1.06068 170.14 1.50148C170.845 2.05869 171.411 2.77254 171.792 3.58622L172.653 3.02066C172.401 2.61284 172.109 2.2317 171.78 1.88316C171.066 1.12335 170.167 0.561485 169.17 0.252605C168.608 0.0795759 168.023 -0.0055425 167.435 0.000279657C166.81 -0.00345926 166.187 0.0725736 165.581 0.226512C165.021 0.368478 164.483 0.58298 163.979 0.864565C163.499 1.13356 163.057 1.46519 162.665 1.85068C162.086 2.41437 161.627 3.08839 161.316 3.83262C161.004 4.57684 160.846 5.37602 160.85 6.18256C160.845 6.98907 161.003 7.78827 161.315 8.5324C161.617 9.26283 162.065 9.9242 162.632 10.4762C163.221 11.0449 163.916 11.4934 164.677 11.7964C165.523 12.1292 166.427 12.2936 167.336 12.2802C167.956 12.2886 168.573 12.2055 169.168 12.0336C170.176 11.7393 171.084 11.1744 171.792 10.4008C172.115 10.0495 172.403 9.66865 172.653 9.26327L171.819 8.73253C171.451 9.45071 170.932 10.0807 170.297 10.5789C169.97 10.8337 169.61 11.0438 169.228 11.2036C168.848 11.3621 168.441 11.4433 168.029 11.4426C167.37 11.4484 166.715 11.3262 166.103 11.0829C165.522 10.8513 164.997 10.4982 164.563 10.0475C164.112 9.57096 163.763 9.00765 163.538 8.39203ZM155.579 11.4234C155.299 11.5008 155.009 11.5398 154.718 11.5395L154.723 11.536C154.354 11.5387 153.986 11.4818 153.635 11.3672C153.302 11.259 152.988 11.0961 152.709 10.8852C152.425 10.6709 152.178 10.4123 151.976 10.1195C151.759 9.80413 151.59 9.45781 151.475 9.09219L150.418 9.52665C150.561 9.94096 150.761 10.3331 151.013 10.6914C151.252 11.0269 151.547 11.3185 151.886 11.5534C152.244 11.7982 152.641 11.9808 153.061 12.0934C153.556 12.223 154.066 12.2853 154.578 12.2785C155.201 12.2896 155.821 12.2002 156.414 12.0139C156.898 11.861 157.348 11.6159 157.739 11.2924C158.084 11.0014 158.357 10.6347 158.537 10.221C158.715 9.8055 158.806 9.35784 158.802 8.90598C158.808 8.51524 158.71 8.12994 158.519 7.78879C158.32 7.44211 158.064 7.13068 157.763 6.86708C157.433 6.5744 157.075 6.31447 156.694 6.09095C156.293 5.8566 155.888 5.62633 155.473 5.40938C155.14 5.23521 154.811 5.06141 154.489 4.89038L154.252 4.76492C153.881 4.56872 153.524 4.34801 153.183 4.10425C152.895 3.90243 152.64 3.65791 152.427 3.37917C152.242 3.1355 152.143 2.83824 152.143 2.53285C152.144 2.3116 152.19 2.09287 152.281 1.89073C152.377 1.67388 152.519 1.48064 152.698 1.32458C152.903 1.14692 153.14 1.0092 153.396 0.91855C153.71 0.810042 154.04 0.757985 154.372 0.764826C154.756 0.759061 155.139 0.817901 155.503 0.938855C155.825 1.04693 156.124 1.21328 156.385 1.42957C156.645 1.6477 156.867 1.90628 157.043 2.19526C157.232 2.50505 157.384 2.83605 157.496 3.18137L158.506 2.72196C158.379 2.30668 158.19 1.91246 157.947 1.55198C157.72 1.22007 157.435 0.932261 157.104 0.702763C156.753 0.463642 156.364 0.287012 155.952 0.180711C155.464 0.0579401 154.963 -0.000556851 154.46 0.00670035C153.905 -0.00214924 153.352 0.0783423 152.823 0.245094C152.383 0.384781 151.974 0.609471 151.621 0.906371C151.301 1.17788 151.048 1.51799 150.88 1.90117C150.708 2.29496 150.622 2.72025 150.626 3.14947C150.618 3.56344 150.714 3.97281 150.905 4.34032C151.096 4.69123 151.344 5.00849 151.638 5.27945C151.954 5.56965 152.301 5.82446 152.673 6.03933C153.059 6.26729 153.455 6.48597 153.857 6.69131C154.259 6.89665 154.654 7.10431 155.041 7.31081C155.404 7.50083 155.75 7.72147 156.075 7.97034C156.36 8.1849 156.608 8.445 156.808 8.74009C156.995 9.02487 157.092 9.3594 157.087 9.70009C157.093 9.97798 157.023 10.2523 156.884 10.493C156.747 10.7214 156.562 10.9175 156.342 11.0679C156.11 11.2282 155.852 11.3483 155.579 11.4234ZM182.873 0.270571V1.03277H176.668V5.22776H180.82V5.98823H176.668V11.2453H182.87V12.0075H174.69V0.270571H182.873ZM200.832 11.1496H198.729L198.729 1.13721H200.84C201.502 1.13032 202.158 1.25372 202.771 1.50033C203.344 1.73116 203.863 2.07823 204.294 2.51951C204.727 2.9678 205.065 3.4987 205.288 4.08044C205.531 4.7175 205.652 5.39438 205.644 6.07585C205.659 6.82116 205.53 7.56244 205.266 8.25979C205.037 8.8546 204.687 9.39543 204.237 9.84798C203.803 10.2785 203.28 10.6108 202.706 10.8225C202.106 11.0431 201.471 11.1539 200.832 11.1496ZM200.675 0.270019H196.752L196.751 12.0058H201.145C202.137 12.0227 203.125 11.8636 204.061 11.536C204.853 11.2589 205.58 10.8248 206.2 10.2598C206.771 9.72896 207.22 9.08055 207.515 8.35955C207.815 7.62064 207.968 6.82988 207.962 6.03235C207.971 5.20606 207.8 4.38765 207.461 3.6338C207.112 2.88278 206.602 2.21786 205.965 1.68654C205.334 1.16376 204.59 0.793516 203.791 0.604712C202.771 0.364215 201.724 0.251783 200.675 0.270019ZM139.361 7.4378H144.553L141.994 2.89302L139.361 7.4378ZM142.918 0.270571L149.542 12.0093H147.132L144.988 8.18086H138.948L136.729 12.0093H135.54L142.324 0.270571H142.918ZM193.831 8.85728H193.741L186.035 0.272362H184.925V12.0087H185.82V2.73937H185.891L194.005 12.0099H194.703V0.272362H193.831V8.85728Z" fill="url(#paint3_linear_2142_31751)"/>
<defs>
<linearGradient id="paint0_linear_2142_31751" x1="120.8" y1="16.8141" x2="115.262" y2="12.1739" gradientUnits="userSpaceOnUse">
<stop stop-color="white"/>
<stop offset="0.2621" stop-color="#FCFCFC"/>
<stop offset="0.4388" stop-color="#F3F4F4"/>
<stop offset="0.5903" stop-color="#E4E5E5"/>
<stop offset="0.7276" stop-color="#CFCFD0"/>
<stop offset="0.8553" stop-color="#B3B4B5"/>
<stop offset="0.9743" stop-color="#919395"/>
<stop offset="1" stop-color="#898B8D"/>
</linearGradient>
<linearGradient id="paint1_linear_2142_31751" x1="116.394" y1="7.35669" x2="120.928" y2="4.68679" gradientUnits="userSpaceOnUse">
<stop stop-color="white"/>
<stop offset="0.2621" stop-color="#FCFCFC"/>
<stop offset="0.4388" stop-color="#F3F4F4"/>
<stop offset="0.5903" stop-color="#E4E5E5"/>
<stop offset="0.7276" stop-color="#CFCFD0"/>
<stop offset="0.8553" stop-color="#B3B4B5"/>
<stop offset="0.9743" stop-color="#919395"/>
<stop offset="1" stop-color="#898B8D"/>
</linearGradient>
<linearGradient id="paint2_linear_2142_31751" x1="129.387" y1="19.5578" x2="124.427" y2="12.8284" gradientUnits="userSpaceOnUse">
<stop stop-color="white"/>
<stop offset="0.2621" stop-color="#FCFCFC"/>
<stop offset="0.4388" stop-color="#F3F4F4"/>
<stop offset="0.5903" stop-color="#E4E5E5"/>
<stop offset="0.7276" stop-color="#CFCFD0"/>
<stop offset="0.8553" stop-color="#B3B4B5"/>
<stop offset="0.9743" stop-color="#919395"/>
<stop offset="1" stop-color="#898B8D"/>
</linearGradient>
<linearGradient id="paint3_linear_2142_31751" x1="199.836" y1="8.98317" x2="192.529" y2="-16.4648" gradientUnits="userSpaceOnUse">
<stop stop-color="white"/>
<stop offset="0.2621" stop-color="#FCFCFC"/>
<stop offset="0.4388" stop-color="#F3F4F4"/>
<stop offset="0.5903" stop-color="#E4E5E5"/>
<stop offset="0.7276" stop-color="#CFCFD0"/>
<stop offset="0.8553" stop-color="#B3B4B5"/>
<stop offset="0.9743" stop-color="#919395"/>
<stop offset="1" stop-color="#898B8D"/>
</linearGradient>
</defs>
</svg>
