<svg width="512" height="345" viewBox="0 0 512 345" fill="none" xmlns="http://www.w3.org/2000/svg">
<g opacity="0.5">
<path d="M249.527 13.8024H234.99V43.6676H249.527V13.8024Z" fill="#10A945"/>
<path d="M249.527 9.59186H234.99V13.8024H249.527V9.59186Z" fill="#10A945"/>
<path d="M228.524 24.7091H213.988V43.6721H228.524V24.7091Z" fill="#10A945"/>
<path d="M228.524 20.494H213.988V24.7045H228.524V20.494Z" fill="#10A945"/>
<path d="M207.525 4.21051H192.989V43.672H207.525V4.21051Z" fill="#10A945"/>
<path d="M207.525 0H192.989V15.0317H207.525V0Z" fill="#10A945"/>
<path d="M186.527 19.616H171.991V43.6675H186.527V19.616Z" fill="#10A945"/>
<path d="M186.527 15.4055H171.991V19.616H186.527V15.4055Z" fill="#10A945"/>
<path d="M90.1631 43.672H329.179C330.79 43.672 332.336 44.312 333.475 45.4513C334.614 46.5905 335.254 48.1357 335.254 49.7468V223.287C335.254 224.898 334.614 226.443 333.475 227.582C332.336 228.721 330.79 229.361 329.179 229.361H90.1676C88.5552 229.361 87.009 228.721 85.8689 227.581C84.7288 226.441 84.0883 224.894 84.0883 223.282V49.7468C84.0883 48.1357 84.7283 46.5905 85.8675 45.4513C87.0068 44.312 88.5519 43.672 90.1631 43.672Z" fill="white"/>
<path d="M260.433 103.803C253.963 93.7627 244.661 85.8662 233.703 81.1125C222.745 76.3587 210.624 74.9612 198.871 77.0966C187.119 79.2321 176.264 84.8045 167.679 93.1093C159.094 101.414 153.164 112.078 150.64 123.753C148.115 135.428 149.11 147.589 153.497 158.699C157.885 169.809 165.468 179.368 175.288 186.168C185.109 192.967 196.725 196.702 208.668 196.9C220.611 197.098 232.344 193.75 242.385 187.279C255.847 178.602 265.312 164.934 268.697 149.279C272.081 133.624 269.109 117.266 260.433 103.803ZM172.806 160.273C168.107 152.982 165.676 144.461 165.82 135.789C165.965 127.116 168.677 118.68 173.615 111.549C178.554 104.418 185.495 98.9116 193.563 95.7258C201.631 92.5399 210.462 91.818 218.94 93.6513C227.418 95.4846 235.162 99.7907 241.193 106.025C247.224 112.26 251.27 120.142 252.821 128.677C254.372 137.211 253.357 146.013 249.905 153.971C246.453 161.928 240.719 168.684 233.428 173.382C228.587 176.503 223.178 178.639 217.512 179.669C211.845 180.699 206.031 180.602 200.401 179.385C194.772 178.168 189.437 175.853 184.702 172.574C179.968 169.295 175.925 165.115 172.806 160.273Z" fill="#10A945"/>
<path d="M209.678 100.579V113.346C213.489 113.344 217.242 114.283 220.604 116.079C223.966 117.875 226.833 120.472 228.951 123.641C231.069 126.81 232.372 130.452 232.746 134.245C233.12 138.038 232.553 141.865 231.095 145.386C229.636 148.907 227.332 152.015 224.386 154.433C221.439 156.85 217.942 158.504 214.204 159.248C210.466 159.991 206.602 159.801 202.955 158.694C199.307 157.587 195.99 155.597 193.295 152.902L184.289 161.908C188.467 166.091 193.612 169.179 199.269 170.898C204.926 172.617 210.919 172.913 216.718 171.761C222.517 170.609 227.942 168.044 232.513 164.293C237.083 160.543 240.657 155.722 242.919 150.26C245.18 144.797 246.059 138.861 245.477 132.977C244.895 127.094 242.87 121.445 239.583 116.531C236.295 111.617 231.845 107.591 226.629 104.808C221.413 102.025 215.59 100.573 209.678 100.579Z" fill="#5BB647"/>
<path d="M209.678 113.345V100.579C204.561 100.57 199.501 101.656 194.838 103.763C190.176 105.871 186.018 108.952 182.644 112.799C179.27 116.647 176.758 121.171 175.277 126.069C173.797 130.967 173.381 136.126 174.058 141.198L186.712 139.532C186.578 138.531 186.51 137.523 186.509 136.514C186.51 130.37 188.952 124.478 193.296 120.133C197.641 115.788 203.534 113.347 209.678 113.345Z" fill="#5BB647"/>
<path d="M184.262 161.926L193.268 152.92C189.664 149.304 187.358 144.596 186.712 139.532L174.058 141.198C175.074 149.045 178.663 156.335 184.262 161.926Z" fill="#5BB647"/>
<path d="M244.803 113.877C249.119 120.556 251.429 128.333 251.459 136.285L283.787 136.105C283.674 116.521 275.817 97.7785 261.932 83.9684C248.047 70.1583 229.262 62.4032 209.678 62.3964V94.7293C216.668 94.7255 223.546 96.4766 229.683 99.8221C235.82 103.167 241.019 108 244.803 113.877Z" fill="#10A945"/>
<path d="M305.938 67.5705H288.826C288.623 67.5705 288.428 67.4898 288.285 67.3462C288.141 67.2027 288.061 67.008 288.061 66.8049C288.061 66.6019 288.141 66.4072 288.285 66.2636C288.428 66.12 288.623 66.0394 288.826 66.0394H305.938C306.141 66.0394 306.336 66.12 306.48 66.2636C306.623 66.4072 306.704 66.6019 306.704 66.8049C306.704 67.008 306.623 67.2027 306.48 67.3462C306.336 67.4898 306.141 67.5705 305.938 67.5705ZM321.452 72.2628H293.919C293.716 72.2628 293.521 72.1821 293.378 72.0386C293.234 71.895 293.154 71.7003 293.154 71.4972C293.154 71.2942 293.234 71.0995 293.378 70.9559C293.521 70.8124 293.716 70.7317 293.919 70.7317H321.452C321.655 70.7317 321.85 70.8124 321.993 70.9559C322.137 71.0995 322.217 71.2942 322.217 71.4972C322.217 71.7003 322.137 71.895 321.993 72.0386C321.85 72.1821 321.655 72.2628 321.452 72.2628ZM321.452 76.9596H297.373C297.17 76.9596 296.975 76.879 296.832 76.7354C296.688 76.5918 296.608 76.3971 296.608 76.1941C296.608 75.991 296.688 75.7963 296.832 75.6528C296.975 75.5092 297.17 75.4285 297.373 75.4285H321.452C321.655 75.4285 321.85 75.5092 321.993 75.6528C322.137 75.7963 322.217 75.991 322.217 76.1941C322.217 76.3971 322.137 76.5918 321.993 76.7354C321.85 76.879 321.655 76.9596 321.452 76.9596ZM321.452 81.652H293.775C293.572 81.652 293.377 81.5713 293.234 81.4277C293.09 81.2842 293.01 81.0895 293.01 80.8864C293.01 80.6834 293.09 80.4887 293.234 80.3451C293.377 80.2015 293.572 80.1209 293.775 80.1209H321.452C321.655 80.1209 321.85 80.2015 321.993 80.3451C322.137 80.4887 322.217 80.6834 322.217 80.8864C322.217 81.0895 322.137 81.2842 321.993 81.4277C321.85 81.5713 321.655 81.652 321.452 81.652ZM321.452 67.5705H313.211C313.008 67.5705 312.813 67.4898 312.67 67.3462C312.526 67.2027 312.445 67.008 312.445 66.8049C312.445 66.6019 312.526 66.4072 312.67 66.2636C312.813 66.12 313.008 66.0394 313.211 66.0394H321.452C321.655 66.0394 321.85 66.12 321.993 66.2636C322.137 66.4072 322.217 66.6019 322.217 66.8049C322.217 67.008 322.137 67.2027 321.993 67.3462C321.85 67.4898 321.655 67.5705 321.452 67.5705ZM153.001 205.697H99.0928C98.8898 205.697 98.6951 205.616 98.5515 205.473C98.4079 205.329 98.3273 205.135 98.3273 204.932C98.3273 204.729 98.4079 204.534 98.5515 204.39C98.6951 204.247 98.8898 204.166 99.0928 204.166H153.001C153.204 204.166 153.398 204.247 153.542 204.39C153.686 204.534 153.766 204.729 153.766 204.932C153.766 205.135 153.686 205.329 153.542 205.473C153.398 205.616 153.204 205.697 153.001 205.697ZM153.001 196.218H99.0928C98.8898 196.218 98.6951 196.137 98.5515 195.994C98.4079 195.85 98.3273 195.655 98.3273 195.452C98.3273 195.249 98.4079 195.055 98.5515 194.911C98.6951 194.767 98.8898 194.687 99.0928 194.687H153.001C153.204 194.687 153.398 194.767 153.542 194.911C153.686 195.055 153.766 195.249 153.766 195.452C153.766 195.655 153.686 195.85 153.542 195.994C153.398 196.137 153.204 196.218 153.001 196.218ZM153.001 186.739H99.0928C98.8898 186.739 98.6951 186.658 98.5515 186.514C98.4079 186.371 98.3273 186.176 98.3273 185.973C98.3273 185.77 98.4079 185.575 98.5515 185.432C98.6951 185.288 98.8898 185.208 99.0928 185.208H153.001C153.204 185.208 153.398 185.288 153.542 185.432C153.686 185.575 153.766 185.77 153.766 185.973C153.766 186.176 153.686 186.371 153.542 186.514C153.398 186.658 153.204 186.739 153.001 186.739Z" fill="#CED3F8"/>
<path d="M114.003 185.973C114.003 185.55 114.129 185.136 114.364 184.784C114.599 184.432 114.933 184.158 115.324 183.997C115.716 183.835 116.146 183.793 116.561 183.876C116.976 183.958 117.357 184.163 117.656 184.462C117.955 184.762 118.158 185.143 118.24 185.559C118.322 185.974 118.279 186.404 118.117 186.795C117.954 187.186 117.679 187.519 117.327 187.754C116.975 187.988 116.561 188.113 116.137 188.112C115.857 188.112 115.579 188.057 115.32 187.949C115.06 187.842 114.825 187.684 114.627 187.485C114.428 187.287 114.271 187.051 114.164 186.791C114.057 186.532 114.002 186.254 114.003 185.973Z" fill="#6B67E9"/>
</g>
<path d="M106.685 195.671C106.791 194.495 105.924 193.454 104.748 193.348C103.571 193.241 102.531 194.108 102.424 195.284C102.317 196.461 103.184 197.501 104.361 197.608C105.537 197.715 106.578 196.848 106.685 195.671Z" fill="#6B67E9"/>
<path d="M143.481 204.932C143.481 204.509 143.606 204.095 143.841 203.743C144.076 203.391 144.411 203.117 144.801 202.955C145.192 202.794 145.622 202.751 146.037 202.834C146.452 202.916 146.833 203.12 147.132 203.419C147.432 203.718 147.635 204.099 147.718 204.514C147.8 204.929 147.758 205.359 147.596 205.75C147.434 206.141 147.16 206.475 146.808 206.71C146.457 206.945 146.043 207.071 145.62 207.071C145.053 207.071 144.509 206.845 144.107 206.444C143.706 206.043 143.481 205.499 143.481 204.932Z" fill="#6B67E9"/>
<path d="M220.067 126.526H469.472C471.083 126.526 472.628 127.166 473.768 128.306C474.907 129.445 475.547 130.99 475.547 132.601V301.111C475.55 301.911 475.396 302.704 475.092 303.444C474.789 304.184 474.342 304.857 473.777 305.424C473.213 305.991 472.542 306.441 471.803 306.748C471.064 307.055 470.272 307.213 469.472 307.213H220.067C218.455 307.213 216.908 306.572 215.768 305.432C214.628 304.292 213.988 302.746 213.988 301.133V132.606C213.987 131.807 214.144 131.016 214.449 130.278C214.754 129.541 215.202 128.87 215.767 128.306C216.331 127.741 217.002 127.293 217.74 126.988C218.478 126.683 219.268 126.526 220.067 126.526Z" fill="white"/>
<path d="M234.153 171.639H227.929V213.186H234.153V171.639Z" fill="#BBC0E6"/>
<path d="M234.153 151.258H227.929V171.635H234.153V151.258Z" fill="white"/>
<path d="M253.364 174.913H247.14V213.186H253.364V174.913Z" fill="#BBC0E6"/>
<path d="M253.364 164.439H247.14V174.909H253.364V164.439Z" fill="white"/>
<path d="M272.574 179.259H266.351V213.181H272.574V179.259Z" fill="#BBC0E6"/>
<path d="M272.574 169.374H266.351V179.259H272.574V169.374Z" fill="white"/>
<path d="M291.785 185.108H285.561V213.181H291.785V185.108Z" fill="#BBC0E6"/>
<path d="M291.785 175.49H285.561V185.113H291.785V175.49Z" fill="white"/>
<path d="M310.995 189.738H304.772V213.186H310.995V189.738Z" fill="#BBC0E6"/>
<path d="M310.995 181.88H304.772V189.738H310.995V181.88Z" fill="white"/>
<path d="M330.206 191.634H323.983V213.186H330.206V191.634Z" fill="#BBC0E6"/>
<path d="M330.206 186.351H323.983V191.634H330.206V186.351Z" fill="white"/>
<path d="M349.417 191.057H343.193V213.181H349.417V191.057Z" fill="#BBC0E6"/>
<path d="M349.417 181.646H343.193V191.057H349.417V181.646Z" fill="white"/>
<path d="M368.627 188.342H362.404V213.186H368.627V188.342Z" fill="#BBC0E6"/>
<path d="M368.627 177.957H362.404V188.342H368.627V177.957Z" fill="white"/>
<path d="M387.838 186.378H381.615V213.186H387.838V186.378Z" fill="#BBC0E6"/>
<path d="M387.838 172.95H381.615V186.378H387.838V172.95Z" fill="white"/>
<path d="M407.049 177.957H400.825V213.186H407.049V177.957Z" fill="#BBC0E6"/>
<path d="M407.049 149.727H400.825V177.953H407.049V149.727Z" fill="white"/>
<path d="M426.259 174.31H420.036V213.186H426.259V174.31Z" fill="#BBC0E6"/>
<path d="M426.259 164.439H420.036V174.31H426.259V164.439Z" fill="white"/>
<path d="M445.47 171.338H439.247V213.186H445.47V171.338Z" fill="#BBC0E6"/>
<path d="M445.47 160.823H439.247V171.338H445.47V160.823Z" fill="white"/>
<path d="M464.681 177.3H458.457V213.186H464.681V177.3Z" fill="#BBC0E6"/>
<path d="M464.681 168.604H458.457V177.3H464.681V168.604Z" fill="white"/>
<path d="M464.681 219.288H227.929C227.828 219.288 227.731 219.247 227.659 219.176C227.587 219.104 227.547 219.007 227.547 218.905C227.547 218.803 227.587 218.706 227.659 218.634C227.731 218.563 227.828 218.522 227.929 218.522H464.681C464.782 218.522 464.879 218.563 464.951 218.634C465.023 218.706 465.063 218.803 465.063 218.905C465.063 219.007 465.023 219.104 464.951 219.176C464.879 219.247 464.782 219.288 464.681 219.288Z" fill="#DDE2F8"/>
<path d="M387.838 183.658H381.615V186.378H387.838V183.658Z" fill="#5BB647"/>
<path d="M407.049 175.832H400.825V177.957H407.049V175.832Z" fill="#5BB647"/>
<path d="M426.259 172.184H420.036V174.31H426.259V172.184Z" fill="#5BB647"/>
<path d="M445.47 170.275H439.247V171.338H445.47V170.275Z" fill="#5BB647"/>
<path d="M368.627 187.279H362.404V188.342H368.627V187.279Z" fill="#5BB647"/>
<path d="M224.858 259.069L238.048 251.792L242.258 256.133L252.589 251.175L273.011 274.128L292.564 254.309L306.366 261.865L338.636 228.632L375.472 262.802L387.64 253.706L398.087 261.865L426.8 239.016L449.234 251.792L464.68 244.771V295.941H224.858V259.069Z" fill="#10A945"/>
<path d="M464.68 263.262L453.54 271.183L440.093 261.866L411.606 276.037L397.457 271.183L368.123 291.087L337.74 256.133L307.064 277.073L298.837 269.152L275.56 279.599L247.307 261.866L224.858 271.183V295.941H464.68V263.262Z" fill="#5BB647"/>
<path d="M169.235 212.952H6.43957C2.88309 212.952 0 215.835 0 219.391V337.781C0 341.337 2.88309 344.22 6.43957 344.22H169.235C172.791 344.22 175.674 341.337 175.674 337.781V219.391C175.674 215.835 172.791 212.952 169.235 212.952Z" fill="white"/>
<path d="M25.4792 223.845H24.7136V333.322H25.4792V223.845Z" fill="#E7EEFF"/>
<path d="M38.0249 223.845H37.2594V333.322H38.0249V223.845Z" fill="#E7EEFF"/>
<path d="M50.5755 223.845H49.8099V333.322H50.5755V223.845Z" fill="#E7EEFF"/>
<path d="M63.1214 223.845H62.3558V333.322H63.1214V223.845Z" fill="#E7EEFF"/>
<path d="M75.6673 223.845H74.9017V333.322H75.6673V223.845Z" fill="#E7EEFF"/>
<path d="M88.2177 223.845H87.4521V333.322H88.2177V223.845Z" fill="#E7EEFF"/>
<path d="M100.763 223.845H99.9979V333.322H100.763V223.845Z" fill="#E7EEFF"/>
<path d="M113.314 223.845H112.549V333.322H113.314V223.845Z" fill="#E7EEFF"/>
<path d="M125.86 223.845H125.094V333.322H125.86V223.845Z" fill="#E7EEFF"/>
<path d="M138.41 223.845H137.645V333.322H138.41V223.845Z" fill="#E7EEFF"/>
<path d="M150.956 223.845H150.191V333.322H150.956V223.845Z" fill="#E7EEFF"/>
<path d="M163.124 233.414H12.5459V234.18H163.124V233.414Z" fill="#E7EEFF"/>
<path d="M163.124 243.371H12.5459V244.136H163.124V243.371Z" fill="#E7EEFF"/>
<path d="M163.124 253.323H12.5459V254.089H163.124V253.323Z" fill="#E7EEFF"/>
<path d="M163.124 263.275H12.5459V264.041H163.124V263.275Z" fill="#E7EEFF"/>
<path d="M163.124 273.227H12.5459V273.993H163.124V273.227Z" fill="#E7EEFF"/>
<path d="M163.124 283.179H12.5459V283.945H163.124V283.179Z" fill="#E7EEFF"/>
<path d="M163.124 293.131H12.5459V293.897H163.124V293.131Z" fill="#E7EEFF"/>
<path d="M163.124 303.083H12.5459V303.849H163.124V303.083Z" fill="#E7EEFF"/>
<path d="M163.124 313.035H12.5459V313.801H163.124V313.035Z" fill="#E7EEFF"/>
<path d="M163.124 322.992H12.5459V323.758H163.124V322.992Z" fill="#E7EEFF"/>
<path d="M163.124 223.845H12.5459V333.322H163.124V223.845Z" stroke="#E7EEFF" stroke-width="2" stroke-miterlimit="10"/>
<path d="M10.1187 312.792C10.1187 312.312 10.261 311.843 10.5277 311.444C10.7944 311.045 11.1735 310.733 11.617 310.55C12.0605 310.366 12.5486 310.318 13.0194 310.412C13.4902 310.505 13.9227 310.736 14.2622 311.076C14.6016 311.415 14.8328 311.848 14.9265 312.319C15.0201 312.789 14.972 313.278 14.7883 313.721C14.6046 314.165 14.2935 314.544 13.8944 314.81C13.4952 315.077 13.0259 315.219 12.5459 315.219C11.9021 315.219 11.2848 314.964 10.8296 314.508C10.3744 314.053 10.1187 313.436 10.1187 312.792ZM22.6646 303.466C22.6637 302.985 22.8055 302.514 23.0722 302.114C23.3389 301.713 23.7183 301.401 24.1626 301.216C24.6068 301.031 25.0959 300.983 25.5679 301.076C26.0399 301.169 26.4736 301.401 26.8142 301.74C27.1547 302.08 27.3868 302.514 27.481 302.985C27.5751 303.457 27.5273 303.946 27.3433 304.391C27.1594 304.836 26.8477 305.216 26.4478 305.483C26.0478 305.751 25.5774 305.893 25.0963 305.893C24.4521 305.893 23.8343 305.638 23.3784 305.183C22.9225 304.728 22.6657 304.11 22.6646 303.466ZM35.215 303.466C35.215 302.986 35.3573 302.517 35.624 302.118C35.8907 301.718 36.2698 301.407 36.7133 301.224C37.1569 301.04 37.6449 300.992 38.1157 301.085C38.5866 301.179 39.0191 301.41 39.3585 301.75C39.698 302.089 39.9291 302.522 40.0228 302.993C40.1164 303.463 40.0684 303.951 39.8847 304.395C39.7009 304.838 39.3899 305.218 38.9907 305.484C38.5915 305.751 38.1223 305.893 37.6422 305.893C36.9985 305.893 36.3811 305.638 35.9259 305.182C35.4707 304.727 35.215 304.11 35.215 303.466ZM47.7609 293.514C47.7609 293.034 47.9032 292.565 48.17 292.165C48.4367 291.766 48.8157 291.455 49.2593 291.272C49.7028 291.088 50.1908 291.04 50.6616 291.133C51.1325 291.227 51.565 291.458 51.9044 291.798C52.2439 292.137 52.475 292.57 52.5687 293.04C52.6623 293.511 52.6143 293.999 52.4306 294.443C52.2469 294.886 51.9358 295.265 51.5366 295.532C51.1374 295.799 50.6682 295.941 50.1881 295.941C49.5444 295.941 48.927 295.685 48.4718 295.23C48.0166 294.775 47.7609 294.158 47.7609 293.514ZM60.3113 293.514C60.314 293.035 60.4586 292.567 60.7269 292.169C60.9952 291.772 61.3752 291.463 61.819 291.281C62.2627 291.1 62.7503 291.053 63.2203 291.149C63.6902 291.244 64.1214 291.476 64.4596 291.816C64.7977 292.156 65.0275 292.588 65.1201 293.059C65.2126 293.529 65.1638 294.017 64.9797 294.459C64.7956 294.902 64.4845 295.28 64.0856 295.547C63.6867 295.813 63.218 295.955 62.7385 295.955C62.4186 295.955 62.1019 295.891 61.8065 295.769C61.5112 295.646 61.243 295.466 61.0174 295.239C60.7919 295.012 60.6133 294.743 60.4922 294.447C60.371 294.151 60.3095 293.834 60.3113 293.514ZM72.8572 273.61C72.8572 273.13 72.9996 272.661 73.2663 272.261C73.533 271.862 73.9121 271.551 74.3556 271.367C74.7991 271.184 75.2871 271.136 75.7579 271.229C76.2288 271.323 76.6613 271.554 77.0007 271.894C77.3402 272.233 77.5714 272.665 77.665 273.136C77.7587 273.607 77.7106 274.095 77.5269 274.539C77.3432 274.982 77.0321 275.361 76.6329 275.628C76.2338 275.895 75.7645 276.037 75.2844 276.037C74.6407 276.037 74.0233 275.781 73.5681 275.326C73.1129 274.871 72.8572 274.254 72.8572 273.61ZM85.223 283.562C85.223 283.082 85.3654 282.613 85.6321 282.213C85.8988 281.814 86.2778 281.503 86.7214 281.319C87.1649 281.136 87.6529 281.088 88.1237 281.181C88.5946 281.275 89.0271 281.506 89.3665 281.846C89.706 282.185 89.9372 282.618 90.0308 283.088C90.1245 283.559 90.0764 284.047 89.8927 284.491C89.709 284.934 89.3979 285.313 88.9987 285.58C88.5996 285.847 88.1303 285.989 87.6502 285.989C87.0065 285.989 86.3891 285.733 85.9339 285.278C85.4787 284.823 85.223 284.206 85.223 283.562ZM97.9536 253.706C97.9536 253.226 98.0959 252.756 98.3626 252.357C98.6293 251.958 99.0084 251.647 99.4519 251.463C99.8954 251.28 100.383 251.231 100.854 251.325C101.325 251.419 101.758 251.65 102.097 251.989C102.437 252.329 102.668 252.761 102.761 253.232C102.855 253.703 102.807 254.191 102.623 254.635C102.44 255.078 102.128 255.457 101.729 255.724C101.33 255.991 100.861 256.133 100.381 256.133C99.737 256.133 99.1197 255.877 98.6645 255.422C98.2093 254.967 97.9536 254.349 97.9536 253.706ZM110.504 273.61C110.504 273.13 110.646 272.661 110.913 272.261C111.18 271.862 111.559 271.551 112.002 271.367C112.446 271.184 112.934 271.136 113.405 271.229C113.876 271.323 114.308 271.554 114.647 271.894C114.987 272.233 115.218 272.665 115.312 273.136C115.405 273.607 115.357 274.095 115.174 274.539C114.99 274.982 114.679 275.361 114.28 275.628C113.881 275.895 113.411 276.037 112.931 276.037C112.287 276.037 111.67 275.781 111.215 275.326C110.76 274.871 110.504 274.254 110.504 273.61ZM123.05 273.61C123.05 273.13 123.192 272.661 123.459 272.261C123.726 271.862 124.105 271.551 124.548 271.367C124.992 271.184 125.48 271.136 125.951 271.229C126.421 271.323 126.854 271.554 127.193 271.894C127.533 272.233 127.764 272.665 127.858 273.136C127.951 273.607 127.903 274.095 127.72 274.539C127.536 274.982 127.225 275.361 126.826 275.628C126.426 275.895 125.957 276.037 125.477 276.037C124.833 276.037 124.216 275.781 123.761 275.326C123.306 274.871 123.05 274.254 123.05 273.61ZM135.6 273.61C135.6 273.13 135.743 272.661 136.009 272.261C136.276 271.862 136.655 271.551 137.099 271.367C137.542 271.184 138.03 271.136 138.501 271.229C138.972 271.323 139.404 271.554 139.744 271.894C140.083 272.233 140.314 272.665 140.408 273.136C140.502 273.607 140.454 274.095 140.27 274.539C140.086 274.982 139.775 275.361 139.376 275.628C138.977 275.895 138.508 276.037 138.028 276.037C137.384 276.037 136.766 275.781 136.311 275.326C135.856 274.871 135.6 274.254 135.6 273.61ZM148.146 266.481C148.146 266.001 148.289 265.532 148.555 265.133C148.822 264.734 149.201 264.423 149.645 264.239C150.088 264.055 150.576 264.007 151.047 264.101C151.518 264.194 151.95 264.426 152.29 264.765C152.629 265.104 152.86 265.537 152.954 266.008C153.048 266.479 153 266.967 152.816 267.41C152.632 267.854 152.321 268.233 151.922 268.499C151.523 268.766 151.053 268.908 150.573 268.908C149.93 268.908 149.312 268.653 148.857 268.198C148.402 267.742 148.146 267.125 148.146 266.481ZM160.697 253.706C160.697 253.226 160.839 252.756 161.106 252.357C161.372 251.958 161.751 251.647 162.195 251.463C162.638 251.28 163.127 251.231 163.597 251.325C164.068 251.419 164.501 251.65 164.84 251.989C165.18 252.329 165.411 252.761 165.504 253.232C165.598 253.703 165.55 254.191 165.366 254.635C165.183 255.078 164.871 255.457 164.472 255.724C164.073 255.991 163.604 256.133 163.124 256.133C162.48 256.133 161.863 255.877 161.408 255.422C160.952 254.967 160.697 254.349 160.697 253.706Z" fill="#10A945"/>
<path d="M13.0007 313.409L12.0911 312.18L24.8396 302.7H37.3765L49.9224 292.748H62.3152L75.0953 272.475L87.344 282.333L100.25 252.062L113.354 272.844H137.825L150.105 265.869L162.574 253.17L163.669 254.242L150.952 267.148L138.23 274.375H112.508L100.511 255.349L87.9565 284.791L75.4736 274.745L63.1618 294.28H50.4583L37.9079 304.232H25.3485L13.0007 313.409Z" fill="#10A945"/>
<path d="M32.5357 222.724H11.0959V239.277H32.5357V222.724Z" fill="#10A945"/>
<path d="M20.7643 230.987C20.4211 230.761 20.1598 230.431 20.0193 230.045C19.8788 229.659 19.8666 229.238 19.9844 228.844C20.1022 228.451 20.3438 228.106 20.6734 227.86C21.0029 227.615 21.4028 227.482 21.8136 227.482C22.2244 227.482 22.6242 227.615 22.9537 227.86C23.2833 228.106 23.5249 228.451 23.6427 228.844C23.7605 229.238 23.7483 229.659 23.6078 230.045C23.4673 230.431 23.206 230.761 22.8628 230.987C24.8307 231.473 24.9523 232.887 24.9523 234.518H18.6793C18.6793 232.91 18.873 231.473 20.7643 230.987Z" fill="white"/>
<path d="M20.3726 293.118V297.679H23.7635L25.0964 299.008L26.4249 297.679H29.8203V293.118H20.3726Z" fill="#362E94"/>
<path d="M70.5607 263.262V267.819H73.9561L75.2845 269.152L76.6175 267.819H80.0084V263.262H70.5607Z" fill="#362E94"/>
<path d="M120.753 263.262V267.819H124.149L125.477 269.152L126.81 267.819H130.201V263.262H120.753Z" fill="#362E94"/>
<path d="M92.5587 294.14V289.578H89.1633L87.8348 288.25L86.5019 289.578H83.111V294.14H92.5587Z" fill="#5BB647"/>
<path d="M155.297 277.073V272.516H151.906L150.573 271.183L149.241 272.516H145.85V277.073H155.297Z" fill="#5BB647"/>
<path d="M201.491 228.947C201.509 228.987 201.532 229.025 201.559 229.06L205.058 233.788C205.031 233.752 205.008 233.712 204.99 233.671L204.418 232.433C204.4 232.391 204.377 232.352 204.351 232.316C203.186 230.745 202.021 229.171 200.856 227.592L200.924 227.709L201.491 228.947ZM191.215 243.947L192.489 244.564C192.59 244.61 192.677 244.682 192.741 244.771L189.242 240.043C189.178 239.956 189.093 239.886 188.995 239.84L187.698 239.214C187.598 239.167 187.511 239.096 187.446 239.007L190.94 243.736C191.013 243.827 191.108 243.9 191.215 243.947ZM214.789 232.356C214.731 232.271 214.69 232.175 214.67 232.073C214.65 231.972 214.65 231.867 214.672 231.766L214.974 230.235C214.998 230.133 215 230.026 214.98 229.923C214.959 229.82 214.917 229.722 214.857 229.636L211.362 224.912C211.423 224.998 211.465 225.096 211.485 225.199C211.505 225.302 211.503 225.409 211.479 225.511L211.178 227.038C211.154 227.139 211.152 227.244 211.171 227.347C211.191 227.449 211.231 227.546 211.29 227.632L214.789 232.356ZM188.103 253.625L189.751 253.458C189.891 253.434 190.035 253.447 190.168 253.497C190.301 253.547 190.418 253.631 190.508 253.742L187.013 249.013C186.922 248.904 186.804 248.82 186.671 248.771C186.537 248.722 186.393 248.709 186.252 248.734L184.604 248.901C184.463 248.925 184.318 248.912 184.183 248.862C184.049 248.813 183.93 248.728 183.839 248.617L187.338 253.341C187.429 253.452 187.548 253.536 187.682 253.586C187.817 253.636 187.962 253.649 188.103 253.625ZM222.548 235.567C222.442 235.396 222.397 235.194 222.419 234.994C222.441 234.794 222.529 234.607 222.67 234.464L223.755 233.054C223.894 232.908 223.981 232.721 224.004 232.521C224.027 232.321 223.984 232.119 223.881 231.946L220.382 227.222C220.485 227.395 220.528 227.597 220.506 227.797C220.484 227.996 220.398 228.184 220.26 228.33L219.175 229.758C219.035 229.902 218.946 230.088 218.924 230.288C218.902 230.488 218.948 230.69 219.054 230.861L222.548 235.567ZM201.194 254.314C199.6 252.166 199.87 248.829 202.153 245.866C205.112 242.029 210.344 240.273 213.861 241.957C214.622 242.314 215.284 242.852 215.789 243.524L212.29 238.8C211.786 238.129 211.126 237.591 210.367 237.233C206.868 235.549 201.635 237.301 198.659 241.142C196.38 244.105 196.11 247.446 197.699 249.59L201.194 254.314ZM229.618 244.497L226.997 240.957L228.456 240.115C228.63 240.009 228.783 239.872 228.907 239.71C229.012 239.588 229.088 239.443 229.127 239.286C229.166 239.13 229.168 238.966 229.132 238.809C228.815 237.805 228.377 236.843 227.826 235.945L227.79 235.896L224.291 231.172C224.305 231.186 224.318 231.203 224.327 231.221C224.878 232.117 225.316 233.078 225.633 234.081C225.669 234.238 225.667 234.402 225.628 234.558C225.589 234.715 225.514 234.86 225.408 234.981C225.285 235.146 225.132 235.285 224.957 235.391L223.381 236.292C223.208 236.397 223.055 236.532 222.931 236.693C222.838 236.805 222.768 236.935 222.725 237.075C222.683 237.215 222.668 237.362 222.683 237.508C222.757 237.991 222.805 238.478 222.827 238.967C222.829 239.109 222.874 239.248 222.958 239.363L225.745 243.128C225.691 243.348 225.633 243.578 225.57 243.794C225.523 243.943 225.45 244.082 225.354 244.204C225.23 244.367 225.075 244.504 224.898 244.607C224.721 244.709 224.525 244.776 224.322 244.803L222.674 244.97C222.267 245.024 221.898 245.238 221.647 245.564C221.576 245.656 221.517 245.758 221.472 245.866C221.251 246.384 221.022 246.901 220.742 247.415C220.659 247.55 220.614 247.706 220.614 247.865C220.614 248.024 220.659 248.18 220.742 248.315L222.359 250.504C222.023 251.014 221.662 251.519 221.278 252.017C220.855 252.566 220.414 253.098 219.954 253.611C219.788 253.829 219.558 253.989 219.297 254.07C219.035 254.15 218.755 254.148 218.495 254.061L217.212 253.445C216.978 253.367 216.726 253.357 216.487 253.417C216.248 253.477 216.031 253.603 215.861 253.782C215.411 254.21 214.96 254.615 214.451 255.007C214.358 255.085 214.274 255.173 214.199 255.268C214.08 255.401 213.998 255.563 213.963 255.738C213.927 255.913 213.939 256.095 213.997 256.264L214.568 257.502C214.627 257.67 214.639 257.851 214.604 258.026C214.57 258.201 214.489 258.364 214.37 258.497C214.267 258.629 214.144 258.744 214.006 258.839C212.836 259.62 211.616 260.323 210.353 260.942C210.157 261.037 209.941 261.082 209.723 261.073L208.426 259.317C208.288 259.171 208.107 259.073 207.909 259.037C207.712 259.001 207.508 259.03 207.327 259.119C206.76 259.335 206.188 259.524 205.621 259.69C205.302 259.786 205.021 259.98 204.819 260.244C204.699 260.391 204.616 260.564 204.576 260.749L204.279 262.271C204.239 262.46 204.156 262.637 204.035 262.789C203.812 263.08 203.493 263.282 203.135 263.361C202.383 263.5 201.631 263.599 200.883 263.667L198.717 260.749C198.653 260.664 198.572 260.595 198.479 260.545C198.385 260.495 198.282 260.467 198.177 260.46C197.659 260.41 197.145 260.33 196.637 260.222C196.381 260.189 196.12 260.225 195.883 260.326C195.645 260.428 195.439 260.591 195.286 260.798L194.304 262.073C193.181 260.572 192.061 259.06 190.945 257.538C190.918 257.501 190.886 257.467 190.85 257.439C190.504 257.136 190.179 256.809 189.877 256.462C189.7 256.306 189.475 256.215 189.239 256.204C189.003 256.193 188.771 256.264 188.581 256.403L187 257.304C186.806 257.449 186.567 257.52 186.326 257.503C186.084 257.487 185.857 257.384 185.685 257.214C186.853 258.79 188.018 260.364 189.179 261.938C189.324 262.086 189.513 262.184 189.719 262.214C189.924 262.244 190.133 262.205 190.314 262.104L192.935 265.644L193.111 265.882C193.158 265.947 193.218 266.003 193.286 266.044C193.746 266.333 194.221 266.596 194.709 266.833C195.209 267.071 195.723 267.283 196.245 267.472C196.515 267.534 196.797 267.514 197.056 267.416C197.315 267.317 197.539 267.144 197.699 266.918L198.78 265.513C199.018 265.207 199.362 265.001 199.744 264.937L202.149 268.183C202.227 268.282 202.329 268.359 202.444 268.409C202.559 268.46 202.685 268.481 202.811 268.472C204.092 268.447 205.37 268.315 206.629 268.075C206.988 267.999 207.308 267.796 207.53 267.504C207.649 267.353 207.732 267.178 207.773 266.99L208.07 265.464C208.111 265.28 208.193 265.107 208.309 264.959C208.512 264.709 208.785 264.526 209.093 264.432C209.66 264.266 210.232 264.077 210.795 263.86C210.961 263.803 211.137 263.778 211.313 263.788L212.605 265.536C212.76 265.697 212.965 265.8 213.186 265.827C213.408 265.854 213.632 265.803 213.821 265.684C215.085 265.066 216.307 264.363 217.478 263.581C217.616 263.486 217.739 263.371 217.842 263.239C217.96 263.105 218.041 262.943 218.075 262.768C218.109 262.593 218.095 262.412 218.036 262.244L217.468 261.005C217.411 260.837 217.399 260.656 217.434 260.481C217.469 260.306 217.549 260.144 217.667 260.01C217.743 259.914 217.829 259.827 217.923 259.749C218.405 259.362 218.874 258.952 219.333 258.529C219.502 258.348 219.719 258.22 219.958 258.16C220.198 258.099 220.449 258.108 220.684 258.186L221.963 258.803C222.223 258.89 222.504 258.893 222.766 258.812C223.029 258.731 223.259 258.571 223.426 258.353C223.886 257.84 224.327 257.308 224.75 256.759C225.173 256.214 225.565 255.656 225.93 255.097C226.045 254.956 226.113 254.782 226.124 254.601C226.135 254.419 226.089 254.238 225.993 254.084L224.349 251.864C224.566 251.441 224.764 251.017 224.939 250.594C224.989 250.488 225.049 250.386 225.119 250.292C225.369 249.967 225.736 249.754 226.142 249.698L227.794 249.531C227.997 249.505 228.192 249.439 228.369 249.337C228.546 249.235 228.701 249.099 228.826 248.937C228.923 248.813 228.996 248.673 229.042 248.523C229.378 247.368 229.607 246.184 229.726 244.988C229.756 244.815 229.717 244.637 229.618 244.492V244.497ZM194.164 262.181C194.004 262.406 193.78 262.579 193.521 262.677C193.262 262.776 192.98 262.796 192.71 262.735C192.187 262.547 191.674 262.332 191.174 262.091C191.026 262.019 190.877 261.938 190.724 261.861L192.034 261.104C192.225 260.966 192.458 260.896 192.694 260.908C192.93 260.919 193.155 261.011 193.331 261.168C193.612 261.486 193.913 261.787 194.232 262.068L194.164 262.181Z" fill="white"/>
<path d="M217.248 225.628C217.772 225.812 218.286 226.024 218.788 226.263C219.276 226.498 219.75 226.763 220.206 227.056C220.598 227.299 220.621 227.853 220.26 228.326L219.175 229.758C219.015 229.916 218.923 230.131 218.918 230.356C218.913 230.581 218.995 230.799 219.148 230.965C219.492 231.27 219.817 231.596 220.121 231.942C220.298 232.097 220.521 232.187 220.756 232.199C220.991 232.21 221.222 232.142 221.413 232.005L222.994 231.104C223.521 230.802 224.111 230.856 224.345 231.244C224.896 232.14 225.334 233.1 225.651 234.103C225.687 234.261 225.685 234.424 225.646 234.581C225.607 234.737 225.532 234.882 225.426 235.004C225.303 235.168 225.15 235.307 224.975 235.414L223.399 236.314C223.226 236.419 223.073 236.555 222.949 236.715C222.856 236.828 222.786 236.958 222.743 237.098C222.701 237.238 222.686 237.385 222.701 237.53C222.775 238.014 222.823 238.501 222.845 238.989C222.85 239.097 222.879 239.202 222.929 239.297C222.98 239.392 223.05 239.475 223.136 239.54C223.222 239.605 223.321 239.65 223.427 239.673C223.532 239.695 223.641 239.694 223.746 239.669L225.394 239.503C225.507 239.475 225.626 239.474 225.739 239.502C225.852 239.529 225.958 239.583 226.046 239.659C226.134 239.735 226.203 239.832 226.246 239.94C226.289 240.048 226.306 240.166 226.295 240.282C226.173 241.479 225.943 242.662 225.606 243.817C225.559 243.965 225.486 244.104 225.39 244.226C225.266 244.389 225.111 244.526 224.934 244.629C224.757 244.732 224.561 244.799 224.358 244.825L222.71 244.992C222.303 245.047 221.934 245.26 221.683 245.586C221.612 245.679 221.553 245.78 221.508 245.888C221.287 246.406 221.058 246.924 220.778 247.437C220.715 247.525 220.671 247.625 220.649 247.731C220.627 247.836 220.628 247.946 220.652 248.051C220.675 248.157 220.72 248.256 220.785 248.343C220.849 248.429 220.932 248.501 221.026 248.554L222.305 249.171C222.733 249.378 222.818 249.905 222.499 250.391C222.132 250.95 221.738 251.504 221.314 252.053C220.891 252.602 220.435 253.126 219.945 253.625C219.779 253.842 219.549 254.003 219.288 254.083C219.026 254.164 218.746 254.161 218.486 254.075L217.203 253.458C216.969 253.38 216.717 253.37 216.478 253.43C216.239 253.49 216.022 253.617 215.852 253.796C215.402 254.224 214.951 254.629 214.442 255.021C214.349 255.099 214.265 255.186 214.19 255.282C214.071 255.415 213.989 255.577 213.954 255.752C213.918 255.927 213.93 256.108 213.988 256.277L214.559 257.515C214.618 257.684 214.63 257.865 214.595 258.04C214.56 258.215 214.48 258.377 214.361 258.511C214.258 258.642 214.135 258.758 213.997 258.853C212.827 259.634 211.607 260.336 210.344 260.956C209.804 261.217 209.246 261.1 209.057 260.686L208.485 259.452C208.369 259.258 208.183 259.117 207.966 259.057C207.748 258.998 207.516 259.025 207.318 259.132C206.751 259.348 206.179 259.537 205.612 259.704C205.293 259.8 205.012 259.993 204.81 260.258C204.69 260.404 204.607 260.577 204.567 260.762L204.27 262.284C204.23 262.473 204.147 262.651 204.026 262.802C203.803 263.093 203.484 263.296 203.126 263.374C201.866 263.613 200.589 263.746 199.307 263.77C199.191 263.784 199.072 263.769 198.963 263.726C198.854 263.684 198.757 263.615 198.68 263.526C198.604 263.437 198.55 263.331 198.524 263.216C198.499 263.102 198.501 262.983 198.533 262.87L198.83 261.343C198.859 261.24 198.865 261.131 198.846 261.025C198.827 260.919 198.784 260.819 198.721 260.732C198.658 260.645 198.575 260.574 198.48 260.524C198.385 260.474 198.28 260.446 198.172 260.442C197.655 260.392 197.141 260.312 196.632 260.204C196.376 260.171 196.116 260.207 195.878 260.308C195.641 260.41 195.435 260.573 195.281 260.78L194.164 262.181C194.004 262.406 193.78 262.579 193.521 262.677C193.262 262.776 192.98 262.796 192.71 262.735C192.187 262.547 191.674 262.332 191.174 262.091C190.687 261.857 190.213 261.596 189.756 261.307C189.36 261.059 189.342 260.505 189.706 260.033L190.787 258.628C190.947 258.468 191.04 258.253 191.045 258.027C191.05 257.802 190.967 257.583 190.814 257.416C190.468 257.113 190.143 256.787 189.841 256.439C189.664 256.283 189.439 256.192 189.203 256.181C188.967 256.171 188.735 256.241 188.544 256.381L186.964 257.281C186.437 257.587 185.847 257.524 185.613 257.142C185.06 256.245 184.622 255.283 184.307 254.278C184.271 254.121 184.273 253.958 184.311 253.801C184.349 253.645 184.423 253.5 184.528 253.377C184.651 253.215 184.804 253.077 184.978 252.972L186.559 252.071C186.732 251.964 186.884 251.827 187.009 251.666C187.102 251.553 187.172 251.423 187.215 251.283C187.257 251.143 187.271 250.996 187.257 250.851C187.18 250.368 187.134 249.88 187.117 249.392C187.111 249.284 187.082 249.18 187.031 249.085C186.981 248.99 186.91 248.908 186.824 248.844C186.738 248.779 186.64 248.734 186.534 248.712C186.429 248.69 186.321 248.692 186.216 248.716L184.568 248.883C184.454 248.911 184.336 248.911 184.222 248.884C184.108 248.856 184.003 248.802 183.914 248.725C183.826 248.648 183.757 248.551 183.714 248.442C183.671 248.333 183.655 248.216 183.667 248.099C183.787 246.903 184.017 245.722 184.356 244.569C184.4 244.418 184.474 244.277 184.573 244.154C184.696 243.992 184.85 243.856 185.026 243.754C185.203 243.652 185.397 243.586 185.599 243.56L187.248 243.389C187.449 243.364 187.643 243.299 187.818 243.197C187.994 243.096 188.147 242.961 188.27 242.799C188.342 242.706 188.402 242.605 188.45 242.497C188.666 241.979 188.9 241.461 189.184 240.948C189.246 240.86 189.29 240.759 189.311 240.653C189.332 240.547 189.331 240.437 189.307 240.331C189.283 240.226 189.237 240.126 189.173 240.039C189.108 239.952 189.026 239.88 188.932 239.827L187.698 239.214C187.248 239.012 187.184 238.48 187.509 237.99C187.833 237.499 188.274 236.877 188.693 236.332C189.112 235.787 189.558 235.252 190.012 234.734C190.186 234.524 190.418 234.372 190.679 234.296C190.94 234.221 191.218 234.226 191.476 234.31L192.755 234.927C192.992 235.008 193.248 235.019 193.491 234.959C193.734 234.899 193.955 234.771 194.128 234.59C194.579 234.166 195.029 233.757 195.529 233.365C195.627 233.288 195.715 233.198 195.79 233.099C195.91 232.967 195.991 232.805 196.025 232.631C196.06 232.456 196.045 232.275 195.984 232.108L195.421 230.874C195.36 230.707 195.346 230.525 195.38 230.35C195.414 230.175 195.495 230.012 195.614 229.879C195.719 229.746 195.843 229.631 195.984 229.537C197.153 228.755 198.373 228.053 199.636 227.434C200.176 227.168 200.735 227.285 200.924 227.7L201.491 228.938C201.613 229.127 201.801 229.264 202.018 229.322C202.236 229.379 202.467 229.353 202.666 229.249C203.229 229.042 203.797 228.848 204.369 228.681C204.685 228.588 204.964 228.397 205.166 228.137C205.285 227.987 205.367 227.811 205.404 227.623L205.706 226.101C205.745 225.914 205.827 225.738 205.945 225.588C206.168 225.296 206.487 225.092 206.845 225.011C208.104 224.774 209.379 224.642 210.66 224.615C210.777 224.6 210.895 224.615 211.005 224.657C211.115 224.699 211.213 224.768 211.29 224.857C211.367 224.946 211.421 225.053 211.447 225.168C211.473 225.283 211.47 225.402 211.439 225.516L211.137 227.042C211.108 227.146 211.104 227.255 211.123 227.361C211.143 227.466 211.186 227.566 211.249 227.653C211.313 227.74 211.396 227.811 211.491 227.861C211.586 227.911 211.691 227.939 211.799 227.943C212.318 227.992 212.833 228.069 213.344 228.173C213.599 228.208 213.86 228.174 214.098 228.073C214.336 227.973 214.542 227.809 214.695 227.601L215.78 226.191C215.94 225.961 216.165 225.784 216.427 225.683C216.689 225.583 216.975 225.564 217.248 225.628ZM211.308 247.244C214.271 243.402 213.839 238.922 210.344 237.237C206.85 235.553 201.613 237.305 198.636 241.146C195.659 244.987 196.105 249.477 199.6 251.161C203.094 252.846 208.331 251.089 211.308 247.244Z" fill="#10A945"/>
<path d="M442.705 74.9061C455.242 61.1669 478.929 62.4728 495.609 77.8152L472.908 102.686L442.705 74.9061Z" fill="#5BB647"/>
<path d="M472.908 102.686L468.999 106.82L438.796 79.0401L442.705 74.9062L472.908 102.686Z" fill="#5BB647"/>
<path d="M503.993 136.6L500.089 140.738C487.552 154.469 463.865 153.163 447.181 137.82C430.497 122.478 427.133 98.8992 439.67 85.1645L443.579 81.0305C431.042 94.7653 434.401 118.335 451.085 133.682C467.77 149.029 491.457 150.335 503.993 136.6Z" fill="white"/>
<path d="M473.786 108.815L443.579 81.0305C431.042 94.7653 434.401 118.335 451.085 133.682C467.77 149.029 491.457 150.344 503.993 136.6C511.482 128.395 513.293 116.678 509.983 105.303L473.786 108.815Z" fill="#10A945"/>
<path d="M496.482 83.9486L473.786 108.815L509.983 105.303C507.505 97.0907 502.838 89.7085 496.482 83.9486Z" fill="#10A945"/>
</svg>
