<svg width="1440" height="1024" viewBox="0 0 1440 1024" fill="none" xmlns="http://www.w3.org/2000/svg">
<rect width="1440" height="1024" fill="#0E2E54"/>
<path fillRule="evenodd" clipRule="evenodd" d="M0 899.125L59.625 903.817C120.375 908.509 239.625 917.892 360 933.772C480.375 950.013 599.625 973.112 720 977.803C840.375 982.495 959.625 968.42 1080 964.089C1200.38 959.397 1319.62 964.089 1380.38 966.254L1440 968.42V1024H1380.38C1319.62 1024 1200.38 1024 1080 1024C959.625 1024 840.375 1024 720 1024C599.625 1024 480.375 1024 360 1024C239.625 1024 120.375 1024 59.625 1024H0V899.125Z" fill="#20DF7F" fill-opacity="0.05"/>
<path fillRule="evenodd" clipRule="evenodd" d="M0 949.075L48 959.065C96 969.055 192 989.035 288 984.04C384 979.045 480 949.075 576 929.095C672 909.115 768 899.125 864 899.125C960 899.125 1056 909.115 1152 926.597C1248 944.08 1344 969.055 1392 981.542L1440 994.03V1024H1392C1344 1024 1248 1024 1152 1024C1056 1024 960 1024 864 1024C768 1024 672 1024 576 1024C480 1024 384 1024 288 1024C192 1024 96 1024 48 1024H0V949.075Z" fill="#E5E5E5" fill-opacity="0.05"/>
</svg>
