<svg width="616" height="177" viewBox="0 0 616 177" fill="none" xmlns="http://www.w3.org/2000/svg">
    <path fill-rule="evenodd" clip-rule="evenodd" d="M8.66309 102.916C8.66309 102.916 32.8925 104.412 52.3135 102.545C77.7655 100.099 99.1943 74.2725 99.1943 74.2725L114.198 77.4805C114.198 77.4805 81.0774 112.722 58.0186 114.387C34.9598 116.052 9.36052 115.934 9.36052 115.934L8.66309 102.916Z" fill="#405E52" />
    <path fill-rule="evenodd" clip-rule="evenodd" d="M114.335 77.3772C102.622 60.4254 83.3319 50.3066 62.7276 50.3066C28.1072 50.3066 0 78.4138 0 113.034C0 147.654 28.1072 175.762 62.7276 175.762C75.4667 175.762 87.9037 171.883 98.3844 164.642L91.2529 154.32C82.8686 160.113 72.9187 163.216 62.7276 163.216C35.0312 163.216 12.5456 140.73 12.5456 113.034C12.5456 85.3378 35.0312 62.8522 62.7276 62.8522C79.211 62.8522 94.6435 70.9472 104.014 84.5086L114.335 77.3772Z" fill="#405E52" />
    <path fill-rule="evenodd" clip-rule="evenodd" d="M379.277 61.4249C368.796 54.1835 356.359 50.3047 343.62 50.3047C309 50.3047 280.893 78.4119 280.893 113.032C280.893 147.652 309 175.76 343.62 175.76C356.359 175.76 368.796 171.881 379.277 164.64L372.146 154.318C363.761 160.111 353.812 163.214 343.62 163.214C315.924 163.214 293.438 140.728 293.438 113.032C293.438 85.3359 315.924 62.8503 343.62 62.8503C353.812 62.8503 363.761 65.9533 372.146 71.7464L379.277 61.4249Z" fill="#405E52" />
    <path d="M379.28 61.4287H367.867V72.8414H379.28V61.4287Z" fill="#405E52" />
    <path fill-rule="evenodd" clip-rule="evenodd" d="M204.735 14.8707C193.966 0.389641 174.297 -4.16784 158.257 4.10105C145.965 10.4375 138.254 23.1191 138.282 36.9476L152.292 36.9184C152.274 28.3448 157.055 20.4824 164.676 16.5535C174.621 11.4267 186.816 14.2524 193.493 23.2307L204.735 14.8707Z" fill="#405E52" />
    <path fill-rule="evenodd" clip-rule="evenodd" d="M247.073 6.88382C235.825 -1.16149 221.022 -2.23623 208.731 4.10025C196.439 10.4367 188.727 23.1183 188.756 36.9468L202.766 36.9176C202.748 28.344 207.529 20.4816 215.15 16.5527C222.771 12.6242 231.949 13.2905 238.922 18.2787L247.073 6.88382Z" fill="#405E52" />
    <path d="M262.755 52.8916C267.482 52.8916 271.314 49.0594 271.314 44.332C271.314 39.6047 267.482 35.7725 262.755 35.7725C258.028 35.7725 254.195 39.6047 254.195 44.332C254.195 49.0594 258.028 52.8916 262.755 52.8916Z" fill="#10A945" />
    <path d="M239.597 59.9834H120.219V74.2724H239.597V59.9834Z" fill="#405E52" />
    <path fill-rule="evenodd" clip-rule="evenodd" d="M256.191 60.1992V176.471H270.457V60.1992H256.191Z" fill="#405E52" />
    <path fill-rule="evenodd" clip-rule="evenodd" d="M604.541 50.7705L507.258 166.708L518.186 175.878L615.47 59.9405L604.541 50.7705Z" fill="#10A945" />
    <path fill-rule="evenodd" clip-rule="evenodd" d="M518.043 50.5957L615.62 166.884L604.692 176.054L507.114 59.7657L518.043 50.5957Z" fill="#10A945" />
    <path d="M518.068 50.6025H506.629V64.8686H518.068V50.6025Z" fill="#10A945" />
    <path fill-rule="evenodd" clip-rule="evenodd" d="M138.259 36.6377V176.472H152.284V36.6377H138.259Z" fill="#405E52" />
    <path fill-rule="evenodd" clip-rule="evenodd" d="M188.75 36.6377V176.472H202.775V36.6377H188.75Z" fill="#405E52" />
    <path d="M269.116 60.1826H246.29V74.4487H269.116V60.1826Z" fill="#405E52" />
    <path d="M247.073 6.88281H235.66V21.1489H247.073V6.88281Z" fill="#405E52" />
    <path d="M443.489 49.6572C458.761 49.6572 469.711 52.6359 476.34 58.5937C482.969 64.5512 484.857 76.2566 484.857 90.8568V161.069L493.331 161.089V173.676H471.86L471.767 158.572H471.515C468.998 163.942 464.593 168.222 458.299 171.41C452.006 174.599 444.161 176.193 434.763 176.193C422.344 176.193 412.527 173.13 405.31 167.005C398.094 160.88 394.486 152.111 394.486 140.699C394.486 117.037 409.674 105.205 440.049 105.205H470.005C471.012 105.205 471.515 104.702 471.515 103.695V91.6121C471.515 81.3752 470.76 72.6903 466.397 68.4109C462.033 64.1318 454.23 61.9919 442.986 61.9919C433.42 61.9919 429.645 63.5025 423.1 66.523C422.261 66.8589 421.841 67.4461 421.841 68.2852V70.9278L408.454 71.415L408.45 58.742C408.45 58.742 428.554 49.6572 443.489 49.6572ZM470.005 116.785H441.811C419.156 116.785 407.828 124.673 407.828 140.448C407.828 148 410.387 153.789 415.506 157.817C420.624 161.844 427.966 163.858 437.532 163.858C447.936 163.858 456.201 161.383 462.327 156.432C468.452 151.482 471.515 144.895 471.515 136.671V118.295C471.515 117.288 471.012 116.785 470.005 116.785Z" fill="#405E52" />
    <path d="M421.843 61.4287H408.451V72.8414H421.843V61.4287Z" fill="#405E52" />
</svg>
    