<svg width="496" height="143" viewBox="0 0 496 143" fill="none" xmlns="http://www.w3.org/2000/svg">
    <path fill-rule="evenodd" clip-rule="evenodd" d="M6.97656 82.8912C6.97656 82.8912 26.4918 84.096 42.1341 82.5928C62.6341 80.6225 79.8936 59.8208 79.8936 59.8208L91.978 62.4047C91.978 62.4047 65.3016 90.7892 46.7293 92.1302C28.1569 93.4713 7.5383 93.3767 7.5383 93.3767L6.97656 82.8912Z" fill="white" />
    <path fill-rule="evenodd" clip-rule="evenodd" d="M92.0895 62.3216C82.6558 48.6681 67.1185 40.5181 50.5231 40.5181C22.6386 40.5181 0 63.1566 0 91.0411C0 118.925 22.6386 141.564 50.5231 141.564C60.7836 141.564 70.8008 138.44 79.2423 132.608L73.4984 124.294C66.7454 128.96 58.7313 131.46 50.5231 131.46C28.2154 131.46 10.1047 113.348 10.1047 91.0411C10.1047 68.7335 28.2154 50.6227 50.5231 50.6227C63.7993 50.6227 76.2293 57.1427 83.7762 68.0656L92.0895 62.3216Z" fill="white" />
    <path fill-rule="evenodd" clip-rule="evenodd" d="M305.488 49.4737C297.047 43.6413 287.03 40.5171 276.769 40.5171C248.885 40.5171 226.246 63.1557 226.246 91.0402C226.246 118.924 248.885 141.563 276.769 141.563C287.03 141.563 297.047 138.439 305.488 132.607L299.745 124.293C292.991 128.959 284.978 131.459 276.769 131.459C254.462 131.459 236.351 113.348 236.351 91.0402C236.351 68.7325 254.462 50.6218 276.769 50.6218C284.978 50.6218 292.991 53.121 299.745 57.787L305.488 49.4737Z" fill="white" />
    <path d="M305.491 49.4766H296.299V58.6687H305.491V49.4766Z" fill="white" />
    <path fill-rule="evenodd" clip-rule="evenodd" d="M164.904 11.9774C156.23 0.313831 140.389 -3.35693 127.469 3.30313C117.569 8.40676 111.358 18.6209 111.381 29.7589L122.665 29.7354C122.65 22.8299 126.502 16.4972 132.64 13.3328C140.65 9.20345 150.471 11.4794 155.849 18.7108L164.904 11.9774Z" fill="white" />
    <path fill-rule="evenodd" clip-rule="evenodd" d="M199.008 5.54437C189.949 -0.935615 178.025 -1.80125 168.125 3.30238C158.225 8.406 152.014 18.6202 152.037 29.7581L163.321 29.7347C163.307 22.8292 167.158 16.4965 173.296 13.332C179.434 10.1679 186.826 10.7045 192.443 14.7222L199.008 5.54437Z" fill="white" />
    <path d="M211.636 42.6018C215.444 42.6018 218.531 39.5152 218.531 35.7077C218.531 31.9001 215.444 28.8135 211.636 28.8135C207.829 28.8135 204.742 31.9001 204.742 35.7077C204.742 39.5152 207.829 42.6018 211.636 42.6018Z" fill="#10A945" />
    <path d="M192.981 48.313H96.8301V59.8219H192.981V48.313Z" fill="white" />
    <path fill-rule="evenodd" clip-rule="evenodd" d="M206.348 48.4868V142.137H217.838V48.4868H206.348Z" fill="white" />
    <path fill-rule="evenodd" clip-rule="evenodd" d="M486.914 40.8921L408.559 134.272L417.361 141.658L495.716 48.278L486.914 40.8921Z" fill="#10A945" />
    <path fill-rule="evenodd" clip-rule="evenodd" d="M417.245 40.7515L495.838 134.414L487.036 141.8L408.443 48.1373L417.245 40.7515Z" fill="#10A945" />
    <path d="M417.264 40.7568H408.051V52.2472H417.264V40.7568Z" fill="#10A945" />
    <path fill-rule="evenodd" clip-rule="evenodd" d="M111.365 29.5088V142.137H122.662V29.5088H111.365Z" fill="white" />
    <path fill-rule="evenodd" clip-rule="evenodd" d="M152.033 29.5088V142.137H163.33V29.5088H152.033Z" fill="white" />
    <path d="M216.765 48.4727H198.381V59.9631H216.765V48.4727Z" fill="white" />
    <path d="M199.003 5.54395H189.811V17.0343H199.003V5.54395Z" fill="white" />
    <path d="M357.207 39.9961C369.507 39.9961 378.327 42.3953 383.666 47.1939C389.005 51.9922 390.526 61.4202 390.526 73.1797V129.731L397.351 129.747V139.885H380.058L379.983 127.72H379.78C377.752 132.045 374.204 135.492 369.136 138.06C364.067 140.628 357.748 141.913 350.178 141.913C340.176 141.913 332.269 139.446 326.456 134.512C320.644 129.579 317.738 122.516 317.738 113.325C317.738 94.266 329.971 84.7366 354.436 84.7366H378.563C379.374 84.7366 379.78 84.3312 379.78 83.5202V73.7881C379.78 65.5429 379.172 58.5478 375.657 55.101C372.143 51.6544 365.858 49.9309 356.802 49.9309C349.097 49.9309 346.056 51.1476 340.785 53.5804C340.109 53.8509 339.771 54.3239 339.771 54.9998V57.1281L328.988 57.5206L328.985 47.3133C328.985 47.3133 345.177 39.9961 357.207 39.9961ZM378.563 94.0633H355.855C337.608 94.0633 328.484 100.416 328.484 113.122C328.484 119.204 330.545 123.868 334.668 127.112C338.791 130.356 344.704 131.978 352.409 131.978C360.789 131.978 367.446 129.984 372.38 125.997C377.313 122.009 379.78 116.704 379.78 110.08V95.2797C379.78 94.4687 379.374 94.0633 378.563 94.0633Z" fill="white" />
    <path d="M339.775 49.4766H328.988V58.6687H339.775V49.4766Z" fill="white" />
</svg>
    