<svg width="40" height="40" viewBox="0 0 40 40" fill="none" xmlns="http://www.w3.org/2000/svg">
<circle cx="20" cy="20" r="20" fill="#10A945"/>
<path d="M13.9544 28.8435L19.0591 23.7425L16.4196 21.103L11.3149 26.2077C10.896 26.6267 10.896 27.3162 11.3149 27.7351L12.4233 28.8435C12.8459 29.2625 13.5392 29.2625 13.9544 28.8435Z" fill="#FEFDFE"/>
<path d="M17.5577 21.2182L18.9404 22.601L20.516 21.0254C22.6624 22.5157 25.6355 22.3081 27.5484 20.3952C29.6948 18.2488 29.6948 14.7604 27.5484 12.6102C25.402 10.4601 21.9135 10.4638 19.7634 12.6102C17.8505 14.5231 17.6429 17.4962 19.1332 19.6427L17.5577 21.2182ZM20.8459 13.6779C22.4029 12.1209 24.9274 12.1209 26.4807 13.6779C28.0377 15.2349 28.0377 17.7594 26.4807 19.3127C24.9237 20.8697 22.3992 20.8697 20.8459 19.3127C19.2889 17.7594 19.2889 15.2349 20.8459 13.6779Z" fill="#FEFDFE"/>
</svg>
