<svg width="216" height="26" viewBox="0 0 216 26" fill="none" xmlns="http://www.w3.org/2000/svg">
<path d="M152.981 12.0463C153.285 12.0467 153.587 12.0059 153.879 11.9252C154.163 11.8468 154.432 11.7213 154.674 11.554C154.904 11.397 155.096 11.1923 155.239 10.9539C155.384 10.7026 155.457 10.4162 155.45 10.1261C155.456 9.77047 155.355 9.42126 155.159 9.12397C154.951 8.81592 154.693 8.54439 154.396 8.32041C154.057 8.06061 153.696 7.83028 153.318 7.63192C152.915 7.41635 152.503 7.19957 152.084 6.98521C151.665 6.77086 151.252 6.54257 150.849 6.3046C150.462 6.08029 150.1 5.81429 149.771 5.51135C149.465 5.22849 149.207 4.89729 149.007 4.53097C148.808 4.14732 148.708 3.71997 148.716 3.28782C148.712 2.83975 148.802 2.39578 148.981 1.98471C149.156 1.5847 149.42 1.22964 149.753 0.946216C150.121 0.636277 150.547 0.401719 151.006 0.255897C151.558 0.0818226 152.134 -0.00220388 152.712 0.00703436C153.236 -0.00054156 153.759 0.0605245 154.268 0.188688C154.696 0.299656 155.103 0.484044 155.468 0.733666C155.813 0.973243 156.11 1.27369 156.347 1.62018C156.6 1.99649 156.796 2.40803 156.93 2.84154L155.876 3.32112C155.76 2.96064 155.602 2.61511 155.405 2.29171C155.221 1.99004 154.989 1.7201 154.719 1.4924C154.447 1.2666 154.135 1.09295 153.8 0.980126C153.42 0.85386 153.021 0.792436 152.621 0.798455C152.275 0.791313 151.93 0.845656 151.604 0.95893C151.337 1.05356 151.09 1.19733 150.876 1.38279C150.69 1.5457 150.541 1.74743 150.441 1.9738C150.347 2.18483 150.298 2.41316 150.298 2.64413C150.297 2.96293 150.401 3.27324 150.593 3.52761C150.816 3.8186 151.081 4.07386 151.381 4.28453C151.737 4.539 152.109 4.7694 152.495 4.97422C152.911 5.19464 153.335 5.42052 153.768 5.64699C154.201 5.87346 154.623 6.11385 155.041 6.35848C155.438 6.59182 155.811 6.86317 156.155 7.1687C156.469 7.44388 156.735 7.76898 156.943 8.13089C157.142 8.48702 157.244 8.88925 157.238 9.29714C157.242 9.76885 157.148 10.2362 156.962 10.6699C156.774 11.1018 156.49 11.4846 156.13 11.7883C155.723 12.1261 155.254 12.3819 154.749 12.5416C154.131 12.7361 153.484 12.8293 152.836 12.8177C152.302 12.8249 151.77 12.7599 151.254 12.6246C150.817 12.507 150.403 12.3164 150.029 12.0608C149.676 11.8157 149.369 11.5112 149.12 11.161C148.857 10.7869 148.648 10.3776 148.5 9.94507L149.601 9.49153C149.721 9.87321 149.897 10.2347 150.124 10.5639C150.334 10.8696 150.591 11.1395 150.887 11.3632C151.179 11.5834 151.505 11.7535 151.853 11.8664C152.219 11.986 152.602 12.0455 152.987 12.0426" fill="#2E2E2E"/>
<path d="M161.79 6.45444C161.778 7.24003 161.91 8.02122 162.179 8.7594C162.414 9.40197 162.778 9.98995 163.247 10.4874C163.699 10.9578 164.246 11.3263 164.851 11.5681C165.489 11.8221 166.171 11.9496 166.858 11.9435C167.286 11.9443 167.711 11.8595 168.106 11.694C168.505 11.5273 168.88 11.308 169.22 11.042C169.882 10.522 170.423 9.86443 170.806 9.11481L171.675 9.66879C171.414 10.0919 171.114 10.4894 170.778 10.8561C170.04 11.6636 169.095 12.2532 168.045 12.5604C167.425 12.7399 166.781 12.8266 166.136 12.8178C165.188 12.8318 164.247 12.6602 163.366 12.3128C162.573 11.9966 161.849 11.5285 161.235 10.9348C160.645 10.3587 160.178 9.66832 159.864 8.90593C159.539 8.12922 159.374 7.29502 159.379 6.45322C159.374 5.61136 159.539 4.77719 159.864 4.00039C160.189 3.22359 160.667 2.52006 161.269 1.93169C161.678 1.52933 162.138 1.18318 162.639 0.902413C163.163 0.608501 163.724 0.384608 164.307 0.236428C164.938 0.0757506 165.588 -0.00361069 166.239 0.000291899C166.852 -0.00578513 167.461 0.0830594 168.046 0.263663C169.085 0.586065 170.022 1.17253 170.766 1.9656C171.108 2.32939 171.413 2.72723 171.674 3.15289L170.778 3.74321C170.381 2.89391 169.792 2.14882 169.056 1.56721C168.42 1.10711 167.652 0.865377 166.866 0.878208C166.185 0.872672 165.509 1.00467 164.88 1.2663C164.27 1.51942 163.72 1.89749 163.265 2.3761C162.79 2.88036 162.422 3.47559 162.184 4.12585C161.912 4.86981 161.778 5.65746 161.79 6.44959" fill="#2E2E2E"/>
<path d="M182.328 0.280029V1.07571H175.862V5.455H180.189V6.24887H175.862V11.7369H182.325V12.5326H173.801V0.280029H182.328Z" fill="#2E2E2E"/>
<path d="M198.858 11.6365H201.05C201.716 11.6409 202.378 11.5253 203.003 11.2951C203.602 11.0742 204.146 10.7274 204.599 10.2782C205.068 9.80595 205.433 9.24158 205.672 8.62089C205.947 7.89321 206.081 7.11967 206.065 6.34193C206.073 5.63081 205.948 4.92448 205.695 4.2597C205.462 3.65265 205.11 3.09865 204.658 2.63085C204.209 2.17038 203.668 1.8082 203.071 1.56733C202.432 1.30999 201.748 1.18122 201.059 1.18841H198.857L198.858 11.6365ZM196.797 0.283487H200.886C201.979 0.264457 203.07 0.381781 204.134 0.632742C204.967 0.829762 205.742 1.21611 206.4 1.76164C207.064 2.31608 207.596 3.00993 207.959 3.79363C208.313 4.58028 208.491 5.43429 208.482 6.29654C208.487 7.12877 208.329 7.95393 208.015 8.725C207.708 9.47737 207.24 10.154 206.645 10.708C205.999 11.2975 205.241 11.7505 204.416 12.0396C203.439 12.3815 202.41 12.5475 201.376 12.5299H196.796L196.797 0.283487Z" fill="#2E2E2E"/>
<path d="M136.979 7.76102H142.391L139.724 3.01729L136.979 7.76102ZM140.688 0.280029L147.593 12.5326H145.08L142.845 8.53661H136.549L134.236 12.5326H132.996L140.068 0.280029H140.688Z" fill="#2E2E2E"/>
<path d="M193.659 9.24344H193.752V0.286377H194.662V12.5327H193.934L185.475 2.86033H185.401V12.5315H184.468V0.286377H185.625L193.659 9.24344Z" fill="#2E2E2E"/>
<path d="M137.908 16.4438V22.0198H137.18V19.4918H134.34V22.0198H133.612V16.4438H134.34V18.8918H137.18V16.4438H137.908ZM143.151 19.6598C143.151 19.7984 143.143 19.9451 143.127 20.0998H139.623C139.649 20.5318 139.796 20.8704 140.063 21.1158C140.335 21.3558 140.663 21.4758 141.047 21.4758C141.361 21.4758 141.623 21.4038 141.831 21.2598C142.044 21.1104 142.193 20.9131 142.279 20.6678H143.063C142.945 21.0891 142.711 21.4331 142.359 21.6998C142.007 21.9611 141.569 22.0918 141.047 22.0918C140.631 22.0918 140.257 21.9984 139.927 21.8118C139.601 21.6251 139.345 21.3611 139.159 21.0198C138.972 20.6731 138.879 20.2731 138.879 19.8198C138.879 19.3664 138.969 18.9691 139.151 18.6278C139.332 18.2864 139.585 18.0251 139.911 17.8438C140.241 17.6571 140.62 17.5638 141.047 17.5638C141.463 17.5638 141.831 17.6544 142.151 17.8358C142.471 18.0171 142.716 18.2678 142.887 18.5878C143.063 18.9024 143.151 19.2598 143.151 19.6598ZM142.399 19.5078C142.399 19.2304 142.337 18.9931 142.215 18.7958C142.092 18.5931 141.924 18.4411 141.711 18.3398C141.503 18.2331 141.271 18.1798 141.015 18.1798C140.647 18.1798 140.332 18.2971 140.071 18.5318C139.815 18.7664 139.668 19.0918 139.631 19.5078H142.399ZM143.84 19.8118C143.84 19.3638 143.93 18.9718 144.112 18.6358C144.293 18.2944 144.541 18.0304 144.856 17.8438C145.176 17.6571 145.53 17.5638 145.92 17.5638C146.304 17.5638 146.637 17.6464 146.92 17.8118C147.202 17.9771 147.413 18.1851 147.552 18.4358V17.6358H148.288V22.0198H147.552V21.2038C147.408 21.4598 147.192 21.6731 146.904 21.8438C146.621 22.0091 146.29 22.0918 145.912 22.0918C145.522 22.0918 145.17 21.9958 144.856 21.8038C144.541 21.6118 144.293 21.3424 144.112 20.9958C143.93 20.6491 143.84 20.2544 143.84 19.8118ZM147.552 19.8198C147.552 19.4891 147.485 19.2011 147.352 18.9558C147.218 18.7104 147.037 18.5238 146.808 18.3958C146.584 18.2624 146.336 18.1958 146.064 18.1958C145.792 18.1958 145.544 18.2598 145.32 18.3878C145.096 18.5158 144.917 18.7024 144.784 18.9478C144.65 19.1931 144.584 19.4811 144.584 19.8118C144.584 20.1478 144.65 20.4411 144.784 20.6918C144.917 20.9371 145.096 21.1264 145.32 21.2598C145.544 21.3878 145.792 21.4518 146.064 21.4518C146.336 21.4518 146.584 21.3878 146.808 21.2598C147.037 21.1264 147.218 20.9371 147.352 20.6918C147.485 20.4411 147.552 20.1504 147.552 19.8198ZM150.246 16.0998V22.0198H149.518V16.0998H150.246ZM152.375 18.2358V20.8198C152.375 21.0331 152.42 21.1851 152.511 21.2758C152.601 21.3611 152.759 21.4038 152.983 21.4038H153.519V22.0198H152.863C152.457 22.0198 152.153 21.9264 151.951 21.7398C151.748 21.5531 151.647 21.2464 151.647 20.8198V18.2358H151.079V17.6358H151.647V16.5318H152.375V17.6358H153.519V18.2358H152.375ZM156.577 17.5558C156.907 17.5558 157.206 17.6278 157.473 17.7718C157.739 17.9104 157.947 18.1211 158.097 18.4038C158.251 18.6864 158.329 19.0304 158.329 19.4358V22.0198H157.609V19.5398C157.609 19.1024 157.499 18.7691 157.281 18.5398C157.062 18.3051 156.763 18.1878 156.385 18.1878C156.001 18.1878 155.694 18.3078 155.465 18.5478C155.241 18.7878 155.129 19.1371 155.129 19.5958V22.0198H154.401V16.0998H155.129V18.2598C155.273 18.0358 155.47 17.8624 155.721 17.7398C155.977 17.6171 156.262 17.5558 156.577 17.5558ZM159.246 19.8198C159.246 19.3664 159.337 18.9718 159.518 18.6358C159.699 18.2944 159.95 18.0304 160.27 17.8438C160.595 17.6571 160.966 17.5638 161.382 17.5638C161.921 17.5638 162.363 17.6944 162.71 17.9558C163.062 18.2171 163.294 18.5798 163.406 19.0438H162.622C162.547 18.7771 162.401 18.5664 162.182 18.4118C161.969 18.2571 161.702 18.1798 161.382 18.1798C160.966 18.1798 160.63 18.3238 160.374 18.6118C160.118 18.8944 159.99 19.2971 159.99 19.8198C159.99 20.3478 160.118 20.7558 160.374 21.0438C160.63 21.3318 160.966 21.4758 161.382 21.4758C161.702 21.4758 161.969 21.4011 162.182 21.2518C162.395 21.1024 162.542 20.8891 162.622 20.6118H163.406C163.289 21.0598 163.054 21.4198 162.702 21.6918C162.35 21.9584 161.91 22.0918 161.382 22.0918C160.966 22.0918 160.595 21.9984 160.27 21.8118C159.95 21.6251 159.699 21.3611 159.518 21.0198C159.337 20.6784 159.246 20.2784 159.246 19.8198ZM164.105 19.8118C164.105 19.3638 164.196 18.9718 164.377 18.6358C164.559 18.2944 164.807 18.0304 165.121 17.8438C165.441 17.6571 165.796 17.5638 166.185 17.5638C166.569 17.5638 166.903 17.6464 167.185 17.8118C167.468 17.9771 167.679 18.1851 167.817 18.4358V17.6358H168.553V22.0198H167.817V21.2038C167.673 21.4598 167.457 21.6731 167.169 21.8438C166.887 22.0091 166.556 22.0918 166.177 22.0918C165.788 22.0918 165.436 21.9958 165.121 21.8038C164.807 21.6118 164.559 21.3424 164.377 20.9958C164.196 20.6491 164.105 20.2544 164.105 19.8118ZM167.817 19.8198C167.817 19.4891 167.751 19.2011 167.617 18.9558C167.484 18.7104 167.303 18.5238 167.073 18.3958C166.849 18.2624 166.601 18.1958 166.329 18.1958C166.057 18.1958 165.809 18.2598 165.585 18.3878C165.361 18.5158 165.183 18.7024 165.049 18.9478C164.916 19.1931 164.849 19.4811 164.849 19.8118C164.849 20.1478 164.916 20.4411 165.049 20.6918C165.183 20.9371 165.361 21.1264 165.585 21.2598C165.809 21.3878 166.057 21.4518 166.329 21.4518C166.601 21.4518 166.849 21.3878 167.073 21.2598C167.303 21.1264 167.484 20.9371 167.617 20.6918C167.751 20.4411 167.817 20.1504 167.817 19.8198ZM170.511 18.3478C170.639 18.0971 170.821 17.9024 171.055 17.7638C171.295 17.6251 171.586 17.5558 171.927 17.5558V18.3078H171.735C170.919 18.3078 170.511 18.7504 170.511 19.6358V22.0198H169.783V17.6358H170.511V18.3478ZM176.768 19.6598C176.768 19.7984 176.76 19.9451 176.744 20.0998H173.24C173.267 20.5318 173.413 20.8704 173.68 21.1158C173.952 21.3558 174.28 21.4758 174.664 21.4758C174.979 21.4758 175.24 21.4038 175.448 21.2598C175.661 21.1104 175.811 20.9131 175.896 20.6678H176.68C176.563 21.0891 176.328 21.4331 175.976 21.6998C175.624 21.9611 175.187 22.0918 174.664 22.0918C174.248 22.0918 173.875 21.9984 173.544 21.8118C173.219 21.6251 172.963 21.3611 172.776 21.0198C172.589 20.6731 172.496 20.2731 172.496 19.8198C172.496 19.3664 172.587 18.9691 172.768 18.6278C172.949 18.2864 173.203 18.0251 173.528 17.8438C173.859 17.6571 174.237 17.5638 174.664 17.5638C175.08 17.5638 175.448 17.6544 175.768 17.8358C176.088 18.0171 176.333 18.2678 176.504 18.5878C176.68 18.9024 176.768 19.2598 176.768 19.6598ZM176.016 19.5078C176.016 19.2304 175.955 18.9931 175.832 18.7958C175.709 18.5931 175.541 18.4411 175.328 18.3398C175.12 18.2331 174.888 18.1798 174.632 18.1798C174.264 18.1798 173.949 18.2971 173.688 18.5318C173.432 18.7664 173.285 19.0918 173.248 19.5078H176.016ZM181.63 22.0758C181.262 22.0758 180.931 22.0118 180.638 21.8838C180.35 21.7504 180.123 21.5691 179.958 21.3398C179.792 21.1051 179.707 20.8358 179.702 20.5318H180.478C180.504 20.7931 180.611 21.0144 180.798 21.1958C180.99 21.3718 181.267 21.4598 181.63 21.4598C181.976 21.4598 182.248 21.3744 182.446 21.2038C182.648 21.0278 182.75 20.8038 182.75 20.5318C182.75 20.3184 182.691 20.1451 182.574 20.0118C182.456 19.8784 182.31 19.7771 182.134 19.7078C181.958 19.6384 181.72 19.5638 181.422 19.4838C181.054 19.3878 180.758 19.2918 180.534 19.1958C180.315 19.0998 180.126 18.9504 179.966 18.7478C179.811 18.5398 179.734 18.2624 179.734 17.9158C179.734 17.6118 179.811 17.3424 179.966 17.1078C180.12 16.8731 180.336 16.6918 180.614 16.5638C180.896 16.4358 181.219 16.3718 181.582 16.3718C182.104 16.3718 182.531 16.5024 182.862 16.7638C183.198 17.0251 183.387 17.3718 183.43 17.8038H182.63C182.603 17.5904 182.491 17.4038 182.294 17.2438C182.096 17.0784 181.835 16.9958 181.51 16.9958C181.206 16.9958 180.958 17.0758 180.766 17.2358C180.574 17.3904 180.478 17.6091 180.478 17.8918C180.478 18.0944 180.534 18.2598 180.646 18.3878C180.763 18.5158 180.904 18.6144 181.07 18.6838C181.24 18.7478 181.478 18.8224 181.782 18.9078C182.15 19.0091 182.446 19.1104 182.67 19.2118C182.894 19.3078 183.086 19.4598 183.246 19.6678C183.406 19.8704 183.486 20.1478 183.486 20.4998C183.486 20.7718 183.414 21.0278 183.27 21.2678C183.126 21.5078 182.912 21.7024 182.63 21.8518C182.347 22.0011 182.014 22.0758 181.63 22.0758ZM186.469 22.0918C186.058 22.0918 185.685 21.9984 185.349 21.8118C185.018 21.6251 184.757 21.3611 184.565 21.0198C184.378 20.6731 184.285 20.2731 184.285 19.8198C184.285 19.3718 184.381 18.9771 184.573 18.6358C184.77 18.2891 185.037 18.0251 185.373 17.8438C185.709 17.6571 186.085 17.5638 186.501 17.5638C186.917 17.5638 187.293 17.6571 187.629 17.8438C187.965 18.0251 188.229 18.2864 188.421 18.6278C188.618 18.9691 188.717 19.3664 188.717 19.8198C188.717 20.2731 188.616 20.6731 188.413 21.0198C188.216 21.3611 187.946 21.6251 187.605 21.8118C187.264 21.9984 186.885 22.0918 186.469 22.0918ZM186.469 21.4518C186.73 21.4518 186.976 21.3904 187.205 21.2678C187.434 21.1451 187.618 20.9611 187.757 20.7158C187.901 20.4704 187.973 20.1718 187.973 19.8198C187.973 19.4678 187.904 19.1691 187.765 18.9238C187.626 18.6784 187.445 18.4971 187.221 18.3798C186.997 18.2571 186.754 18.1958 186.493 18.1958C186.226 18.1958 185.981 18.2571 185.757 18.3798C185.538 18.4971 185.362 18.6784 185.229 18.9238C185.096 19.1691 185.029 19.4678 185.029 19.8198C185.029 20.1771 185.093 20.4784 185.221 20.7238C185.354 20.9691 185.53 21.1531 185.749 21.2758C185.968 21.3931 186.208 21.4518 186.469 21.4518ZM190.402 16.0998V22.0198H189.674V16.0998H190.402ZM195.531 17.6358V22.0198H194.803V21.3718C194.664 21.5958 194.47 21.7718 194.219 21.8998C193.974 22.0224 193.702 22.0838 193.403 22.0838C193.062 22.0838 192.755 22.0144 192.483 21.8758C192.211 21.7318 191.995 21.5184 191.835 21.2358C191.68 20.9531 191.603 20.6091 191.603 20.2038V17.6358H192.323V20.1078C192.323 20.5398 192.432 20.8731 192.651 21.1078C192.87 21.3371 193.168 21.4518 193.547 21.4518C193.936 21.4518 194.243 21.3318 194.467 21.0918C194.691 20.8518 194.803 20.5024 194.803 20.0438V17.6358H195.531ZM197.648 18.2358V20.8198C197.648 21.0331 197.693 21.1851 197.784 21.2758C197.875 21.3611 198.032 21.4038 198.256 21.4038H198.792V22.0198H198.136C197.731 22.0198 197.427 21.9264 197.224 21.7398C197.021 21.5531 196.92 21.2464 196.92 20.8198V18.2358H196.352V17.6358H196.92V16.5318H197.648V17.6358H198.792V18.2358H197.648ZM200.05 16.9238C199.911 16.9238 199.794 16.8758 199.698 16.7798C199.602 16.6838 199.554 16.5664 199.554 16.4278C199.554 16.2891 199.602 16.1718 199.698 16.0758C199.794 15.9798 199.911 15.9318 200.05 15.9318C200.183 15.9318 200.295 15.9798 200.386 16.0758C200.482 16.1718 200.53 16.2891 200.53 16.4278C200.53 16.5664 200.482 16.6838 200.386 16.7798C200.295 16.8758 200.183 16.9238 200.05 16.9238ZM200.402 17.6358V22.0198H199.674V17.6358H200.402ZM203.555 22.0918C203.144 22.0918 202.771 21.9984 202.435 21.8118C202.104 21.6251 201.843 21.3611 201.651 21.0198C201.464 20.6731 201.371 20.2731 201.371 19.8198C201.371 19.3718 201.467 18.9771 201.659 18.6358C201.856 18.2891 202.123 18.0251 202.459 17.8438C202.795 17.6571 203.171 17.5638 203.587 17.5638C204.003 17.5638 204.379 17.6571 204.715 17.8438C205.051 18.0251 205.315 18.2864 205.507 18.6278C205.704 18.9691 205.803 19.3664 205.803 19.8198C205.803 20.2731 205.702 20.6731 205.499 21.0198C205.302 21.3611 205.032 21.6251 204.691 21.8118C204.35 21.9984 203.971 22.0918 203.555 22.0918ZM203.555 21.4518C203.816 21.4518 204.062 21.3904 204.291 21.2678C204.52 21.1451 204.704 20.9611 204.843 20.7158C204.987 20.4704 205.059 20.1718 205.059 19.8198C205.059 19.4678 204.99 19.1691 204.851 18.9238C204.712 18.6784 204.531 18.4971 204.307 18.3798C204.083 18.2571 203.84 18.1958 203.579 18.1958C203.312 18.1958 203.067 18.2571 202.843 18.3798C202.624 18.4971 202.448 18.6784 202.315 18.9238C202.182 19.1691 202.115 19.4678 202.115 19.8198C202.115 20.1771 202.179 20.4784 202.307 20.7238C202.44 20.9691 202.616 21.1531 202.835 21.2758C203.054 21.3931 203.294 21.4518 203.555 21.4518ZM208.896 17.5558C209.429 17.5558 209.861 17.7184 210.192 18.0438C210.523 18.3638 210.688 18.8278 210.688 19.4358V22.0198H209.968V19.5398C209.968 19.1024 209.859 18.7691 209.64 18.5398C209.421 18.3051 209.123 18.1878 208.744 18.1878C208.36 18.1878 208.053 18.3078 207.824 18.5478C207.6 18.7878 207.488 19.1371 207.488 19.5958V22.0198H206.76V17.6358H207.488V18.2598C207.632 18.0358 207.827 17.8624 208.072 17.7398C208.323 17.6171 208.597 17.5558 208.896 17.5558ZM213.429 22.0918C213.093 22.0918 212.792 22.0358 212.525 21.9238C212.259 21.8064 212.048 21.6464 211.893 21.4438C211.739 21.2358 211.653 20.9984 211.637 20.7318H212.389C212.411 20.9504 212.512 21.1291 212.693 21.2678C212.88 21.4064 213.123 21.4758 213.421 21.4758C213.699 21.4758 213.917 21.4144 214.077 21.2918C214.237 21.1691 214.317 21.0144 214.317 20.8278C214.317 20.6358 214.232 20.4944 214.061 20.4038C213.891 20.3078 213.627 20.2144 213.269 20.1238C212.944 20.0384 212.677 19.9531 212.469 19.8678C212.267 19.7771 212.091 19.6464 211.941 19.4758C211.797 19.2998 211.725 19.0704 211.725 18.7878C211.725 18.5638 211.792 18.3584 211.925 18.1718C212.059 17.9851 212.248 17.8384 212.493 17.7318C212.739 17.6198 213.019 17.5638 213.333 17.5638C213.819 17.5638 214.211 17.6864 214.509 17.9318C214.808 18.1771 214.968 18.5131 214.989 18.9398H214.261C214.245 18.7104 214.152 18.5264 213.981 18.3878C213.816 18.2491 213.592 18.1798 213.309 18.1798C213.048 18.1798 212.84 18.2358 212.685 18.3478C212.531 18.4598 212.453 18.6064 212.453 18.7878C212.453 18.9318 212.499 19.0518 212.589 19.1478C212.685 19.2384 212.803 19.3131 212.941 19.3718C213.085 19.4251 213.283 19.4864 213.533 19.5558C213.848 19.6411 214.104 19.7264 214.301 19.8118C214.499 19.8918 214.667 20.0144 214.805 20.1798C214.949 20.3451 215.024 20.5611 215.029 20.8278C215.029 21.0678 214.963 21.2838 214.829 21.4758C214.696 21.6678 214.507 21.8198 214.261 21.9318C214.021 22.0384 213.744 22.0918 213.429 22.0918Z" fill="#7C7C7C"/>
<path d="M107 21.9996H108.682C111.883 21.6748 110.177 21.6893 113.578 20.0386C115.137 19.2825 116.255 16.8453 118.574 15.8792C124.343 13.477 123.601 14.8132 126.256 14.8132C122.695 11.9373 121.584 13.0701 118.926 13.3494C117.228 13.5271 115.79 12.1552 115.855 10.683C115.918 9.27545 117.642 8.03005 119.031 7.74994L115.171 7.71143L107 21.9996Z" fill="url(#paint0_linear_142_5224)"/>
<path d="M112.808 11.8428C115.489 8.66976 118.538 7.60913 120.214 7.60913C122.209 7.60913 123.906 8.80982 125.106 10.0601L119.467 0.199219L112.808 11.8428Z" fill="url(#paint1_linear_142_5224)"/>
<path d="M108.235 22.0002C115.489 22.0002 115.526 16.4605 119.467 16.4605C123.407 16.4605 123.445 22.0002 130.698 22.0002H131.934C131.934 22.0002 128.109 14.277 123.069 13.0313C122.737 12.9483 122.397 12.9059 122.056 12.905C117.309 12.905 114.521 21.3605 108.235 21.9988" fill="url(#paint2_linear_142_5224)"/>
<path d="M7.2181 20.6841V11.0386H11.0667C11.5589 11.0386 11.9941 11.1252 12.3724 11.2983C12.7507 11.467 13.0492 11.6971 13.2679 11.9888C13.4912 12.2759 13.6576 12.5949 13.7669 12.9458C13.8809 13.2967 13.9378 13.6681 13.9378 14.0601C13.9378 14.4565 13.8809 14.8302 13.7669 15.1812C13.6576 15.5275 13.4912 15.8465 13.2679 16.1382C13.0492 16.4253 12.7507 16.6532 12.3724 16.8218C11.9941 16.9904 11.5589 17.0747 11.0667 17.0747H8.5306V20.6841H7.2181ZM8.5306 15.8511H10.9779C11.3516 15.8511 11.666 15.7622 11.9212 15.5845C12.181 15.4067 12.3633 15.188 12.4681 14.9282C12.5775 14.6639 12.6322 14.3745 12.6322 14.0601C12.6322 13.7502 12.5798 13.4631 12.4749 13.1987C12.3747 12.9344 12.2015 12.7111 11.9554 12.5288C11.7093 12.3465 11.4085 12.2554 11.0531 12.2554H8.5306V15.8511ZM15.723 19.1938C15.4131 18.6652 15.2581 18.0659 15.2581 17.396C15.2581 16.7261 15.4131 16.1313 15.723 15.6118C16.0374 15.0877 16.4522 14.689 16.9671 14.4155C17.4821 14.1421 18.0518 14.0054 18.6761 14.0054C19.3005 14.0054 19.8701 14.1421 20.3851 14.4155C20.9046 14.689 21.3216 15.0877 21.6361 15.6118C21.9505 16.1313 22.1077 16.7261 22.1077 17.396C22.1077 18.0659 21.9505 18.6652 21.6361 19.1938C21.3216 19.7225 20.9046 20.1258 20.3851 20.4038C19.8656 20.6818 19.2959 20.8208 18.6761 20.8208C18.0563 20.8208 17.4867 20.6818 16.9671 20.4038C16.4522 20.1258 16.0374 19.7225 15.723 19.1938ZM16.516 17.396C16.516 18.0477 16.7233 18.5763 17.138 18.9819C17.5573 19.3875 18.07 19.5903 18.6761 19.5903C19.2777 19.5903 19.7858 19.3875 20.2005 18.9819C20.6198 18.5763 20.8294 18.0477 20.8294 17.396C20.8294 16.7534 20.6221 16.2362 20.2074 15.8442C19.7926 15.4478 19.2822 15.2495 18.6761 15.2495C18.07 15.2495 17.5573 15.4478 17.138 15.8442C16.7233 16.2362 16.516 16.7534 16.516 17.396ZM23.3802 14.1489H24.7406L26.3744 18.7222L28.015 14.1489H29.2454L30.8861 18.7222L32.5199 14.1489H33.8802L31.4603 20.6841H30.4076L28.6302 15.8853L26.9076 20.6841H25.8685L23.3802 14.1489ZM35.1663 17.396C35.1663 16.3843 35.4854 15.5662 36.1234 14.9419C36.766 14.3175 37.5635 14.0054 38.516 14.0054C39.4593 14.0054 40.2363 14.3153 40.847 14.9351C41.4577 15.5549 41.763 16.3752 41.763 17.396C41.763 17.6375 41.7585 17.8039 41.7494 17.895H36.4447C36.5221 18.4373 36.7546 18.8703 37.1419 19.1938C37.5293 19.5174 38.001 19.6792 38.557 19.6792C38.9535 19.6792 39.3203 19.5903 39.6576 19.4126C39.9948 19.2349 40.2523 18.9865 40.43 18.6675C40.5576 18.7176 40.7536 18.7951 41.0179 18.8999C41.2822 19.0002 41.4508 19.064 41.5238 19.0913C41.2503 19.6473 40.8425 20.0757 40.3001 20.3765C39.7624 20.6727 39.1676 20.8208 38.516 20.8208C37.568 20.8208 36.7728 20.5041 36.1302 19.8706C35.4876 19.2371 35.1663 18.4123 35.1663 17.396ZM36.4447 16.9038H40.4984C40.4209 16.3615 40.2022 15.9354 39.8421 15.6255C39.4867 15.311 39.0446 15.1538 38.516 15.1538C37.9691 15.1538 37.5065 15.311 37.1283 15.6255C36.75 15.9354 36.5221 16.3615 36.4447 16.9038ZM43.8831 20.6841V14.1489H45.1546V15.6187C45.4691 14.5431 46.0752 14.0054 46.973 14.0054C47.1963 14.0054 47.415 14.0327 47.6292 14.0874C47.848 14.1375 48.0075 14.1945 48.1077 14.2583L47.9095 15.4478C47.6042 15.2974 47.2829 15.2222 46.9456 15.2222C46.54 15.2222 46.2005 15.3612 45.9271 15.6392C45.6536 15.9172 45.4554 16.2817 45.3324 16.7329C45.2139 17.1841 45.1546 17.7082 45.1546 18.3052V20.6841H43.8831ZM49.2913 17.396C49.2913 16.3843 49.6104 15.5662 50.2484 14.9419C50.891 14.3175 51.6885 14.0054 52.641 14.0054C53.5843 14.0054 54.3613 14.3153 54.972 14.9351C55.5827 15.5549 55.888 16.3752 55.888 17.396C55.888 17.6375 55.8835 17.8039 55.8744 17.895H50.5697C50.6471 18.4373 50.8796 18.8703 51.2669 19.1938C51.6543 19.5174 52.126 19.6792 52.682 19.6792C53.0785 19.6792 53.4453 19.5903 53.7826 19.4126C54.1198 19.2349 54.3773 18.9865 54.555 18.6675C54.6826 18.7176 54.8786 18.7951 55.1429 18.8999C55.4072 19.0002 55.5758 19.064 55.6488 19.0913C55.3753 19.6473 54.9675 20.0757 54.4251 20.3765C53.8874 20.6727 53.2926 20.8208 52.641 20.8208C51.693 20.8208 50.8978 20.5041 50.2552 19.8706C49.6126 19.2371 49.2913 18.4123 49.2913 17.396ZM50.5697 16.9038H54.6234C54.5459 16.3615 54.3272 15.9354 53.9671 15.6255C53.6117 15.311 53.1696 15.1538 52.641 15.1538C52.0941 15.1538 51.6315 15.311 51.2533 15.6255C50.875 15.9354 50.6471 16.3615 50.5697 16.9038ZM57.5706 17.4097C57.5706 16.7352 57.721 16.1359 58.0218 15.6118C58.3226 15.0877 58.7191 14.689 59.2113 14.4155C59.708 14.1421 60.2572 14.0054 60.8587 14.0054C61.36 14.0054 61.818 14.1034 62.2327 14.2993C62.6475 14.4907 62.9596 14.7664 63.1693 15.1265V10.5874H64.4476V20.6841H63.1693V19.6792C62.9596 20.0392 62.6429 20.3195 62.2191 20.52C61.7952 20.7205 61.3464 20.8208 60.8724 20.8208C60.2754 20.8208 59.7262 20.6841 59.2249 20.4106C58.7282 20.1326 58.3272 19.7316 58.0218 19.2075C57.721 18.6789 57.5706 18.0796 57.5706 17.4097ZM58.8763 17.396C58.8763 18.0295 59.0791 18.5513 59.4847 18.9614C59.8903 19.3716 60.3916 19.5767 60.9886 19.5767C61.5902 19.5767 62.1006 19.3807 62.5199 18.9888C62.9437 18.5923 63.1556 18.0614 63.1556 17.396C63.1556 16.9494 63.0462 16.5597 62.8275 16.2271C62.6087 15.8898 62.3376 15.6437 62.014 15.4888C61.695 15.3293 61.3532 15.2495 60.9886 15.2495C60.387 15.2495 59.8835 15.4478 59.4779 15.8442C59.0768 16.2407 58.8763 16.758 58.8763 17.396ZM71.2171 20.6841V10.5874H72.4886V15.1265C72.6982 14.7664 73.0104 14.4907 73.4251 14.2993C73.8398 14.1034 74.2933 14.0054 74.7855 14.0054C75.3916 14.0054 75.943 14.1421 76.4398 14.4155C76.9365 14.689 77.3353 15.0877 77.6361 15.6118C77.9369 16.1359 78.0872 16.7352 78.0872 17.4097C78.0872 18.0796 77.9346 18.6789 77.6292 19.2075C77.3239 19.7316 76.9206 20.1326 76.4193 20.4106C75.918 20.6841 75.3688 20.8208 74.7718 20.8208C74.2979 20.8208 73.8512 20.7205 73.432 20.52C73.0127 20.3195 72.6982 20.0392 72.4886 19.6792V20.6841H71.2171ZM72.5023 17.396C72.5023 18.0659 72.7119 18.5968 73.1312 18.9888C73.555 19.3807 74.07 19.5767 74.6761 19.5767C75.2731 19.5767 75.7744 19.3716 76.18 18.9614C76.5856 18.5513 76.7884 18.0295 76.7884 17.396C76.7884 16.758 76.5856 16.2407 76.18 15.8442C75.779 15.4478 75.2777 15.2495 74.6761 15.2495C74.4072 15.2495 74.1452 15.2974 73.89 15.3931C73.6348 15.4842 73.4023 15.6187 73.1927 15.7964C72.9876 15.9696 72.8213 16.1951 72.6937 16.4731C72.5661 16.7511 72.5023 17.0588 72.5023 17.396ZM79.3119 14.1489H80.6722L82.6273 18.8794L84.5892 14.1489H85.9495L81.889 23.8628H80.556L81.93 20.4858L79.3119 14.1489Z" fill="#2E2E2E"/>
<defs>
<linearGradient id="paint0_linear_142_5224" x1="111.387" y1="13.1891" x2="117.081" y2="17.3882" gradientUnits="userSpaceOnUse">
<stop stop-color="#002E6E"/>
<stop offset="1" stop-color="#0092D5"/>
</linearGradient>
<linearGradient id="paint1_linear_142_5224" x1="120.821" y1="0.764005" x2="111.768" y2="10.8814" gradientUnits="userSpaceOnUse">
<stop stop-color="#002E6E"/>
<stop offset="1" stop-color="#0092D5"/>
</linearGradient>
<linearGradient id="paint2_linear_142_5224" x1="115.926" y1="15.7875" x2="131.201" y2="20.9199" gradientUnits="userSpaceOnUse">
<stop stop-color="#002E6E"/>
<stop offset="1" stop-color="#0092D5"/>
</linearGradient>
</defs>
</svg>
