  <svg
    width="20"
    height="21"
    viewBox="0 0 20 21"
    fill="none"
    xmlns="http://www.w3.org/2000/svg"
  >
    <mask
      id="mask0_1567_100589"
      style="mask-type:alpha"
      maskUnits="userSpaceOnUse"
      x="0"
      y="0"
      width="20"
      height="21"
    >
      <rect y="0.928711" width="20" height="20" fill="#D9D9D9" />
    </mask>
    <g mask="url(#mask0_1567_100589)">
      <path
        d="M13.0247 14.2459C12.8997 14.107 12.8372 13.9543 12.8372 13.7876C12.8372 13.6209 12.8997 13.4751 13.0247 13.3501L14.6081 11.7668H8.23307C8.05252 11.7668 7.90335 11.7076 7.78557 11.5893C7.66724 11.4715 7.60807 11.3223 7.60807 11.1418C7.60807 10.9612 7.66724 10.8118 7.78557 10.6934C7.90335 10.5757 8.05252 10.5168 8.23307 10.5168H14.6081L13.0247 8.9126C12.8997 8.7876 12.8372 8.64177 12.8372 8.4751C12.8372 8.30843 12.8997 8.1626 13.0247 8.0376C13.1497 7.9126 13.2956 7.8501 13.4622 7.8501C13.6289 7.8501 13.7678 7.90565 13.8789 8.01677L16.4831 10.6209C16.5525 10.6904 16.6047 10.7701 16.6397 10.8601C16.6742 10.9507 16.6914 11.0445 16.6914 11.1418C16.6914 11.239 16.6742 11.3326 16.6397 11.4226C16.6047 11.5132 16.5525 11.5932 16.4831 11.6626L13.8789 14.2668C13.7539 14.4057 13.6117 14.4682 13.4522 14.4543C13.2922 14.4404 13.1497 14.3709 13.0247 14.2459ZM4.50391 18.4334C4.08724 18.4334 3.73307 18.2876 3.44141 17.9959C3.14974 17.7043 3.00391 17.3501 3.00391 16.9334V5.3501C3.00391 4.93343 3.14974 4.57926 3.44141 4.2876C3.73307 3.99593 4.08724 3.8501 4.50391 3.8501H9.48307C9.64974 3.8501 9.79557 3.90899 9.92057 4.02676C10.0456 4.1451 10.1081 4.29454 10.1081 4.4751C10.1081 4.65565 10.0456 4.80482 9.92057 4.9226C9.79557 5.04093 9.64974 5.1001 9.48307 5.1001H4.50391C4.44835 5.1001 4.39279 5.12788 4.33724 5.18343C4.28168 5.23899 4.25391 5.29454 4.25391 5.3501V16.9334C4.25391 16.989 4.28168 17.0445 4.33724 17.1001C4.39279 17.1557 4.44835 17.1834 4.50391 17.1834H9.48307C9.64974 17.1834 9.79557 17.2423 9.92057 17.3601C10.0456 17.4784 10.1081 17.6279 10.1081 17.8084C10.1081 17.989 10.0456 18.1384 9.92057 18.2568C9.79557 18.3745 9.64974 18.4334 9.48307 18.4334H4.50391Z"
        fill="#6E6B7B"
      />
    </g>
  </svg>