<?xml version="1.0" encoding="UTF-8" standalone="no"?><!DOCTYPE svg PUBLIC "-//W3C//DTD SVG 1.1//EN" "http://www.w3.org/Graphics/SVG/1.1/DTD/svg11.dtd"><svg width="100%" height="100%" viewBox="0 0 900 571" version="1.1" xmlns="http://www.w3.org/2000/svg" xmlns:xlink="http://www.w3.org/1999/xlink" xml:space="preserve" xmlns:serif="http://www.serif.com/" style="fill-rule:evenodd;clip-rule:evenodd;stroke-linejoin:round;stroke-miterlimit:2;"><g><path d="M677.817,351.54c-9.417,5.683 -18.905,11.963 -23.83,15.379c-15.329,10.659 -30.804,21.896 -46.254,33.613c-68.25,51.712 -135.808,112.329 -187.458,170.379l-123.213,-0c0,-0 301.58,-260.267 440.03,-280.213c123.37,-17.771 171.216,71.446 161.05,167.517c1.25,-11.787 1.066,-23.792 -0.73,-34.462c-4.337,-25.717 -15.32,-46.809 -30.329,-63.23c-12.158,-13.3 -27.275,-25.075 -47.525,-32.733c-17.441,-6.587 -36.291,-9.587 -56.575,-7.704c0,-0 -35.487,1.462 -85.166,31.454" style="fill:#9b945f;"/><path d="M221.646,351.54c9.421,5.683 18.904,11.963 23.825,15.379c15.338,10.659 30.817,21.896 46.258,33.613c68.255,51.712 135.813,112.329 187.459,170.379l123.2,-0c-0,-0 -301.567,-260.267 -440.009,-280.213c-123.383,-17.771 -171.237,71.446 -161.05,167.517c-1.258,-11.787 -1.07,-23.792 0.717,-34.462c4.35,-25.717 15.329,-46.809 30.325,-63.23c12.171,-13.3 27.279,-25.075 47.542,-32.733c17.425,-6.587 36.287,-9.587 56.566,-7.704c0,-0 35.492,1.462 85.167,31.454" style="fill:#9b945f;"/><path d="M193.922,416.258l-42.046,-42.025l-36.9,36.942l-36.942,-36.942l-42.054,42.025l42.054,42.025l36.942,-36.925l36.9,36.925l42.046,-42.025Z" style="fill:#008755;fill-rule:nonzero;"/><path d="M642.468,103.379c-3.204,-7.483 -7.096,-14.821 -11.662,-21.883c-38.104,-59.042 -110.9,-82.183 -174.467,-59.917c-3.729,-13.637 -6.65,-21.579 -6.65,-21.579c0,0 -2.975,7.942 -6.687,21.579c-63.525,-22.266 -136.321,0.875 -174.446,59.917c-4.554,7.062 -8.45,14.4 -11.659,21.883c26.796,-29.458 63.7,-46.154 101.85,-48.341c-35.387,27.291 -58.22,70.087 -58.22,118.22c-0,8.438 0.695,16.705 2.058,24.73c7.292,-43.521 33.45,-80.63 69.717,-102.721c-22.913,45.654 -21.855,101.966 7.866,148.016c4.596,7.08 9.667,13.625 15.167,19.655c-24.775,-57.292 -10.933,-124.321 34.275,-167.134c-1.025,11.109 -1.654,22.784 -1.654,34.829c-0,72.167 21.733,130.638 21.733,130.638c0,-0 21.704,-58.471 21.704,-130.638c0,-12.045 -0.591,-23.72 -1.621,-34.829c45.184,42.813 59.046,109.842 34.25,167.134c5.521,-6.03 10.588,-12.575 15.159,-19.655c29.721,-46.05 30.8,-102.362 7.858,-148.016c36.321,22.091 62.479,59.2 69.746,102.721c1.35,-8.025 2.042,-16.292 2.042,-24.73c-0,-48.133 -22.842,-90.929 -58.225,-118.22c38.162,2.187 75.037,18.883 101.866,48.341" style="fill:#008755;fill-rule:nonzero;"/><path d="M298.762,348.697c0,0 107.255,-154.746 295.734,45.988c177.525,189.037 244.096,157.166 294.591,97.108c0,-0 -2.712,7.354 -7.229,14.442c-3.504,5.491 -5.554,8.625 -6.275,9.604c-25.091,33.691 -60.933,54.612 -105.041,55.075c-56.53,0.583 -126.655,-33.317 -205.146,-120.096c-174.704,-193.058 -266.634,-102.121 -266.634,-102.121" style="fill:#008755;"/></g></svg>