<svg width="26" height="26" viewBox="0 0 26 26" fill="none" xmlns="http://www.w3.org/2000/svg">
<circle cx="13" cy="13" r="12.5" transform="rotate(-90 13 13)" fill="#10A945" stroke="#10A945"/>
<path d="M18.5128 11.3436L13.5646 16.2919C13.514 16.3425 13.4634 16.3779 13.4128 16.3981C13.3622 16.4183 13.3065 16.4285 13.2458 16.4285C13.1851 16.4285 13.1294 16.4183 13.0789 16.3981C13.0283 16.3779 12.9777 16.3425 12.9271 16.2919L7.96367 11.3285C7.89284 11.2576 7.85742 11.1767 7.85742 11.0856C7.85742 10.9945 7.8979 10.9085 7.97885 10.8276C8.04968 10.7567 8.1357 10.7213 8.23689 10.7213C8.33808 10.7213 8.42409 10.7567 8.49492 10.8276L13.2458 15.5785L18.0119 10.8124C18.0827 10.7416 18.1637 10.7061 18.2547 10.7061C18.3458 10.7061 18.4318 10.7466 18.5128 10.8276C18.5836 10.8984 18.619 10.9844 18.619 11.0856C18.619 11.1868 18.5836 11.2728 18.5128 11.3436Z" fill="white"/>
</svg>
