<svg width="28" height="32" viewBox="0 0 28 32" fill="none" xmlns="http://www.w3.org/2000/svg">
<path d="M26.0947 25.0879H24.6025V11.3407C24.6025 10.7074 24.5332 10.0741 24.3964 9.45825C24.2317 8.717 23.4984 8.24975 22.7571 8.41431C22.0163 8.57912 21.5493 9.31363 21.714 10.0549C21.8057 10.4676 21.8546 10.9115 21.8546 11.3407V25.0879L6.08356 25.088V11.4309C6.08356 8.38875 8.65812 5.62356 11.8227 5.26694C11.8272 5.26644 11.8316 5.26562 11.8361 5.26506C12.5091 5.18325 13.0367 4.59319 13.0426 3.914C13.0426 3.9095 13.0429 3.90506 13.0429 3.90056C13.0429 3.26619 13.5575 2.75 14.1901 2.75C14.8227 2.75 15.3374 3.26612 15.3374 3.90069C15.3374 4.55975 15.8576 5.16475 16.5102 5.26069C17.2388 5.36862 17.9399 5.60462 18.5939 5.96219C18.8031 6.07656 19.0288 6.13081 19.2514 6.13081C19.7376 6.13081 20.2088 5.87188 20.4584 5.41475C20.8222 4.74831 20.5772 3.91294 19.9114 3.54888C19.2737 3.20025 18.6041 2.93225 17.9113 2.74719C17.4191 1.15775 15.9371 0 14.1901 0C12.4557 0 10.9831 1.14125 10.4802 2.71294C8.70975 3.1255 7.07112 4.06819 5.78537 5.42975C4.20563 7.10281 3.33562 9.23406 3.33562 11.4309V25.0881H1.90519C1.14638 25.0881 0.53125 25.7037 0.53125 26.4631C0.53125 27.2224 1.14638 27.8381 1.90519 27.8381H9.5225C9.69469 30.1617 11.6363 32 13.9999 32C16.3636 32 18.3053 30.1616 18.4774 27.838H26.0947C26.8536 27.838 27.4687 27.2224 27.4687 26.463C27.4687 25.7036 26.8536 25.0879 26.0947 25.0879ZM13.9999 29.25C13.1532 29.25 12.4457 28.6416 12.2891 27.838H15.7107C15.5541 28.6416 14.8467 29.25 13.9999 29.25Z" fill="#717579"/>
</svg>
