<svg width="109" height="22" viewBox="0 0 109 22" fill="none" xmlns="http://www.w3.org/2000/svg">
<path d="M0.858887 21.9998H2.55997C5.79743 21.675 4.07204 21.6896 7.51174 20.039C9.08781 19.283 10.2186 16.846 12.5648 15.88C18.3987 13.478 17.648 14.8141 20.3333 14.8141C16.7322 11.9384 15.6081 13.0711 12.9198 13.3504C11.2028 13.5281 9.74908 12.1562 9.81469 10.6842C9.87814 9.27678 11.6219 8.03149 13.026 7.7514L9.12265 7.71289L0.858887 21.9998Z" fill="#6B758A"/>
<path d="M6.73389 11.8437C9.44509 8.67099 12.5284 7.61044 14.2235 7.61044C16.2411 7.61044 17.9578 8.81103 19.1718 10.0612L13.468 0.201172L6.73389 11.8437Z" fill="#6B758A"/>
<path d="M2.10791 21.9999C9.44417 21.9999 9.48143 16.4607 13.4671 16.4607C17.4528 16.4607 17.4903 21.9999 24.8263 21.9999H26.0765C26.0765 21.9999 22.208 14.2774 17.1101 13.0318C16.775 12.9488 16.431 12.9064 16.0857 12.9055C11.2846 12.9055 8.46564 21.3602 2.10818 21.9985" fill="#6B758A"/>
<path d="M28.4781 15.9055C28.4757 15.8695 28.4808 15.8335 28.4929 15.7995C28.5051 15.7655 28.5241 15.7344 28.5488 15.7081C28.5735 15.6818 28.6033 15.6608 28.6365 15.6464C28.6697 15.6321 28.7054 15.6247 28.7416 15.6247C28.7777 15.6247 28.8135 15.6321 28.8467 15.6464C28.8798 15.6608 28.9097 15.6818 28.9344 15.7081C28.9591 15.7344 28.9781 15.7655 28.9902 15.7995C29.0024 15.8335 29.0074 15.8695 29.005 15.9055V18.4323C29.005 18.4682 29.0219 18.4903 29.0585 18.4903H32.1438C32.1833 18.4903 32.2101 18.4711 32.2101 18.4323V15.9055C32.2058 15.8687 32.2094 15.8314 32.2206 15.7961C32.2318 15.7608 32.2504 15.7282 32.2751 15.7005C32.2998 15.6728 32.3301 15.6507 32.364 15.6355C32.3979 15.6204 32.4346 15.6125 32.4718 15.6125C32.509 15.6125 32.5457 15.6204 32.5796 15.6355C32.6135 15.6507 32.6438 15.6728 32.6685 15.7005C32.6932 15.7282 32.7118 15.7608 32.723 15.7961C32.7342 15.8314 32.7378 15.8687 32.7335 15.9055V21.6557C32.7378 21.6925 32.7342 21.7298 32.723 21.7651C32.7118 21.8004 32.6932 21.833 32.6685 21.8607C32.6438 21.8883 32.6135 21.9105 32.5796 21.9256C32.5457 21.9408 32.509 21.9486 32.4718 21.9486C32.4346 21.9486 32.3979 21.9408 32.364 21.9256C32.3301 21.9105 32.2998 21.8883 32.2751 21.8607C32.2504 21.833 32.2318 21.8004 32.2206 21.7651C32.2094 21.7298 32.2058 21.6925 32.2101 21.6557V19.0384C32.2101 19.0019 32.1839 18.9804 32.1438 18.9804H29.0585C29.0225 18.9804 29.005 18.9996 29.005 19.0384V21.6557C29.0074 21.6916 29.0024 21.7277 28.9902 21.7617C28.9781 21.7956 28.9591 21.8267 28.9344 21.8531C28.9097 21.8794 28.8798 21.9004 28.8467 21.9147C28.8135 21.9291 28.7777 21.9365 28.7416 21.9365C28.7054 21.9365 28.6697 21.9291 28.6365 21.9147C28.6033 21.9004 28.5735 21.8794 28.5488 21.8531C28.5241 21.8267 28.5051 21.7956 28.4929 21.7617C28.4808 21.7277 28.4757 21.6916 28.4781 21.6557V15.9055Z" fill="#6B758A"/>
<path d="M36.8051 19.3674C36.8129 19.3686 36.8209 19.3679 36.8283 19.3653C36.8358 19.3628 36.8425 19.3585 36.8479 19.3528C36.8534 19.3471 36.8573 19.3402 36.8595 19.3326C36.8616 19.3251 36.8619 19.3171 36.8604 19.3094C36.8651 19.0983 36.8372 18.8878 36.7778 18.6852C36.7041 18.4345 36.5472 18.2162 36.3328 18.066C36.1184 17.9158 35.8592 17.8427 35.5978 17.8586C35.3376 17.8426 35.0797 17.9159 34.8671 18.0662C34.6544 18.2166 34.4997 18.4351 34.4288 18.6852C34.3673 18.8874 34.339 19.0982 34.345 19.3094C34.3436 19.3173 34.3441 19.3255 34.3465 19.3332C34.3489 19.3409 34.3532 19.3479 34.3589 19.3536C34.3646 19.3593 34.3716 19.3635 34.3793 19.3659C34.3871 19.3683 34.3952 19.3688 34.4032 19.3674H36.8051ZM33.9775 20.8175C33.8666 20.4486 33.8194 20.0636 33.8379 19.6789C33.8208 19.294 33.8679 18.909 33.9775 18.5396C34.0981 18.2059 34.3189 17.9174 34.6099 17.7135C34.9009 17.5096 35.2479 17.4001 35.6036 17.4001C35.9592 17.4001 36.3062 17.5096 36.5972 17.7135C36.8882 17.9174 37.1091 18.2059 37.2297 18.5396C37.3311 18.8791 37.3776 19.2326 37.3675 19.5867C37.3695 19.6175 37.3648 19.6485 37.3538 19.6774C37.3428 19.7063 37.3257 19.7325 37.3036 19.7542C37.2815 19.7759 37.2551 19.7927 37.226 19.8033C37.1968 19.8139 37.1658 19.8182 37.1349 19.8158H34.4015C34.3937 19.8142 34.3857 19.8145 34.3782 19.8167C34.3706 19.8188 34.3637 19.8228 34.3579 19.8282C34.3522 19.8336 34.3479 19.8403 34.3454 19.8477C34.3428 19.8552 34.3421 19.8631 34.3433 19.8709C34.3289 20.1288 34.3602 20.3872 34.4358 20.6342C34.5147 20.8965 34.6808 21.1242 34.9069 21.2796C35.1329 21.435 35.4053 21.509 35.6792 21.4893C35.9015 21.4974 36.1229 21.4573 36.3281 21.3715C36.5333 21.2858 36.7173 21.1565 36.8673 20.9927C36.9148 20.9393 36.981 20.9059 37.0523 20.8993C37.0809 20.8981 37.1096 20.9028 37.1364 20.913C37.1632 20.9232 37.1877 20.9387 37.2083 20.9586C37.2289 20.9785 37.2452 21.0024 37.2563 21.0288C37.2674 21.0552 37.273 21.0836 37.2727 21.1122C37.2734 21.1722 37.2528 21.2306 37.2145 21.2769C37.0245 21.5044 36.7843 21.6849 36.5127 21.8044C36.2411 21.924 35.9455 21.9793 35.6489 21.9661C35.2799 21.9959 34.9119 21.898 34.6067 21.6889C34.3016 21.4799 34.0779 21.1724 33.9734 20.8181" fill="#6B758A"/>
<path d="M41.3199 20.5239V19.8719C41.3199 19.8342 41.3024 19.8139 41.2664 19.8139H40.2155C39.3402 19.8139 38.9715 20.0819 38.9715 20.6701C38.9715 21.2107 39.3495 21.4967 40.0596 21.4967C40.8157 21.4967 41.3205 21.1295 41.3205 20.5216L41.3199 20.5239ZM42.105 21.6713C42.1054 21.7043 42.0988 21.737 42.0857 21.7674C42.0727 21.7978 42.0534 21.8251 42.0292 21.8476C42.0049 21.8701 41.9762 21.8872 41.9449 21.898C41.9136 21.9088 41.8804 21.913 41.8474 21.9103C41.7964 21.9105 41.7465 21.8958 41.7039 21.8679C41.6613 21.8401 41.6279 21.8003 41.6078 21.7536L41.3943 21.4056H41.3769C41.2031 21.601 40.9861 21.7534 40.743 21.8507C40.4999 21.9479 40.2375 21.9874 39.9765 21.9659C39.7907 21.9905 39.6018 21.9754 39.4223 21.9218C39.2428 21.8683 39.0767 21.7773 38.9349 21.6551C38.7932 21.5328 38.6791 21.3819 38.6001 21.2124C38.5211 21.043 38.479 20.8587 38.4766 20.6718C38.4766 19.8064 39.0826 19.3667 40.141 19.3667H41.2675C41.3036 19.3667 41.3211 19.3481 41.3211 19.3087V18.9972C41.3211 18.2709 41.0454 17.8666 40.18 17.8666C39.8278 17.8721 39.4828 17.9667 39.1774 18.1416C39.1259 18.1771 39.0654 18.1972 39.0029 18.1996C38.9722 18.2018 38.9414 18.1974 38.9125 18.1868C38.8836 18.1762 38.8572 18.1596 38.8352 18.1381C38.8133 18.1166 38.7961 18.0907 38.7849 18.0621C38.7737 18.0335 38.7687 18.0029 38.7703 17.9722C38.7715 17.933 38.7814 17.8946 38.7992 17.8596C38.817 17.8246 38.8422 17.7939 38.8732 17.7698C39.2679 17.5103 39.7345 17.3815 40.2068 17.4014C41.296 17.4014 41.802 17.8887 41.802 18.9624V20.7368C41.7884 20.898 41.8198 21.0598 41.8927 21.2043L42.0672 21.5355C42.0887 21.5788 42.1014 21.6259 42.1044 21.6742" fill="#6B758A"/>
<path d="M44.1228 21.9323C43.4516 21.9323 43.212 21.6203 43.212 20.9039V15.8899C43.2097 15.8558 43.2144 15.8217 43.2258 15.7895C43.2373 15.7574 43.2552 15.728 43.2786 15.703C43.3019 15.6781 43.3302 15.6582 43.3615 15.6446C43.3929 15.631 43.4267 15.624 43.4609 15.624C43.4951 15.624 43.5289 15.631 43.5603 15.6446C43.5917 15.6582 43.6199 15.6781 43.6433 15.703C43.6666 15.728 43.6846 15.7574 43.696 15.7895C43.7075 15.8217 43.7122 15.8558 43.7098 15.8899V20.8865C43.7098 21.3163 43.8291 21.4555 44.2164 21.4555C44.2488 21.4539 44.2812 21.4589 44.3116 21.4702C44.3421 21.4815 44.3699 21.4988 44.3934 21.5211C44.4169 21.5434 44.4356 21.5703 44.4484 21.6001C44.4612 21.6298 44.4678 21.6619 44.4678 21.6942C44.4678 21.7266 44.4612 21.7587 44.4484 21.7884C44.4356 21.8182 44.4169 21.845 44.3934 21.8673C44.3699 21.8896 44.3421 21.907 44.3116 21.9183C44.2812 21.9295 44.2488 21.9345 44.2164 21.9329L44.1228 21.9323Z" fill="#6B758A"/>
<path d="M47.3566 21.9322C46.5459 21.9322 46.2313 21.6201 46.2313 20.7553V17.9837C46.2313 17.946 46.2156 17.9257 46.1778 17.9257H45.8184C45.7877 17.9285 45.7569 17.9248 45.7277 17.915C45.6986 17.9051 45.6718 17.8894 45.6492 17.8687C45.6265 17.848 45.6083 17.8228 45.5959 17.7947C45.5835 17.7666 45.5771 17.7363 45.5771 17.7056C45.5771 17.6749 45.5835 17.6446 45.5959 17.6165C45.6083 17.5885 45.6265 17.5633 45.6492 17.5426C45.6718 17.5218 45.6986 17.5061 45.7277 17.4963C45.7569 17.4864 45.7877 17.4828 45.8184 17.4855H46.1778C46.215 17.4855 46.2313 17.4681 46.2313 17.4275V15.8897C46.2297 15.8559 46.2349 15.8221 46.2468 15.7904C46.2586 15.7587 46.2768 15.7297 46.3002 15.7052C46.3236 15.6807 46.3518 15.6612 46.383 15.6479C46.4141 15.6346 46.4477 15.6277 46.4817 15.6277C46.5156 15.6277 46.5492 15.6346 46.5804 15.6479C46.6116 15.6612 46.6397 15.6807 46.6631 15.7052C46.6865 15.7297 46.7047 15.7587 46.7166 15.7904C46.7284 15.8221 46.7337 15.8559 46.732 15.8897V17.431C46.732 17.4687 46.7489 17.4889 46.7855 17.4889H47.4834C47.5141 17.4862 47.5449 17.4899 47.5741 17.4997C47.6032 17.5096 47.63 17.5253 47.6526 17.546C47.6753 17.5667 47.6934 17.5919 47.7058 17.62C47.7182 17.6481 47.7246 17.6784 47.7246 17.7091C47.7246 17.7398 47.7182 17.7701 47.7058 17.7982C47.6934 17.8262 47.6753 17.8514 47.6526 17.8721C47.63 17.8929 47.6032 17.9086 47.5741 17.9184C47.5449 17.9283 47.5141 17.9319 47.4834 17.9292H46.7855C46.7495 17.9292 46.732 17.9484 46.732 17.9872V20.7414C46.732 21.3214 46.9152 21.4583 47.4764 21.4583C47.5096 21.4555 47.543 21.4595 47.5744 21.4703C47.6059 21.481 47.6348 21.4981 47.6593 21.5205C47.6838 21.543 47.7034 21.5703 47.7168 21.6006C47.7302 21.631 47.7371 21.6638 47.7371 21.697C47.7371 21.7302 47.7302 21.763 47.7168 21.7934C47.7034 21.8238 47.6838 21.851 47.6593 21.8735C47.6348 21.8959 47.6059 21.913 47.5744 21.9237C47.543 21.9344 47.5096 21.9385 47.4764 21.9357L47.3566 21.9322Z" fill="#6B758A"/>
<path d="M51.6867 21.6748V19.2212C51.6867 18.3511 51.2999 17.9079 50.5351 17.9079C50.3743 17.903 50.2142 17.9315 50.0649 17.9915C49.9157 18.0515 49.7806 18.1417 49.6681 18.2565C49.5556 18.3712 49.4682 18.508 49.4114 18.6582C49.3546 18.8084 49.3297 18.9687 49.3383 19.129V21.6748C49.3406 21.7089 49.3359 21.743 49.3244 21.7751C49.313 21.8073 49.295 21.8367 49.2717 21.8617C49.2483 21.8866 49.2201 21.9065 49.1887 21.9201C49.1574 21.9336 49.1235 21.9407 49.0893 21.9407C49.0551 21.9407 49.0213 21.9336 48.9899 21.9201C48.9586 21.9065 48.9303 21.8866 48.907 21.8617C48.8837 21.8367 48.8657 21.8073 48.8543 21.7751C48.8428 21.743 48.8381 21.7089 48.8404 21.6748V15.8881C48.8381 15.8541 48.8428 15.82 48.8543 15.7878C48.8657 15.7557 48.8837 15.7262 48.907 15.7013C48.9303 15.6764 48.9586 15.6565 48.9899 15.6429C49.0213 15.6293 49.0551 15.6223 49.0893 15.6223C49.1235 15.6223 49.1574 15.6293 49.1887 15.6429C49.2201 15.6565 49.2483 15.6764 49.2717 15.7013C49.295 15.7262 49.313 15.7557 49.3244 15.7878C49.3359 15.82 49.3406 15.8541 49.3383 15.8881V18.0541H49.347C49.4905 17.8465 49.6859 17.6799 49.9137 17.5707C50.1416 17.4614 50.394 17.4133 50.6462 17.4311C51.6134 17.4311 52.1845 18.0373 52.1845 19.1034V21.6754C52.1868 21.7094 52.1821 21.7436 52.1707 21.7757C52.1592 21.8079 52.1413 21.8373 52.1179 21.8622C52.0946 21.8872 52.0663 21.907 52.035 21.9206C52.0036 21.9342 51.9698 21.9412 51.9356 21.9412C51.9014 21.9412 51.8675 21.9342 51.8362 21.9206C51.8048 21.907 51.7766 21.8872 51.7532 21.8622C51.7299 21.8373 51.7119 21.8079 51.7005 21.7757C51.689 21.7436 51.6843 21.7094 51.6867 21.6754" fill="#6B758A"/>
<path d="M53.4312 18.5396C53.5366 18.1939 53.7556 17.8937 54.0529 17.6872C54.3501 17.4806 54.7084 17.3798 55.07 17.4009C55.3507 17.3857 55.6303 17.4458 55.8797 17.5751C56.1291 17.7043 56.3392 17.898 56.4879 18.1359C56.5152 18.1798 56.5282 18.2311 56.5251 18.2826C56.5256 18.3117 56.5202 18.3406 56.5093 18.3676C56.4985 18.3945 56.4823 18.4191 56.4617 18.4397C56.4412 18.4604 56.4167 18.4767 56.3898 18.4878C56.3628 18.4989 56.3339 18.5044 56.3047 18.5042C56.2571 18.5036 56.2104 18.4904 56.1696 18.466C56.1287 18.4415 56.095 18.4067 56.0721 18.365C55.9611 18.2043 55.8102 18.0751 55.6341 17.9899C55.4581 17.9047 55.263 17.8665 55.0677 17.8789C54.8107 17.8615 54.5555 17.9335 54.3456 18.0825C54.1357 18.2314 53.984 18.4483 53.9162 18.6962C53.8218 19.0186 53.7814 19.3543 53.7964 19.6899C53.7812 20.022 53.8216 20.3543 53.9162 20.6731C53.9842 20.9209 54.136 21.1376 54.3458 21.2865C54.5557 21.4355 54.8107 21.5075 55.0677 21.4904C55.2632 21.5027 55.4585 21.4641 55.6346 21.3785C55.8107 21.2929 55.9614 21.1631 56.0721 21.002C56.0955 20.9609 56.1293 20.9266 56.1701 20.9026C56.2109 20.8786 56.2573 20.8657 56.3047 20.8651C56.3339 20.8647 56.3629 20.8701 56.3899 20.8812C56.417 20.8922 56.4415 20.9085 56.4621 20.9292C56.4827 20.9499 56.4988 20.9745 56.5097 21.0015C56.5205 21.0286 56.5258 21.0575 56.5251 21.0866C56.5282 21.138 56.5152 21.1891 56.4879 21.2328C56.3392 21.4707 56.1291 21.6643 55.8797 21.7936C55.6303 21.9229 55.3507 21.983 55.07 21.9678C54.7083 21.9892 54.3499 21.8885 54.0526 21.6819C53.7553 21.4754 53.5364 21.1749 53.4312 20.8291C53.3278 20.4588 53.281 20.0752 53.2922 19.691C53.2809 19.3032 53.3277 18.9159 53.4312 18.5419" fill="#6B758A"/>
<path d="M60.4766 20.524V19.872C60.4766 19.8343 60.4574 19.814 60.4184 19.814H59.3716C58.4992 19.814 58.1288 20.082 58.1288 20.6702C58.1288 21.2108 58.5062 21.4967 59.214 21.4967C59.9701 21.4967 60.4766 21.1296 60.4766 20.5217V20.524ZM61.26 21.6714C61.2603 21.7044 61.2536 21.7372 61.2405 21.7675C61.2274 21.7979 61.208 21.8252 61.1837 21.8477C61.1594 21.8702 61.1307 21.8873 61.0994 21.8981C61.068 21.9089 61.0348 21.9131 61.0018 21.9103C60.951 21.9103 60.9014 21.8954 60.8591 21.8676C60.8167 21.8398 60.7834 21.8002 60.7633 21.7537L60.5505 21.4057H60.5313C60.3575 21.6011 60.1405 21.7535 59.8974 21.8508C59.6543 21.948 59.3919 21.9875 59.1308 21.966C58.2841 21.966 57.6304 21.5072 57.6304 20.6719C57.6304 19.8065 58.2375 19.3668 59.2972 19.3668H60.4184C60.4264 19.3682 60.4346 19.3677 60.4423 19.3653C60.45 19.3629 60.457 19.3587 60.4628 19.353C60.4685 19.3473 60.4727 19.3403 60.4751 19.3326C60.4775 19.3249 60.478 19.3167 60.4766 19.3088V18.9973C60.4766 18.271 60.2009 17.8667 59.3338 17.8667C58.9817 17.8727 58.6368 17.9673 58.3312 18.1417C58.2801 18.178 58.2194 18.1982 58.1567 18.1997C58.1262 18.2017 58.0955 18.1972 58.0669 18.1866C58.0382 18.1759 58.0121 18.1592 57.9904 18.1377C57.9687 18.1162 57.9518 18.0903 57.9408 18.0618C57.9299 18.0333 57.9252 18.0028 57.927 17.9723C57.9279 17.9334 57.9373 17.8952 57.9545 17.8602C57.9716 17.8253 57.9962 17.7945 58.0264 17.7699C58.4224 17.51 58.8904 17.3811 59.364 17.4015C60.4498 17.4015 60.9558 17.8888 60.9558 18.9625V20.7369C60.9428 20.8984 60.9752 21.0603 61.0495 21.2044L61.2239 21.5356C61.2457 21.5788 61.2581 21.626 61.2606 21.6742" fill="#6B758A"/>
<path d="M62.3675 21.676V17.7519C62.3658 17.7183 62.3711 17.6846 62.3829 17.653C62.3947 17.6215 62.4128 17.5926 62.4361 17.5682C62.4594 17.5438 62.4874 17.5244 62.5184 17.5112C62.5495 17.4979 62.5829 17.4911 62.6167 17.4911C62.6505 17.4911 62.6839 17.4979 62.7149 17.5112C62.746 17.5244 62.774 17.5438 62.7973 17.5682C62.8206 17.5926 62.8387 17.6215 62.8505 17.653C62.8623 17.6846 62.8675 17.7183 62.8659 17.7519V18.1759H62.8717C62.9613 17.9468 63.1209 17.7516 63.3279 17.618C63.5348 17.4843 63.7787 17.4189 64.025 17.4311C64.2899 17.4242 64.5516 17.4907 64.781 17.6231C64.8327 17.6462 64.8748 17.6863 64.9003 17.7366C64.9259 17.787 64.9333 17.8446 64.9213 17.8998C64.9093 17.9549 64.8786 18.0043 64.8344 18.0396C64.7903 18.0749 64.7353 18.0939 64.6787 18.0936C64.6347 18.0923 64.5914 18.0824 64.5513 18.0646C64.3597 17.9672 64.1487 17.9136 63.9337 17.9079C63.1596 17.9079 62.8659 18.5704 62.8659 19.3888V21.676C62.8675 21.7097 62.8623 21.7433 62.8505 21.7749C62.8387 21.8065 62.8206 21.8353 62.7973 21.8597C62.774 21.8841 62.746 21.9035 62.7149 21.9168C62.6839 21.93 62.6505 21.9369 62.6167 21.9369C62.5829 21.9369 62.5495 21.93 62.5184 21.9168C62.4874 21.9035 62.4594 21.8841 62.4361 21.8597C62.4128 21.8353 62.3947 21.8065 62.3829 21.7749C62.3711 21.7433 62.3658 21.7097 62.3675 21.676Z" fill="#6B758A"/>
<path d="M68.493 19.3673C68.5009 19.3687 68.5091 19.3682 68.5168 19.3658C68.5246 19.3634 68.5316 19.3592 68.5373 19.3535C68.543 19.3478 68.5473 19.3408 68.5497 19.3331C68.5521 19.3254 68.5526 19.3172 68.5511 19.3093C68.5563 19.0981 68.5277 18.8874 68.4662 18.6852C68.38 18.4434 68.2208 18.2341 68.0106 18.0862C67.8003 17.9382 67.5493 17.8588 67.292 17.8588C67.0347 17.8588 66.7837 17.9382 66.5735 18.0862C66.3633 18.2341 66.2041 18.4434 66.1178 18.6852C66.0581 18.8877 66.0301 19.0982 66.0347 19.3093C66.0334 19.3172 66.034 19.3253 66.0364 19.3329C66.0389 19.3406 66.0431 19.3475 66.0488 19.3532C66.0545 19.3589 66.0615 19.3631 66.0691 19.3655C66.0768 19.368 66.0849 19.3686 66.0928 19.3673H68.493ZM65.6648 20.8175C65.5548 20.4484 65.508 20.0634 65.5264 19.6788C65.5093 19.294 65.5561 18.9091 65.6648 18.5396C65.7855 18.2059 66.0064 17.9175 66.2975 17.7136C66.5885 17.5098 66.9355 17.4004 67.2912 17.4004C67.6468 17.4004 67.9938 17.5098 68.2848 17.7136C68.5759 17.9175 68.7968 18.2059 68.9175 18.5396C69.0198 18.8789 69.0665 19.2324 69.0559 19.5866C69.0579 19.6174 69.0531 19.6483 69.0421 19.6771C69.031 19.706 69.0139 19.7322 68.9919 19.7539C68.9698 19.7756 68.9434 19.7923 68.9143 19.803C68.8852 19.8136 68.8542 19.818 68.8233 19.8157H66.0899C66.0822 19.8144 66.0744 19.8149 66.0669 19.8171C66.0594 19.8194 66.0526 19.8233 66.047 19.8287C66.0413 19.834 66.037 19.8406 66.0344 19.8479C66.0317 19.8553 66.0308 19.8631 66.0318 19.8708C66.0175 20.1288 66.0494 20.3873 66.126 20.6341C66.2047 20.8964 66.3707 21.1241 66.5967 21.2796C66.8226 21.435 67.095 21.509 67.3688 21.4892C67.5912 21.4971 67.8126 21.4568 68.0178 21.371C68.2231 21.2853 68.4072 21.1562 68.5575 20.9926C68.6044 20.9387 68.6706 20.9052 68.7419 20.8992C68.7705 20.8981 68.7991 20.9027 68.8259 20.9129C68.8527 20.9231 68.8771 20.9386 68.8977 20.9586C68.9183 20.9785 68.9346 21.0024 68.9456 21.0288C68.9566 21.0552 68.9621 21.0835 68.9617 21.1121C68.9634 21.1715 68.9445 21.2297 68.9082 21.2769C68.718 21.5044 68.4776 21.685 68.2058 21.8046C67.934 21.9241 67.6382 21.9793 67.3415 21.966C66.9722 21.9959 66.6039 21.8981 66.2985 21.689C65.993 21.48 65.7691 21.1724 65.6642 20.818" fill="#6B758A"/>
<path d="M74.4013 21.3899C74.3582 21.3647 74.3225 21.3286 74.298 21.2852C74.2734 21.2418 74.2609 21.1926 74.2618 21.1428C74.2636 21.0732 74.2927 21.0072 74.3428 20.9588C74.393 20.9104 74.4601 20.8836 74.5299 20.8841C74.5988 20.8879 74.6656 20.9097 74.7235 20.9473C75.2117 21.2914 75.791 21.4839 76.3886 21.5007C77.393 21.5007 78.0106 20.985 78.0106 20.2245C78.0106 19.5981 77.6617 19.1584 76.5084 19.0116L76.2176 18.9739C74.9911 18.8173 74.4211 18.228 74.4211 17.3208C74.4211 16.236 75.1946 15.5666 76.3833 15.5666C76.9481 15.5545 77.5054 15.6973 77.9943 15.9796C78.0435 16.0032 78.0856 16.0393 78.1162 16.0844C78.1469 16.1294 78.165 16.1817 78.1688 16.236C78.1689 16.2687 78.1625 16.301 78.15 16.3311C78.1375 16.3613 78.1192 16.3887 78.096 16.4117C78.0729 16.4348 78.0454 16.4531 78.0152 16.4656C77.985 16.478 77.9526 16.4844 77.9199 16.4843C77.855 16.4801 77.792 16.4613 77.7355 16.4292C77.3174 16.1912 76.845 16.0645 76.3636 16.0614C75.4511 16.0614 74.9445 16.5678 74.9445 17.2732C74.9445 17.9171 75.3417 18.3301 76.4177 18.4681L76.705 18.5052C77.9472 18.6607 78.5363 19.2483 78.5363 20.1874C78.5363 21.2437 77.7803 21.9972 76.3264 21.9972C75.6385 21.9923 74.968 21.7813 74.4019 21.3916" fill="#6B758A"/>
<path d="M82.5854 20.6723C82.7468 20.0234 82.7468 19.3449 82.5854 18.696C82.4993 18.4571 82.3415 18.2504 82.1333 18.1044C81.9251 17.9583 81.6768 17.8799 81.4222 17.8799C81.1677 17.8799 80.9193 17.9583 80.7111 18.1044C80.503 18.2504 80.3451 18.4571 80.2591 18.696C80.1633 19.0155 80.1228 19.349 80.1392 19.6821C80.1225 20.0175 80.1631 20.3533 80.2591 20.6752C80.3453 20.9139 80.5033 21.1202 80.7115 21.266C80.9196 21.4119 81.1678 21.4901 81.4222 21.4901C81.6766 21.4901 81.9248 21.4119 82.1329 21.266C82.3411 21.1202 82.4991 20.9139 82.5854 20.6752V20.6723ZM79.7804 20.83C79.583 20.0804 79.583 19.2925 79.7804 18.5429C79.9048 18.2084 80.1288 17.9199 80.4224 17.7162C80.716 17.5125 81.0651 17.4033 81.4228 17.4033C81.7804 17.4033 82.1295 17.5125 82.4231 17.7162C82.7167 17.9199 82.9408 18.2084 83.0652 18.5429C83.2612 19.2927 83.2612 20.0802 83.0652 20.83C82.9408 21.1645 82.7167 21.453 82.4231 21.6567C82.1295 21.8604 81.7804 21.9696 81.4228 21.9696C81.0651 21.9696 80.716 21.8604 80.4224 21.6567C80.1288 21.453 79.9048 21.1645 79.7804 20.83Z" fill="#6B758A"/>
<path d="M85.2182 21.9322C84.547 21.9322 84.3092 21.6202 84.3092 20.9038V15.8897C84.3068 15.8558 84.3115 15.8217 84.323 15.7897C84.3344 15.7576 84.3523 15.7282 84.3756 15.7033C84.3989 15.6785 84.427 15.6586 84.4583 15.6451C84.4896 15.6315 84.5234 15.6245 84.5575 15.6245C84.5916 15.6245 84.6254 15.6315 84.6567 15.6451C84.688 15.6586 84.7161 15.6785 84.7394 15.7033C84.7627 15.7282 84.7806 15.7576 84.7921 15.7897C84.8035 15.8217 84.8082 15.8558 84.8058 15.8897V20.8864C84.8058 21.3162 84.9222 21.4554 85.3124 21.4554C85.3448 21.4538 85.3772 21.4588 85.4076 21.4701C85.4381 21.4814 85.4659 21.4987 85.4894 21.521C85.5129 21.5433 85.5316 21.5702 85.5444 21.6C85.5572 21.6297 85.5638 21.6618 85.5638 21.6941C85.5638 21.7265 85.5572 21.7585 85.5444 21.7883C85.5316 21.8181 85.5129 21.8449 85.4894 21.8672C85.4659 21.8895 85.4381 21.9069 85.4076 21.9181C85.3772 21.9294 85.3448 21.9344 85.3124 21.9328L85.2182 21.9322Z" fill="#6B758A"/>
<path d="M89.4729 21.6179V21.3152H89.4653C89.3277 21.524 89.1363 21.6922 88.9113 21.8021C88.6862 21.912 88.4357 21.9596 88.1859 21.9399C87.2175 21.9399 86.6656 21.332 86.6656 20.2676V17.6944C86.6633 17.6605 86.668 17.6264 86.6794 17.5943C86.6908 17.5623 86.7087 17.5329 86.732 17.508C86.7553 17.4831 86.7835 17.4633 86.8148 17.4498C86.8461 17.4362 86.8798 17.4292 86.914 17.4292C86.9481 17.4292 86.9818 17.4362 87.0131 17.4498C87.0444 17.4633 87.0726 17.4831 87.0959 17.508C87.1192 17.5329 87.1371 17.5623 87.1485 17.5943C87.1599 17.6264 87.1646 17.6605 87.1623 17.6944V20.1487C87.1623 21.0188 87.5304 21.4613 88.2964 21.4613C88.4563 21.4658 88.6154 21.4369 88.7634 21.3765C88.9115 21.316 89.0453 21.2254 89.1562 21.1104C89.267 20.9954 89.3526 20.8585 89.4073 20.7086C89.4621 20.5586 89.4848 20.3989 89.474 20.2397V17.6944C89.4717 17.6605 89.4764 17.6264 89.4878 17.5943C89.4993 17.5623 89.5172 17.5329 89.5405 17.508C89.5637 17.4831 89.5919 17.4633 89.6232 17.4498C89.6545 17.4362 89.6883 17.4292 89.7224 17.4292C89.7565 17.4292 89.7903 17.4362 89.8215 17.4498C89.8528 17.4633 89.881 17.4831 89.9043 17.508C89.9276 17.5329 89.9455 17.5623 89.9569 17.5943C89.9683 17.6264 89.973 17.6605 89.9707 17.6944V21.6179C89.973 21.6519 89.9683 21.686 89.9569 21.718C89.9455 21.7501 89.9276 21.7795 89.9043 21.8044C89.881 21.8292 89.8528 21.8491 89.8215 21.8626C89.7903 21.8762 89.7565 21.8832 89.7224 21.8832C89.6883 21.8832 89.6545 21.8762 89.6232 21.8626C89.5919 21.8491 89.5637 21.8292 89.5405 21.8044C89.5172 21.7795 89.4993 21.7501 89.4878 21.718C89.4764 21.686 89.4717 21.6519 89.474 21.6179" fill="#6B758A"/>
<path d="M92.845 21.9322C92.0343 21.9322 91.7208 21.6201 91.7208 20.7553V17.9837C91.7208 17.946 91.7051 17.9257 91.6667 17.9257H91.3062C91.2755 17.9285 91.2447 17.9248 91.2155 17.915C91.1864 17.9051 91.1596 17.8894 91.1369 17.8687C91.1143 17.8479 91.0961 17.8228 91.0837 17.7947C91.0713 17.7666 91.0649 17.7363 91.0649 17.7056C91.0649 17.6749 91.0713 17.6446 91.0837 17.6165C91.0961 17.5885 91.1143 17.5633 91.1369 17.5425C91.1596 17.5218 91.1864 17.5061 91.2155 17.4963C91.2447 17.4864 91.2755 17.4828 91.3062 17.4855H91.6667C91.7051 17.4855 91.7208 17.4681 91.7208 17.4275V15.8897C91.7185 15.8556 91.7232 15.8214 91.7347 15.7892C91.7462 15.757 91.7642 15.7275 91.7876 15.7025C91.811 15.6775 91.8393 15.6576 91.8707 15.6439C91.9021 15.6303 91.936 15.6233 91.9703 15.6233C92.0046 15.6233 92.0385 15.6303 92.0699 15.6439C92.1014 15.6576 92.1297 15.6775 92.1531 15.7025C92.1765 15.7275 92.1945 15.757 92.2059 15.7892C92.2174 15.8214 92.2221 15.8556 92.2198 15.8897V17.431C92.2198 17.4687 92.2361 17.4889 92.2751 17.4889H92.9759C93.0065 17.4862 93.0374 17.4899 93.0665 17.4997C93.0956 17.5096 93.1224 17.5253 93.1451 17.546C93.1678 17.5667 93.1859 17.5919 93.1983 17.62C93.2107 17.6481 93.2171 17.6784 93.2171 17.7091C93.2171 17.7398 93.2107 17.7701 93.1983 17.7982C93.1859 17.8262 93.1678 17.8514 93.1451 17.8721C93.1224 17.8928 93.0956 17.9086 93.0665 17.9184C93.0374 17.9283 93.0065 17.9319 92.9759 17.9292H92.2751C92.2367 17.9292 92.2198 17.9484 92.2198 17.9872V20.7414C92.2198 21.3214 92.4013 21.4583 92.9642 21.4583C92.9974 21.4555 93.0307 21.4595 93.0622 21.4703C93.0937 21.481 93.1226 21.4981 93.1471 21.5205C93.1716 21.543 93.1912 21.5703 93.2046 21.6006C93.218 21.631 93.2249 21.6638 93.2249 21.697C93.2249 21.7302 93.218 21.763 93.2046 21.7934C93.1912 21.8238 93.1716 21.851 93.1471 21.8735C93.1226 21.8959 93.0937 21.913 93.0622 21.9237C93.0307 21.9344 92.9974 21.9385 92.9642 21.9357L92.845 21.9322Z" fill="#6B758A"/>
<path d="M94.4535 21.6457V17.7228C94.4511 17.6886 94.4559 17.6543 94.4674 17.622C94.4789 17.5897 94.4969 17.5602 94.5204 17.5351C94.5438 17.5101 94.5722 17.4901 94.6037 17.4765C94.6352 17.4628 94.6692 17.4558 94.7035 17.4558C94.7379 17.4558 94.7719 17.4628 94.8034 17.4765C94.8349 17.4901 94.8633 17.5101 94.8867 17.5351C94.9102 17.5602 94.9282 17.5897 94.9397 17.622C94.9512 17.6543 94.956 17.6886 94.9536 17.7228V21.6457C94.956 21.6799 94.9512 21.7142 94.9397 21.7465C94.9282 21.7788 94.9102 21.8084 94.8867 21.8334C94.8633 21.8585 94.8349 21.8784 94.8034 21.8921C94.7719 21.9057 94.7379 21.9128 94.7035 21.9128C94.6692 21.9128 94.6352 21.9057 94.6037 21.8921C94.5722 21.8784 94.5438 21.8585 94.5204 21.8334C94.4969 21.8084 94.4789 21.7788 94.4674 21.7465C94.4559 21.7142 94.4511 21.6799 94.4535 21.6457ZM94.3174 15.17C94.3172 15.0935 94.3397 15.0187 94.3821 14.9551C94.4244 14.8914 94.4848 14.8417 94.5555 14.8123C94.6263 14.7828 94.7041 14.775 94.7793 14.7897C94.8545 14.8044 94.9237 14.8411 94.978 14.895C95.0323 14.9489 95.0693 15.0177 95.0844 15.0926C95.0995 15.1676 95.092 15.2453 95.0628 15.316C95.0336 15.3866 94.9841 15.4471 94.9204 15.4896C94.8568 15.5322 94.7819 15.555 94.7053 15.5551C94.6028 15.555 94.5044 15.5144 94.4318 15.4422C94.3591 15.3701 94.318 15.2722 94.3174 15.17Z" fill="#6B758A"/>
<path d="M99.146 20.6723C99.2417 20.3504 99.2822 20.0146 99.2658 19.6792C99.282 19.3461 99.2415 19.0127 99.146 18.6931C99.06 18.4542 98.9021 18.2475 98.6939 18.1015C98.4857 17.9554 98.2374 17.877 97.9828 17.877C97.7283 17.877 97.48 17.9554 97.2718 18.1015C97.0636 18.2475 96.9057 18.4542 96.8197 18.6931C96.7228 19.0125 96.6819 19.346 96.6987 19.6792C96.6817 20.0147 96.7226 20.3506 96.8197 20.6723C96.9059 20.911 97.0639 21.1173 97.2721 21.2632C97.4802 21.409 97.7284 21.4873 97.9828 21.4873C98.2372 21.4873 98.4854 21.409 98.6935 21.2632C98.9017 21.1173 99.0597 20.911 99.146 20.6723ZM96.3381 20.8272C96.1399 20.0776 96.1399 19.2896 96.3381 18.54C96.4629 18.2056 96.6873 17.9172 96.9811 17.7136C97.275 17.51 97.6242 17.4009 97.982 17.4009C98.3397 17.4009 98.689 17.51 98.9828 17.7136C99.2766 17.9172 99.501 18.2056 99.6258 18.54C99.8218 19.2899 99.8218 20.0773 99.6258 20.8272C99.501 21.1616 99.2766 21.4499 98.9828 21.6536C98.689 21.8572 98.3397 21.9663 97.982 21.9663C97.6242 21.9663 97.275 21.8572 96.9811 21.6536C96.6873 21.4499 96.4629 21.1616 96.3381 20.8272Z" fill="#6B758A"/>
<path d="M103.713 21.676V19.2229C103.713 18.3529 103.328 17.9085 102.562 17.9085C102.401 17.9034 102.241 17.9317 102.091 17.9917C101.942 18.0516 101.806 18.1419 101.694 18.2568C101.581 18.3717 101.493 18.5088 101.437 18.6592C101.38 18.8096 101.355 18.9702 101.364 19.1307V21.676C101.366 21.7099 101.361 21.7439 101.35 21.7759C101.339 21.8079 101.321 21.8372 101.298 21.862C101.274 21.8868 101.246 21.9066 101.215 21.9202C101.184 21.9337 101.15 21.9407 101.116 21.9407C101.082 21.9407 101.048 21.9337 101.017 21.9202C100.986 21.9066 100.958 21.8868 100.935 21.862C100.911 21.8372 100.893 21.8079 100.882 21.7759C100.871 21.7439 100.866 21.7099 100.868 21.676V17.7519C100.866 17.718 100.871 17.6841 100.882 17.6521C100.893 17.6201 100.911 17.5907 100.935 17.5659C100.958 17.5411 100.986 17.5213 101.017 17.5078C101.048 17.4943 101.082 17.4873 101.116 17.4873C101.15 17.4873 101.184 17.4943 101.215 17.5078C101.246 17.5213 101.274 17.5411 101.298 17.5659C101.321 17.5907 101.339 17.6201 101.35 17.6521C101.361 17.6841 101.366 17.718 101.364 17.7519V18.0553H101.375C101.517 17.846 101.711 17.678 101.94 17.5685C102.168 17.4589 102.421 17.4117 102.673 17.4317C103.641 17.4317 104.213 18.0385 104.213 19.1029V21.676C104.215 21.7098 104.209 21.7435 104.197 21.7751C104.186 21.8067 104.168 21.8357 104.144 21.8601C104.121 21.8846 104.093 21.904 104.062 21.9173C104.03 21.9306 103.997 21.9375 103.963 21.9375C103.929 21.9375 103.896 21.9306 103.865 21.9173C103.834 21.904 103.805 21.8846 103.782 21.8601C103.759 21.8357 103.741 21.8067 103.729 21.7751C103.717 21.7435 103.712 21.7098 103.713 21.676Z" fill="#6B758A"/>
<path d="M105.418 21.452C105.384 21.4277 105.357 21.3959 105.338 21.359C105.318 21.3221 105.308 21.2812 105.308 21.2397C105.308 21.2086 105.314 21.1779 105.326 21.1493C105.339 21.1206 105.356 21.0947 105.379 21.0731C105.401 21.0515 105.427 21.0345 105.457 21.0233C105.486 21.012 105.517 21.0067 105.548 21.0077C105.607 21.0092 105.665 21.0284 105.713 21.0628C106.1 21.348 106.569 21.5031 107.051 21.5059C107.815 21.5059 108.193 21.1579 108.193 20.6608C108.193 20.2089 108 19.9815 107.19 19.8876L106.738 19.8429C105.926 19.7588 105.467 19.3644 105.467 18.6828C105.467 17.8748 106.055 17.3968 107.013 17.3968C107.47 17.394 107.921 17.5079 108.321 17.7274C108.368 17.7462 108.407 17.7782 108.435 17.8195C108.463 17.8608 108.479 17.9095 108.479 17.9594C108.479 17.9879 108.474 18.0161 108.464 18.0426C108.454 18.0691 108.438 18.0933 108.419 18.1138C108.399 18.1343 108.375 18.1508 108.349 18.1622C108.323 18.1736 108.295 18.1798 108.267 18.1804C108.202 18.1808 108.139 18.1648 108.082 18.134C107.743 17.9619 107.369 17.868 106.988 17.8591C106.314 17.8591 105.964 18.1526 105.964 18.6393C105.964 19.0627 106.223 19.3017 106.968 19.3754L107.42 19.4218C108.267 19.5123 108.69 19.8997 108.69 20.6062C108.69 21.4334 108.091 21.9653 107.003 21.9653C106.434 21.9657 105.879 21.7855 105.419 21.4508" fill="#6B758A"/>
<path fill-rule="evenodd" clip-rule="evenodd" d="M57.5382 8.39203C57.2797 7.68481 57.1532 6.93638 57.1648 6.18373V6.17909C57.1531 5.42018 57.2812 4.66557 57.5428 3.95281C57.7715 3.32982 58.1244 2.75955 58.5803 2.27645C59.0168 1.81791 59.5448 1.4557 60.1302 1.21319C60.7343 0.962531 61.3829 0.836072 62.0372 0.841375C62.7911 0.829082 63.5287 1.06068 64.1396 1.50148C64.8455 2.05869 65.4113 2.77254 65.7919 3.58622L66.6526 3.02066C66.4014 2.61284 66.1091 2.2317 65.7802 1.88316C65.0665 1.12335 64.1671 0.561485 63.1701 0.252605C62.6084 0.0795759 62.0232 -0.0055425 61.4353 0.000279657C60.8099 -0.00345926 60.1867 0.0725736 59.5806 0.226512C59.0211 0.368478 58.4826 0.58298 57.979 0.864565C57.4989 1.13356 57.0569 1.46519 56.6646 1.85068C56.0862 2.41437 55.6275 3.08839 55.3158 3.83262C55.004 4.57684 54.8457 5.37602 54.8501 6.18256C54.8453 6.98907 55.0035 7.78827 55.3154 8.5324C55.6173 9.26283 56.0653 9.9242 56.6321 10.4762C57.2211 11.0449 57.9159 11.4934 58.6775 11.7964C59.5234 12.1292 60.4265 12.2936 61.3358 12.2802C61.9555 12.2886 62.5731 12.2055 63.1684 12.0336C64.1765 11.7393 65.0842 11.1744 65.7924 10.4008C66.1147 10.0495 66.4029 9.66865 66.6532 9.26327L65.8186 8.73253C65.4514 9.45071 64.9321 10.0807 64.2966 10.5789C63.9699 10.8337 63.6104 11.0438 63.2277 11.2036C62.8481 11.3621 62.4406 11.4433 62.0291 11.4426C61.3697 11.4484 60.7155 11.3262 60.1029 11.0829C59.5216 10.8513 58.9967 10.4982 58.5635 10.0475C58.1124 9.57096 57.7635 9.00765 57.5382 8.39203ZM49.5794 11.4234C49.2988 11.5008 49.0091 11.5398 48.718 11.5395L48.7233 11.536C48.3538 11.5387 47.9863 11.4818 47.6351 11.3672C47.3016 11.259 46.9885 11.0961 46.7087 10.8852C46.4249 10.6709 46.1777 10.4123 45.9765 10.1195C45.7586 9.80413 45.5896 9.45781 45.4752 9.09219L44.4185 9.52665C44.5607 9.94096 44.761 10.3331 45.0134 10.6914C45.252 11.0269 45.5472 11.3185 45.8858 11.5534C46.244 11.7982 46.6412 11.9808 47.0605 12.0934C47.5558 12.223 48.0664 12.2853 48.5785 12.2785C49.2008 12.2896 49.8208 12.2002 50.4145 12.0139C50.8985 11.861 51.3482 11.6159 51.7387 11.2924C52.0841 11.0014 52.3574 10.6347 52.5372 10.221C52.7154 9.8055 52.8056 9.35784 52.8024 8.90598C52.808 8.51524 52.7103 8.12994 52.5192 7.78879C52.3198 7.44211 52.0644 7.13068 51.7632 6.86708C51.4329 6.5744 51.0749 6.31447 50.6942 6.09095C50.2929 5.8566 49.8882 5.62633 49.4729 5.40938C49.1395 5.23521 48.8114 5.06141 48.4885 4.89038L48.2516 4.76492C47.8809 4.56872 47.5238 4.34801 47.1827 4.10425C46.8951 3.90243 46.6401 3.65791 46.4266 3.37917C46.2421 3.1355 46.1426 2.83824 46.1434 2.53285C46.1437 2.3116 46.1905 2.09287 46.2807 1.89073C46.3768 1.67388 46.5193 1.48064 46.6982 1.32458C46.9034 1.14692 47.1401 1.0092 47.3961 0.91855C47.7097 0.810042 48.0401 0.757985 48.372 0.764826C48.7562 0.759061 49.1386 0.817901 49.5032 0.938855C49.825 1.04693 50.1241 1.21328 50.3854 1.42957C50.6447 1.6477 50.8668 1.90628 51.0432 2.19526C51.2324 2.50505 51.3843 2.83605 51.4956 3.18137L52.5064 2.72196C52.3785 2.30668 52.19 1.91246 51.9469 1.55198C51.7203 1.22007 51.4347 0.932261 51.1042 0.702763C50.7533 0.463642 50.3635 0.287012 49.9521 0.180711C49.4645 0.0579401 48.9627 -0.000556851 48.4598 0.00670035C47.905 -0.00214924 47.3524 0.0783423 46.8233 0.245094C46.3828 0.384781 45.9741 0.609471 45.6206 0.906371C45.3014 1.17788 45.0481 1.51799 44.8796 1.90117C44.7084 2.29496 44.622 2.72025 44.6261 3.14947C44.6181 3.56344 44.714 3.97281 44.9052 4.34032C45.0964 4.69123 45.3439 5.00849 45.638 5.27945C45.954 5.56965 46.301 5.82446 46.6726 6.03933C47.0588 6.26729 47.4554 6.48597 47.8573 6.69131C48.2592 6.89665 48.6541 7.10431 49.0408 7.31081C49.4039 7.50083 49.75 7.72147 50.0754 7.97034C50.3604 8.1849 50.6078 8.445 50.8076 8.74009C50.9952 9.02487 51.0925 9.3594 51.0868 9.70009C51.0934 9.97798 51.0232 10.2523 50.8838 10.493C50.7471 10.7214 50.5624 10.9175 50.3424 11.0679C50.1098 11.2282 49.8519 11.3483 49.5794 11.4234ZM76.8726 0.270571V1.03277H70.6678V5.22776H74.8197V5.98823H70.6678V11.2453H76.8697V12.0075H68.6904V0.270571H76.8726ZM94.8323 11.1496H92.7293L92.7288 1.13721H94.8405C95.5018 1.13032 96.1579 1.25372 96.7713 1.50033C97.3441 1.73116 97.8626 2.07823 98.2939 2.51951C98.7273 2.9678 99.0655 3.4987 99.2883 4.08044C99.5311 4.7175 99.6516 5.39438 99.6437 6.07585C99.6585 6.82116 99.5304 7.56244 99.2663 8.25979C99.0374 8.8546 98.6871 9.39543 98.2374 9.84798C97.8027 10.2785 97.2803 10.6108 96.7056 10.8225C96.106 11.0431 95.4714 11.1539 94.8323 11.1496ZM94.6753 0.270019H90.752L90.7514 12.0058H95.1446C96.137 12.0227 97.1246 11.8636 98.0612 11.536C98.8531 11.2589 99.5805 10.8248 100.2 10.2598C100.771 9.72896 101.22 9.08055 101.515 8.35955C101.816 7.62064 101.968 6.82988 101.962 6.03235C101.972 5.20606 101.8 4.38765 101.461 3.6338C101.112 2.88278 100.602 2.21786 99.9653 1.68654C99.3339 1.16376 98.5899 0.793516 97.7914 0.604712C96.7707 0.364215 95.7239 0.251783 94.6753 0.270019ZM33.361 7.4378H38.5527L35.9938 2.89302L33.361 7.4378ZM36.9185 0.270571L43.542 12.0093H41.132L38.9877 8.18086H32.9481L30.7294 12.0093H29.54L36.3235 0.270571H36.9185ZM87.8307 8.85728H87.7411L80.0353 0.272362H78.925V12.0087H79.8201V2.73937H79.891L88.0052 12.0099H88.7031V0.272362H87.8307V8.85728Z" fill="#6B758A"/>
</svg>
