<svg width="40" height="40" viewBox="0 0 40 40" fill="none" xmlns="http://www.w3.org/2000/svg">
<circle cx="20" cy="20" r="20" fill="#10A945"/>
<path d="M24.9722 28.7655L27.7778 25.9793V28.2414H28.6389V24.5172H24.8611V25.3724H27.1667L24.3611 28.1586L24.9722 28.7655ZM12.8056 28.6552C12.3056 28.6552 11.8796 28.4805 11.5278 28.131C11.1759 27.7816 11 27.3586 11 26.8621V12.7931C11 12.2966 11.1759 11.8736 11.5278 11.5241C11.8796 11.1747 12.3056 11 12.8056 11H26.9722C27.4722 11 27.8981 11.1747 28.25 11.5241C28.6019 11.8736 28.7778 12.2966 28.7778 12.7931V19.3586C28.5741 19.2851 28.3844 19.2251 28.2089 19.1788C28.0326 19.1331 27.8519 19.092 27.6667 19.0552V12.7931C27.6667 12.6092 27.597 12.4485 27.4578 12.3109C27.3193 12.1726 27.1574 12.1034 26.9722 12.1034H12.8056C12.6204 12.1034 12.4585 12.1726 12.32 12.3109C12.1807 12.4485 12.1111 12.6092 12.1111 12.7931V26.8621C12.1111 27.046 12.1807 27.2067 12.32 27.3443C12.4585 27.4826 12.6204 27.5517 12.8056 27.5517H19.0833C19.1204 27.754 19.1574 27.9423 19.1944 28.1167C19.2315 28.2918 19.287 28.4713 19.3611 28.6552H12.8056ZM12.1111 27.5517V12.1034V19.0552V18.9724V27.5517ZM14.8889 24.5448H19.2778C19.3333 24.3609 19.3937 24.177 19.4589 23.9931C19.5233 23.8092 19.5926 23.6253 19.6667 23.4414H14.8889V24.5448ZM14.8889 20.3793H22.1944C22.5648 20.1218 22.9259 19.9056 23.2778 19.7305C23.6296 19.5561 24.0093 19.4138 24.4167 19.3034V19.2759H14.8889V20.3793ZM14.8889 16.2138H24.8889V15.1103H14.8889V16.2138ZM26.5556 31C25.3148 31 24.2637 30.5678 23.4022 29.7034C22.5415 28.8391 22.1111 27.8 22.1111 26.5862C22.1111 25.354 22.5415 24.3102 23.4022 23.4546C24.2637 22.5998 25.3148 22.1724 26.5556 22.1724C27.7963 22.1724 28.847 22.5998 29.7078 23.4546C30.5693 24.3102 31 25.354 31 26.5862C31 27.8 30.5693 28.8391 29.7078 29.7034C28.847 30.5678 27.7963 31 26.5556 31Z" fill="white"/>
</svg>
