<svg width="32" height="32" viewBox="0 0 32 32" fill="none" xmlns="http://www.w3.org/2000/svg">
<path d="M16.0001 9.508C15.1475 9.508 14.3033 9.67592 13.5157 10.0022C12.728 10.3284 12.0124 10.8066 11.4095 11.4095C10.8067 12.0123 10.3285 12.728 10.0022 13.5156C9.67598 14.3033 9.50806 15.1475 9.50806 16C9.50806 16.8525 9.67598 17.6967 10.0022 18.4844C10.3285 19.272 10.8067 19.9877 11.4095 20.5905C12.0124 21.1934 12.728 21.6716 13.5157 21.9978C14.3033 22.3241 15.1475 22.492 16.0001 22.492C17.7218 22.492 19.3731 21.808 20.5906 20.5905C21.8081 19.373 22.4921 17.7218 22.4921 16C22.4921 14.2782 21.8081 12.6269 20.5906 11.4095C19.3731 10.192 17.7218 9.508 16.0001 9.508V9.508ZM11.5081 16C11.5081 14.8086 11.9813 13.6661 12.8237 12.8237C13.6661 11.9813 14.8087 11.508 16.0001 11.508C17.1914 11.508 18.334 11.9813 19.1764 12.8237C20.0188 13.6661 20.4921 14.8086 20.4921 16C20.4921 17.1913 20.0188 18.3339 19.1764 19.1763C18.334 20.0187 17.1914 20.492 16.0001 20.492C14.8087 20.492 13.6661 20.0187 12.8237 19.1763C11.9813 18.3339 11.5081 17.1913 11.5081 16Z" fill="#717579"/>
<path d="M19.592 2.6861C18.538 -0.893901 13.462 -0.893901 12.408 2.6861L12.22 3.3241C12.1464 3.574 12.0178 3.80427 11.8436 3.99801C11.6694 4.19176 11.4541 4.34408 11.2135 4.4438C10.9728 4.54353 10.7128 4.58813 10.4527 4.57433C10.1925 4.56054 9.93876 4.48871 9.70998 4.3641L9.12598 4.0441C5.84598 2.2601 2.25998 5.8481 4.04598 9.1261L4.36398 9.7101C4.48859 9.93888 4.56042 10.1927 4.57421 10.4528C4.588 10.713 4.5434 10.9729 4.44368 11.2136C4.34396 11.4543 4.19164 11.6696 3.99789 11.8437C3.80415 12.0179 3.57388 12.1465 3.32398 12.2201L2.68598 12.4081C-0.894023 13.4621 -0.894023 18.5381 2.68598 19.5921L3.32398 19.7801C3.57388 19.8537 3.80415 19.9823 3.99789 20.1565C4.19164 20.3306 4.34396 20.5459 4.44368 20.7866C4.5434 21.0273 4.588 21.2872 4.57421 21.5474C4.56042 21.8075 4.48859 22.0613 4.36398 22.2901L4.04398 22.8741C2.25998 26.1541 5.84598 29.7421 9.12598 27.9541L9.70998 27.6361C9.93876 27.5115 10.1925 27.4397 10.4527 27.4259C10.7128 27.4121 10.9728 27.4567 11.2135 27.5564C11.4541 27.6561 11.6694 27.8084 11.8436 28.0022C12.0178 28.1959 12.1464 28.4262 12.22 28.6761L12.408 29.3141C13.462 32.8941 18.538 32.8941 19.592 29.3141L19.78 28.6761C19.8536 28.4262 19.9822 28.1959 20.1563 28.0022C20.3305 27.8084 20.5458 27.6561 20.7865 27.5564C21.0272 27.4567 21.2871 27.4121 21.5473 27.4259C21.8074 27.4397 22.0612 27.5115 22.29 27.6361L22.874 27.9561C26.154 29.7421 29.742 26.1521 27.954 22.8741L27.636 22.2901C27.5114 22.0613 27.4395 21.8075 27.4257 21.5474C27.4119 21.2872 27.4565 21.0273 27.5563 20.7866C27.656 20.5459 27.8083 20.3306 28.0021 20.1565C28.1958 19.9823 28.4261 19.8537 28.676 19.7801L29.314 19.5921C32.894 18.5381 32.894 13.4621 29.314 12.4081L28.676 12.2201C28.4261 12.1465 28.1958 12.0179 28.0021 11.8437C27.8083 11.6696 27.656 11.4543 27.5563 11.2136C27.4565 10.9729 27.4119 10.713 27.4257 10.4528C27.4395 10.1927 27.5114 9.93888 27.636 9.7101L27.956 9.1261C29.742 5.8461 26.152 2.2601 22.874 4.0461L22.29 4.3641C22.0612 4.48871 21.8074 4.56054 21.5473 4.57433C21.2871 4.58813 21.0272 4.54353 20.7865 4.4438C20.5458 4.34408 20.3305 4.19176 20.1563 3.99801C19.9822 3.80427 19.8536 3.574 19.78 3.3241L19.592 2.6861V2.6861ZM14.326 3.2521C14.818 1.5821 17.182 1.5821 17.674 3.2521L17.862 3.8901C18.02 4.42627 18.296 4.92027 18.6698 5.3359C19.0436 5.75152 19.5057 6.07822 20.0221 6.29206C20.5386 6.50589 21.0964 6.60143 21.6545 6.57168C22.2127 6.54192 22.7572 6.38762 23.248 6.1201L23.83 5.8001C25.358 4.9701 27.03 6.6401 26.198 8.1701L25.88 8.7541C25.6128 9.24495 25.4589 9.78935 25.4295 10.3474C25.4001 10.9055 25.4959 11.463 25.7099 11.9793C25.9239 12.4955 26.2507 12.9573 26.6663 13.3308C27.082 13.7044 27.5759 13.9802 28.112 14.1381L28.748 14.3261C30.418 14.8181 30.418 17.1821 28.748 17.6741L28.11 17.8621C27.5738 18.0201 27.0798 18.2962 26.6642 18.6699C26.2486 19.0437 25.9218 19.5058 25.708 20.0222C25.4942 20.5387 25.3986 21.0965 25.4284 21.6547C25.4582 22.2128 25.6124 22.7573 25.88 23.2481L26.2 23.8301C27.03 25.3581 25.36 27.0301 23.83 26.1981L23.248 25.8801C22.757 25.6126 22.2125 25.4584 21.6542 25.4287C21.0959 25.3991 20.538 25.4948 20.0215 25.7089C19.5051 25.9229 19.043 26.2498 18.6693 26.6657C18.2957 27.0815 18.0198 27.5758 17.862 28.1121L17.674 28.7481C17.182 30.4181 14.818 30.4181 14.326 28.7481L14.138 28.1101C13.9799 27.5742 13.7039 27.0805 13.3302 26.6651C12.9566 26.2496 12.4948 25.9231 11.9786 25.7093C11.4624 25.4955 10.9049 25.3998 10.3469 25.4294C9.78897 25.4589 9.2447 25.6129 8.75397 25.8801L8.16998 26.2001C6.64198 27.0301 4.96998 25.3601 5.80198 23.8301L6.11998 23.2481C6.38788 22.7572 6.54248 22.2126 6.57243 21.6542C6.60238 21.0957 6.50692 20.5377 6.29306 20.021C6.0792 19.5043 5.75237 19.042 5.33653 18.6681C4.9207 18.2941 4.42643 18.0181 3.88998 17.8601L3.25198 17.6721C1.58198 17.1801 1.58198 14.8161 3.25198 14.3241L3.88998 14.1361C4.42559 13.9779 4.91905 13.702 5.33426 13.3285C5.74947 12.955 6.0759 12.4934 6.28968 11.9774C6.50346 11.4615 6.59917 10.9042 6.56981 10.3465C6.54044 9.78883 6.38675 9.24474 6.11998 8.7541L5.79998 8.1701C4.96998 6.6421 6.63998 4.9701 8.16998 5.8021L8.75397 6.1201C9.2447 6.38725 9.78897 6.54124 10.3469 6.5708C10.9049 6.60036 11.4624 6.50474 11.9786 6.29093C12.4948 6.07712 12.9566 5.75055 13.3302 5.33514C13.7039 4.91973 13.9799 4.42599 14.138 3.8901L14.326 3.2521V3.2521Z" fill="#717579"/>
</svg>
