<svg width="19" height="21" viewBox="0 0 19 21" fill="none" xmlns="http://www.w3.org/2000/svg">
<path d="M5 20.5C4.71667 20.5 4.479 20.404 4.287 20.212C4.09567 20.0207 4 19.7833 4 19.5V15H3C2.45 15 1.979 14.8043 1.587 14.413C1.19567 14.021 1 13.55 1 13V5.5C0.716667 5.5 0.479333 5.40433 0.288 5.213C0.0960001 5.021 0 4.78333 0 4.5C0 4.21667 0.0960001 3.979 0.288 3.787C0.479333 3.59567 0.716667 3.5 1 3.5H4V2H3.5C3.21667 2 2.979 1.904 2.787 1.712C2.59567 1.52067 2.5 1.28333 2.5 1C2.5 0.716667 2.59567 0.479 2.787 0.287C2.979 0.0956666 3.21667 0 3.5 0H6.5C6.78333 0 7.021 0.0956666 7.213 0.287C7.40433 0.479 7.5 0.716667 7.5 1C7.5 1.28333 7.40433 1.52067 7.213 1.712C7.021 1.904 6.78333 2 6.5 2H6V3.5H9C9.28333 3.5 9.521 3.59567 9.713 3.787C9.90433 3.979 10 4.21667 10 4.5C10 4.78333 9.90433 5.021 9.713 5.213C9.521 5.40433 9.28333 5.5 9 5.5V13C9 13.55 8.80433 14.021 8.413 14.413C8.021 14.8043 7.55 15 7 15H6V19.5C6 19.7833 5.90433 20.0207 5.713 20.212C5.521 20.404 5.28333 20.5 5 20.5ZM3 13H7V11.5H5.25C5.05 11.5 4.875 11.425 4.725 11.275C4.575 11.125 4.5 10.95 4.5 10.75C4.5 10.55 4.575 10.375 4.725 10.225C4.875 10.075 5.05 10 5.25 10H7V8.5H5.25C5.05 8.5 4.875 8.425 4.725 8.275C4.575 8.125 4.5 7.95 4.5 7.75C4.5 7.55 4.575 7.375 4.725 7.225C4.875 7.075 5.05 7 5.25 7H7V5.5H3V13ZM13 20C12.45 20 11.9793 19.8043 11.588 19.413C11.196 19.021 11 18.55 11 18V11.5C11 11.0167 11.0833 10.6167 11.25 10.3C11.4167 9.98333 11.5917 9.70833 11.775 9.475C11.9583 9.24167 12.125 9.054 12.275 8.912C12.425 8.77067 12.5 8.63333 12.5 8.5V8C12.2167 8 11.9793 7.904 11.788 7.712C11.596 7.52067 11.5 7.28333 11.5 7C11.5 6.71667 11.596 6.479 11.788 6.287C11.9793 6.09567 12.2167 6 12.5 6H17.5C17.7833 6 18.0207 6.09567 18.212 6.287C18.404 6.479 18.5 6.71667 18.5 7C18.5 7.28333 18.404 7.52067 18.212 7.712C18.0207 7.904 17.7833 8 17.5 8V8.5C17.5 8.63333 17.5833 8.78333 17.75 8.95C17.9167 9.11667 18.1 9.31667 18.3 9.55C18.4833 9.78333 18.646 10.0583 18.788 10.375C18.9293 10.6917 19 11.0667 19 11.5V18C19 18.55 18.8043 19.021 18.413 19.413C18.021 19.8043 17.55 20 17 20H13ZM13 12H17V11.5C17 11.25 16.925 11.0333 16.775 10.85C16.625 10.6667 16.4583 10.4667 16.275 10.25C16.0917 10.0333 15.9167 9.79167 15.75 9.525C15.5833 9.25833 15.5 8.91667 15.5 8.5V8H14.5V8.5C14.5 8.9 14.421 9.23333 14.263 9.5C14.1043 9.76667 13.9333 10.0083 13.75 10.225C13.5667 10.4417 13.396 10.6457 13.238 10.837C13.0793 11.029 13 11.25 13 11.5V12ZM13 15H17V13.5H13V15ZM13 18H17V16.5H13V18Z" fill="#ffffff"/>
</svg>
