<svg width="22" height="22" viewBox="0 0 22 22" fill="none" xmlns="http://www.w3.org/2000/svg">
<path fill-rule="evenodd" clip-rule="evenodd" d="M1.77687 6.17366e-06C1.78469 9.15389e-06 1.79241 1.21341e-05 1.80001 1.21341e-05H5.20001C5.20762 1.21341e-05 5.21533 9.15389e-06 5.22315 6.17366e-06C5.34227 -3.93643e-05 5.48452 -9.37236e-05 5.60984 0.0101453C5.75506 0.02201 5.96305 0.0524533 6.181 0.163502C6.46324 0.307313 6.69271 0.536784 6.83652 0.819026C6.94757 1.03697 6.97801 1.24496 6.98988 1.39018C7.00012 1.5155 7.00006 1.65776 7.00002 1.77687C7.00001 1.78469 7.00001 1.79241 7.00001 1.80001V5.20001C7.00001 5.20762 7.00001 5.21533 7.00002 5.22315C7.00006 5.34227 7.00012 5.48452 6.98988 5.60984C6.97801 5.75506 6.94757 5.96305 6.83652 6.181C6.69271 6.46324 6.46324 6.69271 6.181 6.83652C5.96305 6.94757 5.75506 6.97801 5.60984 6.98988C5.48452 7.00012 5.34227 7.00006 5.22315 7.00002C5.21533 7.00001 5.20762 7.00001 5.20001 7.00001H1.80001C1.79241 7.00001 1.78469 7.00001 1.77687 7.00002C1.65776 7.00006 1.5155 7.00012 1.39018 6.98988C1.24496 6.97801 1.03697 6.94757 0.819026 6.83652C0.536784 6.69271 0.307313 6.46324 0.163502 6.181C0.0524533 5.96305 0.02201 5.75506 0.0101453 5.60984C-9.37236e-05 5.48452 -3.93643e-05 5.34227 6.17366e-06 5.22315C9.15389e-06 5.21533 1.21341e-05 5.20762 1.21341e-05 5.20001V1.80001C1.21341e-05 1.79241 9.15389e-06 1.78469 6.17366e-06 1.77687C-3.93643e-05 1.65776 -9.37236e-05 1.5155 0.0101453 1.39018C0.02201 1.24496 0.0524534 1.03697 0.163502 0.819026C0.307312 0.536783 0.536783 0.307312 0.819026 0.163502C1.03697 0.0524534 1.24496 0.02201 1.39018 0.0101453C1.5155 -9.37236e-05 1.65776 -3.93643e-05 1.77687 6.17366e-06ZM2.00001 2.00001V5.00001H5.00001V2.00001H2.00001ZM18.5322 4.52394C18.2488 4.50079 17.8766 4.50001 17.3 4.50001H10C9.44773 4.50001 9.00001 4.0523 9.00001 3.50001C9.00001 2.94773 9.44773 2.50001 10 2.50001L17.3386 2.50001C17.8657 2.49999 18.3205 2.49998 18.695 2.53058C19.0904 2.56288 19.4836 2.6342 19.862 2.82699C20.4265 3.11461 20.8854 3.57356 21.173 4.13804C21.3658 4.51642 21.4371 4.90964 21.4694 5.30498C21.5 5.67955 21.5 6.13431 21.5 6.66145V8.032C21.5 8.47065 21.5 8.84914 21.4787 9.1624C21.4562 9.49222 21.4067 9.82213 21.2717 10.1481C20.9672 10.8832 20.3831 11.4672 19.6481 11.7717C19.3221 11.9067 18.9922 11.9562 18.6624 11.9787C18.3491 12 17.9706 12 17.532 12H17.5C16.9477 12 16.5 11.5523 16.5 11C16.5 10.4477 16.9477 10 17.5 10C17.9796 10 18.2893 9.99947 18.5263 9.9833C18.7542 9.96775 18.8411 9.94113 18.8827 9.92389C19.1277 9.8224 19.3224 9.62772 19.4239 9.3827C19.4411 9.34108 19.4677 9.25425 19.4833 9.02625C19.4995 8.78927 19.5 8.47964 19.5 8.00001V6.70001C19.5 6.12346 19.4992 5.75118 19.4761 5.46785C19.4539 5.19618 19.4162 5.09547 19.391 5.04602C19.2951 4.85786 19.1422 4.70488 18.954 4.60901C18.9046 4.58381 18.8038 4.54614 18.5322 4.52394ZM9.27687 7.50001C9.28469 7.50001 9.29241 7.50001 9.30001 7.50001H12.7C12.7076 7.50001 12.7153 7.50001 12.7232 7.50001C12.8423 7.49996 12.9845 7.49991 13.1098 7.51015C13.2551 7.52201 13.4631 7.55245 13.681 7.6635C13.9632 7.80731 14.1927 8.03678 14.3365 8.31903C14.4476 8.53697 14.478 8.74496 14.4899 8.89018C14.5001 9.0155 14.5001 9.15777 14.5 9.27688C14.5 9.2847 14.5 9.29241 14.5 9.30001V12.7C14.5 12.7076 14.5 12.7153 14.5 12.7231C14.5001 12.8423 14.5001 12.9845 14.4899 13.1098C14.478 13.2551 14.4476 13.4631 14.3365 13.681C14.1927 13.9632 13.9632 14.1927 13.681 14.3365C13.4631 14.4476 13.2551 14.478 13.1098 14.4899C12.9845 14.5001 12.8423 14.5001 12.7231 14.5C12.7153 14.5 12.7076 14.5 12.7 14.5H9.30001C9.29241 14.5 9.2847 14.5 9.27688 14.5C9.15777 14.5001 9.0155 14.5001 8.89018 14.4899C8.74496 14.478 8.53697 14.4476 8.31903 14.3365C8.03678 14.1927 7.80731 13.9632 7.6635 13.681C7.55245 13.4631 7.52201 13.2551 7.51015 13.1098C7.49991 12.9845 7.49996 12.8423 7.50001 12.7232C7.50001 12.7153 7.50001 12.7076 7.50001 12.7V9.30001C7.50001 9.29241 7.50001 9.28469 7.50001 9.27687C7.49996 9.15776 7.49991 9.0155 7.51015 8.89018C7.52201 8.74496 7.55245 8.53697 7.6635 8.31903C7.80731 8.03678 8.03678 7.80731 8.31903 7.6635C8.53697 7.55245 8.74496 7.52201 8.89018 7.51015C9.0155 7.49991 9.15776 7.49996 9.27687 7.50001ZM9.50001 9.50001V12.5H12.5V9.50001H9.50001ZM4.46802 10H4.50001C5.0523 10 5.50001 10.4477 5.50001 11C5.50001 11.5523 5.0523 12 4.50001 12C4.02039 12 3.71075 12.0006 3.47377 12.0167C3.24577 12.0323 3.15894 12.0589 3.11733 12.0761C2.8723 12.1776 2.67763 12.3723 2.57613 12.6173C2.5589 12.6589 2.53228 12.7458 2.51672 12.9738C2.50055 13.2108 2.50001 13.5204 2.50001 14V15.3C2.50001 15.8766 2.50079 16.2488 2.52394 16.5322C2.54614 16.8038 2.58381 16.9046 2.60901 16.954C2.70488 17.1422 2.85786 17.2951 3.04602 17.391C3.09547 17.4162 3.19618 17.4539 3.46785 17.4761C3.75119 17.4992 4.12346 17.5 4.70001 17.5H12C12.5523 17.5 13 17.9477 13 18.5C13 19.0523 12.5523 19.5 12 19.5H4.66145C4.13431 19.5 3.67955 19.5 3.30498 19.4694C2.90964 19.4371 2.51642 19.3658 2.13804 19.173C1.57356 18.8854 1.11461 18.4265 0.826993 17.862C0.634198 17.4836 0.562883 17.0904 0.530582 16.695C0.499978 16.3205 0.499993 15.8657 0.500011 15.3386L0.500012 13.968C0.499999 13.5294 0.499988 13.1509 0.521362 12.8376C0.543866 12.5078 0.59337 12.1779 0.728374 11.852C1.03286 11.1169 1.61688 10.5329 2.35196 10.2284C2.67789 10.0934 3.0078 10.0439 3.33763 10.0214C3.65089 9.99999 4.02937 10 4.46802 10ZM16.7769 15H20.2231C20.3423 15 20.4845 14.9999 20.6098 15.0101C20.7551 15.022 20.9631 15.0525 21.181 15.1635C21.4632 15.3073 21.6927 15.5368 21.8365 15.819C21.9476 16.037 21.978 16.245 21.9899 16.3902C22.0001 16.5155 22.0001 16.6577 22 16.7769C22 16.7847 22 16.7924 22 16.8V20.2C22 20.2076 22 20.2153 22 20.2232C22.0001 20.3423 22.0001 20.4845 21.9899 20.6098C21.978 20.7551 21.9476 20.9631 21.8365 21.181C21.6927 21.4632 21.4632 21.6927 21.181 21.8365C20.9631 21.9476 20.7551 21.978 20.6098 21.9899C20.4845 22.0001 20.3423 22.0001 20.2232 22C20.2153 22 20.2076 22 20.2 22H16.8C16.7924 22 16.7847 22 16.7769 22C16.6577 22.0001 16.5155 22.0001 16.3902 21.9899C16.245 21.978 16.037 21.9476 15.819 21.8365C15.5368 21.6927 15.3073 21.4632 15.1635 21.181C15.0525 20.9631 15.022 20.7551 15.0101 20.6098C14.9999 20.4845 15 20.3423 15 20.2231V16.7769C15 16.6578 14.9999 16.5155 15.0101 16.3902C15.022 16.245 15.0525 16.037 15.1635 15.819C15.3073 15.5368 15.5368 15.3073 15.819 15.1635C16.037 15.0525 16.245 15.022 16.3902 15.0101C16.5155 14.9999 16.6578 15 16.7769 15ZM17 17V20H20V17H17Z" fill="white"/>
</svg>
