<svg width="22" height="22" viewBox="0 0 22 22" fill="none" xmlns="http://www.w3.org/2000/svg">
<path fill-rule="evenodd" clip-rule="evenodd" d="M11 2C8.23858 2 6 4.23858 6 7C6 8.6219 6.88113 9.87551 8.15885 11.2063C8.46404 11.5242 8.78104 11.836 9.10793 12.1574L9.1436 12.1925C9.47912 12.5225 9.82504 12.8634 10.1551 13.2113C10.4448 13.5165 10.7318 13.8368 11 14.1753C11.2682 13.8368 11.5552 13.5165 11.8449 13.2113C12.175 12.8634 12.5209 12.5225 12.8564 12.1925L12.8921 12.1574C13.219 11.8359 13.536 11.5242 13.8412 11.2063C15.1189 9.87551 16 8.6219 16 7C16 4.23858 13.7614 2 11 2ZM4 7C4 3.13401 7.13401 0 11 0C14.866 0 18 3.13401 18 7C18 9.44181 16.6311 11.1882 15.2838 12.5915C14.9583 12.9306 14.6228 13.2604 14.3014 13.5766L14.2588 13.6184C13.9205 13.9512 13.5985 14.2688 13.2957 14.5879C12.686 15.2305 12.2034 15.8292 11.8944 16.4472C11.725 16.786 11.3788 17 11 17C10.6212 17 10.275 16.786 10.1056 16.4472C9.79659 15.8292 9.31401 15.2305 8.70429 14.5879C8.40152 14.2688 8.07947 13.9512 7.74116 13.6184L7.69855 13.5765C7.37712 13.2604 7.04171 12.9305 6.71615 12.5915C5.36887 11.1882 4 9.44181 4 7ZM9 7C9 5.89543 9.89543 5 11 5C12.1046 5 13 5.89543 13 7C13 8.10457 12.1046 9 11 9C9.89543 9 9 8.10457 9 7ZM4.91493 12.8827C5.13784 13.388 4.90892 13.9784 4.40361 14.2013C3.55515 14.5756 2.92948 14.9979 2.52954 15.4174C2.13448 15.8318 2 16.1961 2 16.5C2 17.104 2.59225 17.9839 4.3393 18.7701C5.99248 19.514 8.34649 20 11 20C13.6535 20 16.0075 19.514 17.6607 18.7701C19.4077 17.9839 20 17.104 20 16.5C20 16.1961 19.8655 15.8318 19.4705 15.4174C19.0705 14.9979 18.4448 14.5756 17.5964 14.2013C17.0911 13.9784 16.8622 13.388 17.0851 12.8827C17.308 12.3774 17.8983 12.1485 18.4036 12.3714C19.4065 12.8138 20.2808 13.369 20.9181 14.0374C21.5602 14.7109 22 15.5451 22 16.5C22 18.3813 20.3537 19.7514 18.4814 20.5939C16.5153 21.4787 13.8693 22 11 22C8.13066 22 5.48468 21.4787 3.51857 20.5939C1.64633 19.7514 0 18.3813 0 16.5C0 15.5451 0.439834 14.7109 1.08194 14.0374C1.71916 13.369 2.59349 12.8138 3.59639 12.3714C4.10169 12.1485 4.69202 12.3774 4.91493 12.8827Z" fill="white"/>
</svg>
