<svg width="40" height="40" viewBox="0 0 40 40" fill="none" xmlns="http://www.w3.org/2000/svg">
    <circle cx="20" cy="20" r="20" fill="#10A945" />
    <mask id="mask0_1003_25578" style="mask-type:alpha" maskUnits="userSpaceOnUse" x="9" y="9"
        width="22" height="22">
        <rect x="9" y="9" width="22" height="22" fill="#D9D9D9" />
    </mask>
    <g mask="url(#mask0_1003_25578)">
        <path
            d="M19.3125 25.8438H20.6875V21.7876L22.3833 23.4834L23.3458 22.498L20 19.1522L16.6542 22.498L17.6396 23.4605L19.3125 21.7876V25.8438ZM14.775 28.7084C14.3167 28.7084 13.9271 28.548 13.6063 28.2272C13.2854 27.9063 13.125 27.5167 13.125 27.0584V12.9417C13.125 12.4834 13.2854 12.0938 13.6063 11.773C13.9271 11.4522 14.3167 11.2917 14.775 11.2917H22.0625L26.875 16.1042V27.0584C26.875 27.5167 26.7146 27.9063 26.3938 28.2272C26.0729 28.548 25.6833 28.7084 25.225 28.7084H14.775ZM21.375 16.7917V12.6667H14.775C14.7139 12.6667 14.6528 12.6973 14.5917 12.7584C14.5306 12.8195 14.5 12.8806 14.5 12.9417V27.0584C14.5 27.1195 14.5306 27.1806 14.5917 27.2417C14.6528 27.3029 14.7139 27.3334 14.775 27.3334H25.225C25.2861 27.3334 25.3472 27.3029 25.4083 27.2417C25.4694 27.1806 25.5 27.1195 25.5 27.0584V16.7917H21.375Z"
            fill="white" />
    </g>
</svg>
    